<svg width="147" height="30" viewBox="0 0 147 30" fill="none" xmlns="http://www.w3.org/2000/svg">
<path d="M11.4644 24.2379C12.4117 24.2379 13.3253 24.623 13.3253 25.7142C13.3253 26.3713 12.9311 27.111 12.045 27.1996C12.375 27.3066 12.6683 27.6183 12.8425 27.8934C12.8669 27.9301 13.3344 28.6759 13.6308 29.0427C13.9669 29.4736 14.19 29.6295 14.5994 29.6356V29.7151H13.8386C12.9831 29.7151 12.3597 29.5286 12.0022 28.9051C11.8128 28.575 11.4583 27.7987 11.3514 27.5633C11.1986 27.2363 11.0244 27.0712 10.8228 27.0346V26.9612H11.0611C11.4828 26.9551 11.9106 26.7411 12.0481 26.0565C12.0664 25.9617 12.0847 25.8364 12.0786 25.6775C12.0481 24.9286 11.6692 24.5955 11.1558 24.5833C10.9481 24.5741 10.6608 24.5833 10.5631 24.5833V29.1466C10.5692 29.4186 10.7892 29.6387 11.0642 29.6387H11.1619V29.7181H8.78472V29.6387H8.88556C9.1575 29.6387 9.38056 29.4217 9.38667 29.1496V24.8094C9.38056 24.5374 9.16056 24.3173 8.88556 24.3173H8.78472V24.2409H11.4675L11.4644 24.2379Z" fill="#E4D7C6"/>
<path d="M23.9158 29.7151H19.8672V29.6356H19.9681C20.2431 29.6356 20.4631 29.4155 20.4692 29.1435V24.7819C20.4508 24.5221 20.2339 24.3143 19.9681 24.3143H19.8703V24.2379H22.8678C23.2039 24.2379 23.6561 24.1554 23.8028 24.0942V25.4635H23.7233V25.3688C23.7233 24.8981 23.4269 24.5894 22.9594 24.571H21.6425V26.8481H22.6783C23.0633 26.842 23.3414 26.5577 23.3414 26.1787V26.1115H23.4178V27.9179H23.3414V27.8506C23.3414 27.4716 23.0664 27.1935 22.6875 27.1813H21.6394V29.3819H22.6661C23.4483 29.3819 23.9556 28.8959 24.1969 28.1196H24.2764L23.9158 29.7151Z" fill="#E4D7C6"/>
<path d="M33.2903 26.9092C33.7547 27.2118 34.0267 27.6214 33.9931 28.2082C33.9442 29.226 33.1772 29.8282 31.9275 29.8282C31.2247 29.8282 30.5678 29.6478 30.2836 29.3544C30.1553 29.0274 30.2653 28.3672 30.47 28.0248H30.5372C30.4761 28.8409 31.075 29.5134 32.0131 29.4981C32.6944 29.4858 33.0947 29.1099 33.0947 28.6178C33.0947 28.2999 32.89 28.089 32.4683 27.8109L31.1056 26.9062C30.5678 26.5486 30.2989 26.0718 30.3569 25.5033C30.4242 24.6933 31.0169 24.1339 32.0039 24.1339C32.2544 24.1339 32.7128 24.1676 33.0703 24.2134H33.5622L33.4583 25.3627H33.3819C33.3819 24.8186 32.9419 24.461 32.2789 24.461C31.6647 24.461 31.2736 24.7941 31.2553 25.2129C31.2369 25.5216 31.4722 25.7264 31.7992 25.9403L33.2903 26.9092Z" fill="#E4D7C6"/>
<path d="M42.3714 29.7151H39.9942V29.6356H40.095C40.37 29.6356 40.59 29.4155 40.5961 29.1435V24.8033C40.59 24.5313 40.3669 24.3143 40.095 24.3143H39.9972V24.2348H42.3714V24.3143H42.2705C41.9986 24.3143 41.7786 24.5313 41.7694 24.8003V29.1405C41.7755 29.4125 41.9955 29.6326 42.2705 29.6326H42.3683V29.712L42.3714 29.7151Z" fill="#E4D7C6"/>
<path d="M51.2111 24.2409C53.0597 24.2409 54.2086 25.2893 54.2086 26.9826C54.2086 28.6759 53.0567 29.7181 51.2111 29.7181H48.3725V29.6387H48.4733C48.7453 29.6387 48.9683 29.4186 48.9744 29.1466V24.7636C48.9744 24.513 48.7361 24.3143 48.4764 24.3143H48.3786V24.2379H51.2111V24.2409ZM50.1508 29.385H51.1194C52.2408 29.385 52.9375 28.465 52.9375 26.9826C52.9375 25.5002 52.2378 24.571 51.1194 24.571H50.1508V29.385Z" fill="#E4D7C6"/>
<path d="M64.1056 29.7151H60.0569V29.6356H60.1578C60.4328 29.6356 60.6528 29.4155 60.6589 29.1435V24.7819C60.6406 24.5221 60.4236 24.3143 60.1578 24.3143H60.06V24.2379H63.0575C63.3936 24.2379 63.8458 24.1554 63.9925 24.0942V25.4635H63.9131V25.3688C63.9131 24.8981 63.6167 24.5894 63.1492 24.571H61.8322V26.8481H62.8681C63.2531 26.842 63.5311 26.5577 63.5311 26.1787V26.1115H63.6075V27.9179H63.5311V27.8506C63.5311 27.4716 63.2561 27.1935 62.8772 27.1813H61.8292V29.3819H62.8558C63.6381 29.3819 64.1453 28.8959 64.3867 28.1196H64.4661L64.1056 29.7151Z" fill="#E4D7C6"/>
<path d="M76.5294 24.2379V24.3173H76.3828C76.12 24.3173 75.9092 24.5252 75.9 24.785V28.8287C75.9 29.4186 75.9917 29.8282 75.9917 29.8282H75.9214L71.9706 26.0626V29.168C71.9767 29.4308 72.1906 29.6387 72.4533 29.6387H72.5969V29.7181H70.2258V29.6387H70.3725C70.6353 29.6387 70.8492 29.4278 70.8553 29.1649V25.0998C70.8553 24.5191 70.7636 24.1217 70.7636 24.1217H70.84L74.7847 27.8843V24.7911C74.7786 24.5282 74.5647 24.3173 74.3019 24.3173H74.1583V24.2379H76.5294Z" fill="#E4D7C6"/>
<path d="M87.6333 27.4319L87.7097 28.7798C87.3583 29.3575 86.6922 29.8251 85.5128 29.8251C83.5908 29.8159 82.3411 28.7553 82.3411 26.9704C82.3411 25.1854 83.5511 24.1309 85.5372 24.1309C86.3714 24.1309 87.0375 24.3235 87.4806 24.5557L87.4958 25.8975H87.4317C87.1475 24.8706 86.4753 24.461 85.6136 24.461C84.3731 24.461 83.6153 25.4177 83.6153 26.9551C83.6153 28.4925 84.3486 29.4675 85.5128 29.4981C86.7167 29.4981 87.3278 28.9724 87.5692 27.435H87.6333V27.4319Z" fill="#E4D7C6"/>
<path d="M96.1278 29.7151H93.7505V29.6356H93.8514C94.1264 29.6356 94.3464 29.4155 94.3525 29.1435V24.8033C94.3464 24.5313 94.1233 24.3143 93.8514 24.3143H93.7536V24.2348H96.1278V24.3143H96.0269C95.755 24.3143 95.535 24.5313 95.5258 24.8003V29.1405C95.5319 29.4125 95.7519 29.6326 96.0269 29.6326H96.1247V29.712L96.1278 29.7151Z" fill="#E4D7C6"/>
<path d="M106.856 29.1833C107.024 29.5042 107.293 29.6356 107.522 29.6356H107.586V29.7151H105.093V29.6387H105.163C105.365 29.6387 105.585 29.4614 105.466 29.1466L105.081 28.1807H103.244L102.844 29.1466C102.716 29.4614 102.942 29.6387 103.143 29.6387H103.214V29.7151H101.536V29.6356H101.606C101.829 29.6356 102.098 29.5042 102.263 29.1955L104.072 25.1059C104.127 24.9867 104.439 24.3082 104.457 24.082H104.527L106.853 29.1833H106.856ZM104.952 27.8506L104.188 25.9281L103.388 27.8506H104.955H104.952Z" fill="#E4D7C6"/>
<path d="M117.095 29.7151H113.046V29.6356H113.147C113.422 29.6356 113.642 29.4155 113.648 29.1435V24.8064C113.642 24.5344 113.422 24.3143 113.147 24.3143H113.049V24.2348H115.424V24.3143H115.323C115.048 24.3143 114.828 24.5344 114.822 24.8064V29.3789H115.848C116.631 29.3789 117.138 28.8929 117.379 28.1165H117.459L117.098 29.712L117.095 29.7151Z" fill="#E4D7C6"/>
<path d="M127.227 29.7151H123.179V29.6356H123.279C123.554 29.6356 123.774 29.4155 123.781 29.1435V24.7819C123.762 24.5221 123.545 24.3143 123.279 24.3143H123.182V24.2379H126.179C126.515 24.2379 126.967 24.1554 127.114 24.0942V25.4635H127.035V25.3688C127.035 24.8981 126.738 24.5894 126.271 24.571H124.954V26.8481H125.99C126.375 26.842 126.653 26.5577 126.653 26.1787V26.1115H126.729V27.9179H126.653V27.8506C126.653 27.4716 126.378 27.1935 125.999 27.1813H124.951V29.3819H125.978C126.76 29.3819 127.267 28.8959 127.508 28.1196H127.588L127.227 29.7151Z" fill="#E4D7C6"/>
<path d="M136.602 26.9092C137.066 27.2118 137.338 27.6214 137.304 28.2082C137.256 29.226 136.489 29.8282 135.239 29.8282C134.539 29.8282 133.879 29.6478 133.595 29.3544C133.467 29.0274 133.577 28.3672 133.781 28.0248H133.852C133.787 28.8409 134.389 29.5134 135.327 29.4981C136.009 29.4858 136.409 29.1099 136.409 28.6178C136.409 28.2999 136.204 28.089 135.783 27.8109L134.42 26.9062C133.882 26.5486 133.613 26.0718 133.671 25.5033C133.739 24.6933 134.331 24.1339 135.318 24.1339C135.569 24.1339 136.027 24.1676 136.385 24.2134H136.877L136.773 25.3627H136.696C136.696 24.8186 136.256 24.461 135.593 24.461C134.976 24.461 134.588 24.7941 134.57 25.2129C134.551 25.5216 134.787 25.7264 135.114 25.9403L136.605 26.9092H136.602Z" fill="#E4D7C6"/>
<path d="M0.0641632 18.4642H146.025V18.6659C146.025 19.647 145.227 20.4448 144.247 20.4448H1.8425C0.861663 20.4448 0.0641632 19.647 0.0641632 18.6659V18.4642Z" fill="#E4D7C6"/>
<path d="M13.09 8.25861C12.8822 9.53622 12.5644 10.554 12.1428 11.312C11.7181 12.07 11.1619 12.611 10.4714 12.935C9.78083 13.2621 8.93139 13.4241 7.92917 13.4241C6.96361 13.3965 6.12639 13.1245 5.41445 12.6019C4.7025 12.0792 4.15555 11.3487 3.77055 10.4104C3.38555 9.47202 3.19305 8.35642 3.19305 7.06353C3.19305 5.77064 3.39472 4.66419 3.79805 3.73808C4.20139 2.81196 4.77583 2.09369 5.51833 1.58631C6.26083 1.07894 7.15306 0.822193 8.19806 0.822193C9.24306 0.822193 10.1994 1.10033 10.9939 1.65356C11.7883 2.20678 12.3628 3.12983 12.7142 4.42272H12.8914L12.8731 1.07588C12.3108 0.776347 11.6172 0.522659 10.7892 0.311762C9.96111 0.103922 9.02611 0 7.98111 0C6.325 0 4.90111 0.287311 3.70639 0.861929C2.51472 1.43655 1.59806 2.25568 0.959444 3.31628C0.320833 4.37994 0 5.64226 0 7.10325C0 8.56425 0.326944 9.8816 0.977777 10.9391C1.62861 11.9967 2.55139 12.8066 3.74611 13.3752C4.93778 13.9437 6.33111 14.234 7.92305 14.2463C8.90083 14.2463 9.74722 14.127 10.4653 13.8856C11.1833 13.6441 11.7822 13.3262 12.265 12.935C12.7478 12.5438 13.1328 12.1067 13.42 11.6238L13.2428 8.25861H13.0869H13.09Z" fill="#E4D7C6"/>
<path d="M28.0347 13.5341C27.7475 13.3721 27.5061 13.0878 27.3106 12.6844L22.0886 1.70857H21.9328C21.9206 1.84 21.8686 2.02033 21.7769 2.24651C21.6853 2.47575 21.5875 2.71721 21.4836 2.97089C21.3797 3.22458 21.2819 3.45382 21.1903 3.65555C21.0986 3.85728 21.0406 3.99787 21.0131 4.07734L17.0103 12.6874H17.0042C16.8208 13.0909 16.5856 13.3751 16.2983 13.5371C16.0111 13.6991 15.7392 13.7817 15.4764 13.7817H15.3206V13.9773H19.2317V13.7817H19.0758C18.8528 13.7817 18.6511 13.6869 18.4708 13.4974C18.2906 13.311 18.2722 13.0481 18.4067 12.7058L19.1828 10.9055H23.3169L24.1328 12.8311C24.2153 13.1123 24.1847 13.3385 24.0289 13.5005C23.8456 13.69 23.6439 13.7847 23.4239 13.7847H23.2681V13.9803H29.0186V13.7847H28.8628C28.6031 13.7847 28.3281 13.7022 28.0408 13.5402L28.0347 13.5341ZM19.5067 10.1383L21.2606 6.06099L22.9869 10.1383H19.5067Z" fill="#E4D7C6"/>
<path d="M43.2911 2.23428H39.2608V2.4299H39.5939C39.8933 2.4299 40.1439 2.52465 40.3486 2.71415C40.5503 2.90365 40.6572 3.14206 40.6725 3.42937V9.85714L31.6953 1.96226H31.5181C31.6494 2.78445 31.7136 3.52718 31.7136 4.19349V12.7822C31.7136 13.0695 31.6097 13.3079 31.4019 13.4974C31.1942 13.6869 30.9375 13.7817 30.638 13.7817H30.3264V13.9773H35.8019V13.7817H35.4689C35.1817 13.7817 34.9342 13.6869 34.7264 13.4974C34.5186 13.3079 34.4056 13.0695 34.3933 12.7822V6.32079L43.3706 14.2279H43.5478C43.4836 13.8489 43.4347 13.4882 43.4011 13.1429C43.3675 12.7975 43.3522 12.3971 43.3522 11.9386V3.42631C43.3522 3.139 43.4592 2.9006 43.6761 2.7111C43.89 2.5216 44.1436 2.42684 44.4278 2.42684H44.7608V2.23123H43.2942L43.2911 2.23428Z" fill="#E4D7C6"/>
<path d="M56.8853 2.16398C56.598 2.1976 56.3322 2.21289 56.0847 2.21289H48.8675C48.6322 2.21289 48.3755 2.1976 48.0944 2.16398C47.8133 2.13036 47.5597 2.08757 47.3305 2.03561C47.1014 1.98365 46.9303 1.94392 46.8111 1.91946V5.00956H47.025V4.83229C47.025 4.27295 47.1778 3.82671 47.4833 3.50272C47.7889 3.17568 48.2289 3.00757 48.8033 2.99229H51.0522V12.7363C51.04 13.0237 50.93 13.2682 50.7283 13.4699C50.5267 13.6716 50.2822 13.7725 49.995 13.7725H49.7811V13.9681H55.1803V13.7725H54.9664C54.6669 13.7725 54.4103 13.6716 54.2025 13.4699C53.9947 13.2682 53.8908 13.0237 53.8908 12.7363V2.99229H56.1611C56.7203 3.00452 57.1603 3.17568 57.4811 3.50272C57.7989 3.82977 57.9547 4.27295 57.9394 4.83229V5.00956H58.1533V1.91946C58.0617 1.9592 57.8997 2.00199 57.6644 2.04784C57.4292 2.09369 57.1694 2.13342 56.8822 2.16398H56.8853Z" fill="#E4D7C6"/>
<path d="M72.2394 3.62193C71.6253 3.08704 70.895 2.68053 70.0486 2.39933C69.1992 2.11814 68.255 1.97754 67.2131 1.97754C66.1711 1.97754 65.2453 2.11814 64.3958 2.39933C63.5494 2.68053 62.8192 3.08704 62.205 3.62193C61.5908 4.15681 61.1233 4.80173 60.7964 5.55973C60.4694 6.31774 60.3075 7.1705 60.3075 8.12412C60.3075 9.07774 60.4694 9.9091 60.7964 10.6579C61.1233 11.4068 61.5908 12.0517 62.205 12.5866C62.8192 13.1215 63.5494 13.528 64.3958 13.8092C65.2422 14.0904 66.1833 14.231 67.2131 14.231C68.2428 14.231 69.2022 14.0904 70.0486 13.8092C70.895 13.528 71.6253 13.1215 72.2394 12.5866C72.8536 12.0517 73.3242 11.4098 73.6572 10.6579C73.9903 9.9091 74.1553 9.06246 74.1553 8.12412C74.1553 7.18578 73.9903 6.31774 73.6572 5.55973C73.3242 4.80478 72.8505 4.15681 72.2394 3.62193ZM70.6658 10.9605C70.345 11.7552 69.8897 12.3726 69.2969 12.8097C68.7042 13.2468 68.0106 13.4638 67.2131 13.4638C66.4156 13.4638 65.7464 13.2468 65.1597 12.8097C64.5731 12.3726 64.1147 11.7552 63.7908 10.9605C63.4639 10.1658 63.3019 9.21834 63.3019 8.12412C63.3019 7.0299 63.4639 6.061 63.7908 5.25714C64.1178 4.45635 64.5731 3.83588 65.1597 3.3988C65.7464 2.96173 66.4308 2.74472 67.2131 2.74472C67.9953 2.74472 68.7042 2.96478 69.2969 3.3988C69.8897 3.83588 70.348 4.45635 70.6658 5.25714C70.9836 6.061 71.1456 7.01462 71.1456 8.12412C71.1456 9.23362 70.9867 10.1658 70.6658 10.9605Z" fill="#E4D7C6"/>
<path d="M83.9575 7.75123L80.8867 5.85316C80.6392 5.7095 80.4131 5.56585 80.2114 5.42219C80.0097 5.27854 79.8539 5.11349 79.7408 4.92398C79.6308 4.73448 79.588 4.52358 79.6125 4.28824C79.64 3.83282 79.8447 3.46604 80.2297 3.19096C80.6147 2.91588 81.1189 2.78139 81.7453 2.78139C82.5275 2.78139 83.1264 2.95867 83.545 3.31016C83.9636 3.66166 84.1714 4.13847 84.1714 4.73754H84.3486L84.6022 2.35043C84.6022 2.35043 84.5961 2.35043 84.5931 2.34737L84.6022 2.15482H83.5267C83.3769 2.13648 83.2242 2.12119 83.0592 2.10591C82.6925 2.07229 82.3258 2.04478 81.953 2.01727C81.5803 1.99282 81.2656 1.97754 81.0028 1.97754C80.3519 1.97754 79.7714 2.09369 79.2611 2.32904C78.7508 2.56439 78.3444 2.90366 78.0389 3.34684C77.7333 3.79003 77.5469 4.32492 77.4828 4.9515C77.4033 5.61781 77.5133 6.2291 77.8067 6.79149C78.1 7.35388 78.5736 7.80319 79.2244 8.14246L82.0019 9.90298C82.5244 10.1781 82.8972 10.4532 83.1264 10.7343C83.3555 11.0155 83.4686 11.3304 83.4686 11.6849C83.4686 12.1556 83.2792 12.5652 82.9003 12.9167C82.5214 13.2682 81.953 13.4454 81.1983 13.4454C80.5078 13.4454 79.915 13.2987 79.4169 13.0053C78.9189 12.7119 78.5461 12.3176 78.2925 11.8225C78.0389 11.3273 77.9319 10.7863 77.9686 10.1995H77.8128C77.6569 10.447 77.5256 10.7557 77.4217 11.1286C77.3178 11.5015 77.2597 11.8714 77.2444 12.2442C77.2322 12.6171 77.2781 12.932 77.3819 13.1918C77.5653 13.3874 77.8281 13.5647 78.1733 13.7205C78.5186 13.8764 78.9342 14.0017 79.4139 14.0934C79.8967 14.1851 80.4192 14.231 80.9783 14.231C81.8919 14.231 82.6833 14.0904 83.3555 13.8092C84.0278 13.528 84.5564 13.1215 84.9414 12.5866C85.3264 12.0517 85.5372 11.419 85.5769 10.6885C85.6167 9.98551 85.4853 9.38339 85.1858 8.88824C84.8864 8.39309 84.4739 8.01408 83.9544 7.75428L83.9575 7.75123Z" fill="#E4D7C6"/>
<path d="M99.9594 13.5341C99.6722 13.3721 99.4308 13.0878 99.2353 12.6844L94.0133 1.70857H93.8575C93.8453 1.84 93.7933 2.02033 93.7017 2.24651C93.61 2.47575 93.5122 2.71721 93.4083 2.97089C93.3044 3.22458 93.2067 3.45382 93.115 3.65555C93.0233 3.85728 92.9653 3.99787 92.9378 4.07734L88.935 12.6874H88.9289C88.7456 13.0909 88.5103 13.3751 88.2231 13.5371C87.9358 13.6991 87.6639 13.7817 87.4011 13.7817H87.2453V13.9773H91.1564V13.7817H91.0005C90.7775 13.7817 90.5758 13.6869 90.3955 13.4974C90.2153 13.311 90.1969 13.0481 90.3314 12.7058L91.1075 10.9055H95.2417L96.0575 12.8311C96.14 13.1123 96.1094 13.3385 95.9536 13.5005C95.7703 13.69 95.5686 13.7847 95.3486 13.7847H95.1928V13.9803H100.943V13.7847H100.787C100.528 13.7847 100.253 13.7022 99.9655 13.5402L99.9594 13.5341ZM91.4314 10.1383L93.1853 6.06099L94.9117 10.1383H91.4314Z" fill="#E4D7C6"/>
<path d="M115.216 2.23428H111.186V2.4299H111.519C111.818 2.4299 112.069 2.52465 112.273 2.71415C112.475 2.90365 112.582 3.14206 112.597 3.42937V9.85714L103.62 1.96226H103.443C103.574 2.78445 103.638 3.52718 103.638 4.19349V12.7822C103.638 13.0695 103.534 13.3079 103.327 13.4974C103.119 13.6869 102.862 13.7817 102.563 13.7817H102.251V13.9773H107.727V13.7817H107.394C107.106 13.7817 106.859 13.6869 106.651 13.4974C106.443 13.3079 106.33 13.0695 106.318 12.7822V6.32079L115.295 14.2279H115.472C115.408 13.8489 115.359 13.4882 115.326 13.1429C115.292 12.7975 115.277 12.3971 115.277 11.9386V3.42631C115.277 3.139 115.384 2.9006 115.601 2.7111C115.815 2.5216 116.068 2.42684 116.352 2.42684H116.686V2.23123H115.219L115.216 2.23428Z" fill="#E4D7C6"/>
<path d="M128.81 2.16398C128.523 2.1976 128.257 2.21289 128.009 2.21289H120.792C120.557 2.21289 120.3 2.1976 120.019 2.16398C119.738 2.13036 119.484 2.08757 119.255 2.03561C119.026 1.98365 118.855 1.94392 118.736 1.91946V5.00956H118.95V4.83229C118.95 4.27295 119.103 3.82671 119.408 3.50272C119.714 3.17568 120.154 3.00757 120.728 2.99229H122.977V12.7363C122.965 13.0237 122.855 13.2682 122.653 13.4699C122.451 13.6716 122.207 13.7725 121.92 13.7725H121.706V13.9681H127.105V13.7725H126.891C126.592 13.7725 126.335 13.6716 126.127 13.4699C125.919 13.2682 125.816 13.0237 125.816 12.7363V2.99229H128.086C128.645 3.00452 129.085 3.17568 129.406 3.50272C129.724 3.82977 129.879 4.27295 129.864 4.83229V5.00956H130.078V1.91946C129.986 1.9592 129.824 2.00199 129.589 2.04784C129.354 2.09369 129.094 2.13342 128.807 2.16398H128.81Z" fill="#E4D7C6"/>
<path d="M145.585 5.55973C145.252 4.80478 144.778 4.15681 144.167 3.62193C143.553 3.08704 142.823 2.68053 141.976 2.39933C141.127 2.11814 140.183 1.97754 139.141 1.97754C138.099 1.97754 137.173 2.11814 136.324 2.39933C135.477 2.68053 134.747 3.08704 134.133 3.62193C133.519 4.15681 133.051 4.80173 132.724 5.55973C132.397 6.31774 132.235 7.1705 132.235 8.12412C132.235 9.07774 132.397 9.9091 132.724 10.6579C133.051 11.4068 133.519 12.0517 134.133 12.5866C134.747 13.1215 135.477 13.528 136.324 13.8092C137.17 14.0904 138.111 14.231 139.141 14.231C140.171 14.231 141.13 14.0904 141.976 13.8092C142.823 13.528 143.553 13.1215 144.167 12.5866C144.781 12.0517 145.252 11.4098 145.585 10.6579C145.918 9.9091 146.083 9.06246 146.083 8.12412C146.083 7.18578 145.918 6.31774 145.585 5.55973ZM142.591 10.9605C142.27 11.7552 141.814 12.3726 141.222 12.8097C140.629 13.2468 139.935 13.4638 139.138 13.4638C138.34 13.4638 137.671 13.2468 137.084 12.8097C136.498 12.3726 136.039 11.7552 135.716 10.9605C135.389 10.1658 135.227 9.21834 135.227 8.12412C135.227 7.0299 135.389 6.061 135.716 5.25714C136.043 4.45635 136.498 3.83588 137.084 3.3988C137.671 2.96173 138.356 2.74472 139.138 2.74472C139.92 2.74472 140.629 2.96478 141.222 3.3988C141.814 3.83588 142.273 4.45635 142.591 5.25714C142.908 6.061 143.07 7.01462 143.07 8.12412C143.07 9.23362 142.911 10.1658 142.591 10.9605Z" fill="#E4D7C6"/>
</svg>
