<svg width="26" height="61" viewBox="0 0 26 61" fill="none" xmlns="http://www.w3.org/2000/svg">
<path d="M24.7542 17.5816C25.1056 17.5816 25.2278 17.9208 25.2431 18.144C25.2584 18.3518 25.1026 18.743 24.7817 18.743H0.398393C0.120337 18.743 -0.0141077 18.3243 0.00117003 18.1409C0.0195034 17.9331 0.181448 17.5816 0.490059 17.5816H24.7542Z" fill="#E4D7C6"/>
<path d="M21.8514 28.3129L3.4295 28.3068C3.13617 28.3068 2.89172 27.995 2.89172 27.723V21.6528C2.89172 21.2096 3.26756 21.0446 3.65256 21.0446H21.6101C22.0409 21.0446 22.3556 21.3074 22.3556 21.7537V27.671C22.3556 27.9797 22.1692 28.2028 21.8545 28.3098L21.8514 28.3129ZM13.9773 27.1331C14.3256 27.1331 14.5914 26.8121 14.5914 26.4882L14.5853 23.5264C14.5853 22.8601 14.0903 22.3558 13.4548 22.2427C12.9323 22.148 12.4037 22.1388 11.8903 22.2733C11.3251 22.423 10.9278 22.8998 10.9278 23.4959V26.5096C10.9278 26.8305 11.1264 27.1331 11.4626 27.1331H13.9803H13.9773ZM7.912 26.7541C8.19006 26.7541 8.41922 26.5187 8.41922 26.2467V23.0924C8.41617 22.747 8.16256 22.5147 7.83867 22.5147H6.47895C6.16117 22.5117 5.89533 22.7409 5.89839 23.071L5.90756 26.2436C5.90756 26.5615 6.18867 26.7632 6.47589 26.7632L7.912 26.7541ZM18.802 26.7541C19.0709 26.7541 19.2787 26.5248 19.2787 26.265V23.0649C19.2756 22.744 19.0434 22.5147 18.7317 22.5147H17.2773C16.9748 22.5147 16.7395 22.7531 16.7395 23.0618L16.7517 26.2803C16.7517 26.5768 17.0084 26.7632 17.2712 26.7632L18.8051 26.7541H18.802Z" fill="#E4D7C6"/>
<path d="M3.26451 15.277C3.03534 15.277 2.94978 15.1303 2.98645 14.953C3.2309 13.7763 3.74423 12.7279 4.45617 11.759C6.43617 9.06623 9.59256 7.83142 12.8987 7.89866C14.6678 7.93534 16.382 8.38464 17.9159 9.24962C20.1098 10.4875 21.6987 12.5506 22.2609 14.9958C22.3006 15.1639 22.1815 15.2709 22.0226 15.2709H3.26451V15.277Z" fill="#E4D7C6"/>
<path d="M15.0528 6.75859L10.0142 6.75248C9.92562 6.48962 9.98367 6.24205 9.96228 5.98836C9.947 5.7958 10.0081 5.67049 10.1945 5.63075C10.4756 5.56962 11.5634 5.40457 11.5603 5.11726C10.4726 4.64045 9.892 3.64098 9.97756 2.47646C10.0692 1.19886 11.0653 0.144371 12.3609 0.0129425C13.3845 -0.0909778 14.3378 0.44085 14.8573 1.25082C15.4195 2.13108 15.4287 3.25586 14.8756 4.12696C14.5701 4.60683 14.1331 4.90942 13.6106 5.16922C13.7664 5.30676 13.9528 5.38929 14.1514 5.43208L15.1017 5.64603C15.1964 5.66743 15.2637 5.74078 15.2637 5.8447V6.57214C15.2606 6.69134 15.2056 6.75859 15.0528 6.75859Z" fill="#E4D7C6"/>
<path d="M24.684 60.8032H0.697839C0.395339 60.8032 0.102005 60.6412 0.102005 60.3937V57.8476C0.102005 57.652 0.312838 57.4136 0.587838 57.4136H24.7267C25.0506 57.4136 25.289 57.6001 25.289 57.8537V60.3111C25.289 60.574 25.069 60.8032 24.684 60.8032Z" fill="#E4D7C6"/>
<path d="M24.5312 31.7881H0.529779C0.0347787 31.785 -0.050777 31.0515 0.193667 30.7978C0.294501 30.6908 0.447279 30.6175 0.676445 30.6175H24.6809C25.0567 30.6205 25.1912 30.969 25.1881 31.2013C25.182 31.5405 24.962 31.7881 24.5342 31.7881H24.5312Z" fill="#E4D7C6"/>
<path d="M14.7381 56.2705H10.3412C10.0234 56.188 9.76062 55.9434 9.76062 55.5828V44.9462C9.8034 44.5978 10.0356 44.3135 10.3931 44.3135L14.6617 44.3044C15.0742 44.3624 15.3217 44.6314 15.3217 45.044L15.3309 55.6317C15.3065 55.9801 15.0987 56.2124 14.7412 56.2735L14.7381 56.2705Z" fill="#E4D7C6"/>
<path d="M14.0415 42.0395C14.0415 42.8678 13.3692 43.5372 12.5442 43.5372C11.7192 43.5372 11.047 42.8648 11.047 42.0395C11.047 41.2143 11.8965 38.1792 12.5442 38.1792C13.192 38.1792 14.0415 41.2112 14.0415 42.0395Z" fill="#E4D7C6"/>
<path d="M4.95117 56.1482C4.48062 56.084 4.09867 55.809 3.76867 55.5094C3.31645 55.0968 2.89173 54.6872 2.47923 54.2349C2.26534 53.9995 2.08812 53.7 2.09117 53.3791C2.09117 52.6608 2.87645 52.1993 3.59145 52.129C4.21478 52.0648 4.79534 52.3949 5.18645 52.887C5.68145 53.5135 6.27117 54.6292 6.06645 55.4269C5.93506 55.9373 5.49506 56.2216 4.95117 56.1482Z" fill="#E4D7C6"/>
<path d="M9.48256 36.0244C8.89589 36.7029 8.12284 37.1797 7.23367 37.2072C6.78756 37.2225 6.40562 36.9046 6.25589 36.4981C5.88923 35.5017 6.98312 34.6276 7.77756 34.3494C8.38867 34.1355 9.05478 34.1569 9.57423 34.5236C9.837 34.707 9.93478 34.9821 9.88284 35.2908C9.83701 35.5751 9.67812 35.7921 9.47645 36.0244H9.48256Z" fill="#E4D7C6"/>
<path d="M5.13756 43.8001C4.93284 44.1454 4.3859 44.6528 3.92451 44.5092C3.66173 44.4266 3.4234 44.2188 3.29812 43.9957C2.90701 43.3018 3.09645 42.5408 3.49673 41.9111C3.93978 41.2173 4.4409 40.4012 5.38812 40.5449C5.75173 40.5999 5.96256 40.9942 5.91367 41.3732C5.79756 42.2321 5.57756 43.0634 5.14062 43.8031L5.13756 43.8001Z" fill="#E4D7C6"/>
<path d="M5.4584 38.7141C5.46451 38.8241 5.40339 39.0381 5.36978 39.142C5.10701 39.8939 4.38895 40.5082 3.60367 40.1598C2.89173 39.845 2.53117 38.8883 2.48534 38.1119C2.45173 37.5434 2.83367 37.0024 3.38978 36.8802C4.30951 36.6785 5.11006 37.2775 5.37284 38.0447C5.45839 38.3014 5.44923 38.4512 5.46145 38.7141H5.4584Z" fill="#E4D7C6"/>
<path d="M21.057 48.1158C20.3542 48.2503 19.8745 47.6482 19.7584 47.1591C19.5109 46.1383 20.2076 44.769 21.112 44.4297C21.5245 44.2769 22.1295 44.4236 22.2578 44.8882C22.5389 45.9243 22.1234 47.911 21.057 48.1127V48.1158Z" fill="#E4D7C6"/>
<path d="M22.6153 52.4285C21.8545 52.887 21.0692 52.3307 20.7606 51.7102C20.452 51.0897 20.5253 50.2278 21.0753 49.8458C21.4603 49.5768 21.8606 49.4943 22.2945 49.6349C22.8934 49.8244 23.2815 50.3195 23.3303 50.9644C23.3731 51.5391 23.1134 52.129 22.6153 52.4315V52.4285Z" fill="#E4D7C6"/>
<path d="M19.5781 43.7573C19.187 43.4883 18.9181 43.1001 18.9151 42.6202C18.912 42.1098 19.2756 41.6972 19.737 41.4924C20.3665 41.2143 21.1334 41.2601 21.4695 41.9814C21.7628 42.608 21.5917 43.3263 21.0326 43.7603C20.614 44.0843 20.0334 44.069 19.5781 43.7603V43.7573Z" fill="#E4D7C6"/>
<path d="M17.2315 36.8038C16.3453 36.9383 15.3859 35.9449 15.444 35.3275C15.4959 34.7529 15.9787 34.3189 16.547 34.273C16.7242 34.2577 16.9106 34.2333 17.0848 34.273C17.6103 34.3892 18.0626 34.7987 18.2092 35.3C18.4231 36.0274 17.9831 36.6907 17.2315 36.8038Z" fill="#E4D7C6"/>
<path d="M21.8576 54.3694C21.5581 55.0662 20.9745 55.5644 20.2106 55.2099C19.9784 55.1029 19.8348 54.9715 19.6576 54.7912C19.1717 54.2899 19.1595 53.5166 19.7401 53.0581C20.3328 52.5874 21.4115 52.563 21.8209 53.2446C22.047 53.6236 22.0226 53.9842 21.8576 54.3694Z" fill="#E4D7C6"/>
<path d="M20.9684 34.1813C20.4001 34.5114 19.7767 34.5787 19.1289 34.5603C18.4231 34.542 17.7631 34.2455 17.2681 33.7534C17.1459 33.6342 17.1153 33.4875 17.1581 33.3377C17.2773 32.9251 19.3123 33.0076 19.7248 33.0321C20.0976 33.0535 21.3748 33.1146 21.3534 33.6678C21.3442 33.894 21.1701 34.0652 20.9714 34.1813H20.9684Z" fill="#E4D7C6"/>
<path d="M4.45923 33.9123C4.37979 34.649 3.85729 35.2664 3.13923 35.407C2.77562 35.4803 2.4059 35.355 2.17062 35.1074C1.92312 34.8507 1.76118 34.4992 1.83757 34.1141C2.04229 33.0657 3.27062 32.7906 4.04368 33.1513C4.34923 33.2919 4.4959 33.5486 4.45923 33.9123Z" fill="#E4D7C6"/>
<path d="M23.4526 55.8609C23.4067 55.9526 23.3181 56.0137 23.2478 56.0902C23.0523 56.3011 22.7865 56.35 22.4901 56.2674C22.0776 56.1513 21.9767 55.5461 22.0287 55.1121C22.0928 54.5894 22.1723 54.0943 22.374 53.6052C22.4992 53.3026 22.8781 52.4743 23.2326 52.5049C23.6573 52.5416 23.6359 53.3882 23.6603 53.6694C23.7092 54.2532 23.7031 55.3505 23.4495 55.864L23.4526 55.8609Z" fill="#E4D7C6"/>
<path d="M22.9759 40.0375C23.1928 40.5969 22.7651 41.2418 22.2976 41.4038C21.8912 41.5444 21.5001 41.4618 21.2128 41.2326C20.4001 40.5846 20.4489 39.3743 21.0631 39.0167C21.3076 38.8761 21.7353 38.8577 21.9401 39.035L22.4381 39.466C22.6276 39.631 22.8781 39.7838 22.9759 40.0375Z" fill="#E4D7C6"/>
<path d="M5.69978 35.2052C5.40645 35.3428 5.06117 35.3611 4.8045 35.1686C4.26978 34.7682 5.05506 33.5028 5.79756 33.1421C6.26506 32.9159 6.87617 32.9526 7.32228 33.191C7.61256 33.3469 7.56367 33.7901 7.35284 34.0193C6.89756 34.5206 6.32006 34.9118 5.70284 35.2022L5.69978 35.2052Z" fill="#E4D7C6"/>
<path d="M3.76256 51.2242C3.15451 51.2579 2.71145 50.2645 2.8734 49.5523C2.9559 49.1886 3.2584 48.8738 3.58534 48.7424C4.05284 48.5529 4.51117 48.6965 4.79229 49.0969C5.0734 49.4973 5.03673 50.0078 4.81673 50.4418C4.59673 50.8758 4.26062 51.1937 3.76256 51.2242Z" fill="#E4D7C6"/>
<path d="M12.8376 35.569C12.3976 35.7493 11.9423 35.4711 11.707 35.1197C11.4565 34.7468 11.3709 34.2424 11.542 33.8115C11.7131 33.3805 12.2387 33.1054 12.6787 33.2277C13.189 33.3713 13.5251 33.8115 13.5678 34.3403C13.6076 34.8171 13.3203 35.3703 12.8376 35.569Z" fill="#E4D7C6"/>
<path d="M23.5564 47.2967C23.5564 47.8071 23.5442 49.317 22.9301 49.4729C22.6887 49.534 22.4473 49.427 22.3189 49.2223C21.8056 48.3939 22.432 46.7434 22.8995 45.9732C22.9453 45.8968 23.0492 45.8448 23.1073 45.8265C23.5351 45.692 23.5564 47.0522 23.5564 47.2967Z" fill="#E4D7C6"/>
<path d="M2.99256 47.1316C2.77868 47.1622 2.47006 47.0521 2.33256 46.8902C1.93229 46.4195 1.92618 45.7409 2.23479 45.2274C2.48229 44.8179 2.94062 44.6498 3.41118 44.8087C3.93368 44.986 4.15368 45.6981 3.9184 46.3339C3.76868 46.7343 3.48451 47.0583 2.99256 47.1316Z" fill="#E4D7C6"/>
<path d="M19.3337 41.2265C18.9915 41.1806 18.7165 41.144 18.6676 40.4563C18.6187 39.7686 18.8723 39.1725 19.3092 38.6743C19.3765 38.5979 19.4528 38.5429 19.5415 38.5398C19.8928 38.5307 20.6201 39.6738 20.3359 40.7772C20.2809 40.9911 20.122 41.1226 19.9326 41.1959C19.8562 41.2265 19.4865 41.2723 19.3337 41.2265Z" fill="#E4D7C6"/>
<path d="M5.5684 48.0975C5.3759 48.3573 5.04284 48.4948 4.74645 48.4001C4.16284 48.2136 3.90923 47.587 4.00395 47.0094C4.06812 46.609 4.24229 46.2483 4.63645 46.0832C4.80451 46.0129 5.1009 45.9854 5.26895 46.1046C5.91062 46.5478 6.04201 47.4678 5.5684 48.1005V48.0975Z" fill="#E4D7C6"/>
<path d="M7.33145 37.8338C7.58201 38.5643 6.57062 40.4471 5.93812 40.1109C5.44006 39.845 5.56534 37.9805 6.47284 37.5679C6.79062 37.4242 7.21228 37.4823 7.33145 37.8338Z" fill="#E4D7C6"/>
<path d="M20.0517 50.3317C19.7095 50.4509 19.3764 50.2859 19.1595 50.0322C18.7012 49.4912 18.854 48.6904 19.462 48.3114C19.7278 48.1464 20.0731 48.2106 20.3512 48.3756C20.5864 48.5131 20.7362 48.776 20.779 49.103C20.8462 49.6196 20.5834 50.1484 20.0517 50.3348V50.3317Z" fill="#E4D7C6"/>
<path d="M23.5198 34.4472C23.4281 34.9118 23.037 35.19 22.5756 35.0769C21.9645 34.9271 21.6406 34.3097 21.7384 33.6984C21.8087 33.2705 22.1478 33.0076 22.5787 32.9923C23.0065 32.9771 23.3303 33.2002 23.4862 33.6128C23.5809 33.8604 23.5748 34.163 23.5198 34.4503V34.4472Z" fill="#E4D7C6"/>
<path d="M3.26451 41.0767C3.35007 41.5505 3.0384 42.5041 2.53423 42.5011C1.70007 42.498 1.59618 39.8755 2.20729 39.7349C2.51895 39.6616 3.16062 40.5113 3.26451 41.0767Z" fill="#E4D7C6"/>
<path d="M23.1287 44.5214C22.8262 44.5795 22.6367 44.6284 22.3434 44.3716C21.9401 44.0904 21.9676 43.9651 21.8973 43.6564C21.6742 42.6722 22.2853 41.7553 22.7131 41.8745C23.1409 41.9937 23.2784 42.5102 23.3151 42.9167C23.3578 43.4088 23.4006 43.8612 23.257 44.3349C23.2295 44.4236 23.1898 44.5092 23.1287 44.5214Z" fill="#E4D7C6"/>
<path d="M11.1203 33.9674C10.5398 34.707 8.94478 33.7656 8.67284 33.4447C8.57506 33.3286 8.67284 33.1452 8.82562 33.0993C9.3634 32.9373 10.7292 32.9129 11.1692 33.3775C11.2059 33.5578 11.2548 33.7962 11.1203 33.9674Z" fill="#E4D7C6"/>
<path d="M5.20478 36.9322C4.73728 36.9505 3.92756 36.4706 3.83284 35.8991C3.8145 35.786 3.88173 35.5598 3.9795 35.5017C4.28812 35.3092 4.63339 35.3672 4.97256 35.4559C5.46756 35.5873 5.81895 36.1161 5.69061 36.6265C5.64173 36.8191 5.41867 36.9199 5.20478 36.9291V36.9322Z" fill="#E4D7C6"/>
<path d="M3.2859 56.1574C3.02617 56.5272 2.40284 56.4172 1.78867 56.0902C1.48923 55.9312 1.54423 55.4941 1.61451 55.0754C1.6634 54.7912 1.95978 54.6261 2.22867 54.7331C2.78173 54.9562 3.30423 55.5216 3.32867 56.0015C3.33173 56.0565 3.31645 56.1116 3.2859 56.1574Z" fill="#E4D7C6"/>
<path d="M19.3642 54.9868C19.737 55.2221 20.3787 55.6011 20.1678 56.0902C20.009 56.4569 19.1167 56.4936 18.5331 55.9068C18.2612 55.6317 18.2795 55.106 18.6278 54.8828C18.8509 54.7392 19.1687 54.8645 19.3642 54.9868Z" fill="#E4D7C6"/>
<path d="M20.1862 52.2268C20.0976 52.4927 19.8928 52.6486 19.6759 52.6669C19.4253 52.6883 19.2328 52.5721 19.0617 52.3521C18.7317 51.9303 18.8417 50.9583 19.3795 50.8452C19.6026 50.7963 19.8409 50.8575 19.9906 51.0592C20.229 51.3771 20.3145 51.8325 20.1862 52.2237V52.2268Z" fill="#E4D7C6"/>
<path d="M14.8298 36.1466C14.5578 36.4431 14.1728 36.4615 13.8673 36.3025C13.5617 36.1436 13.3998 35.8135 13.464 35.4559C13.5434 35.0188 13.9101 34.7254 14.3684 34.8048C14.6403 34.8507 14.839 35.0952 14.9215 35.2939C15.0406 35.5781 15.0284 35.9235 14.8267 36.1466H14.8298Z" fill="#E4D7C6"/>
<path d="M3.09034 48.6996C2.84284 48.883 2.37228 49.3017 2.10645 48.9135C1.79173 48.452 2.16756 47.6482 2.58617 47.4342C2.86423 47.2905 3.30423 47.2875 3.46006 47.5993C3.65867 47.9935 3.41423 48.4581 3.09339 48.6996H3.09034Z" fill="#E4D7C6"/>
<path d="M15.2759 33.4783C15.389 33.8757 14.9581 34.3189 14.4906 34.3189C14.0231 34.3189 13.6412 33.8482 13.5892 33.4386C13.5587 33.2002 13.6992 33.0565 13.9223 33.0015C14.3928 32.8854 15.1262 32.9496 15.2759 33.4814V33.4783Z" fill="#E4D7C6"/>
<path d="M2.94368 51.2609C2.92229 51.6002 2.76645 51.7989 2.49451 51.8753C2.23173 51.9456 1.98423 51.8203 1.84368 51.5635C1.51673 50.9583 1.78868 49.9772 2.24395 50.0567C2.69312 50.1361 2.96201 50.9767 2.94673 51.264L2.94368 51.2609Z" fill="#E4D7C6"/>
<path d="M18.7653 38.4421C18.2765 38.8302 17.0451 37.953 17.262 37.2959C17.3415 37.0483 17.6653 36.9841 17.9251 37.0483C18.6706 37.2347 19.0251 38.2373 18.7684 38.4421H18.7653Z" fill="#E4D7C6"/>
<path d="M11.3098 35.9877C11.212 36.2689 10.9798 36.4003 10.7139 36.3484C10.3656 36.2781 10.0845 35.951 10.1028 35.5904C10.1212 35.2847 10.2251 34.9791 10.4176 34.759C10.552 34.6062 10.772 34.6306 10.9126 34.759C11.2426 35.0555 11.4595 35.5506 11.3067 35.9877H11.3098Z" fill="#E4D7C6"/>
<path d="M2.18284 37.2408C2.05756 37.305 1.82839 37.2898 1.74895 37.1706C1.60228 36.9505 1.68173 36.6785 1.79173 36.4645C2.03923 35.9846 2.39978 35.6117 2.97423 35.789C3.11478 35.8318 3.19728 35.9602 3.22173 36.0519C3.35311 36.5226 2.58006 37.0391 2.18284 37.2408Z" fill="#E4D7C6"/>
<path d="M5.71812 52.2818C5.58673 52.4407 5.3759 52.5385 5.21701 52.4071C4.63646 51.9181 5.27812 50.4112 5.59896 50.3256C5.84951 50.2584 5.9534 51.1173 5.97784 51.3007C6.02368 51.6369 5.94423 52.0098 5.72118 52.2818H5.71812Z" fill="#E4D7C6"/>
<path d="M2.79701 44.3135C2.73284 44.5122 2.53423 44.6192 2.38451 44.6192C1.66951 44.6284 1.67256 43.2132 2.04534 42.9442C2.36617 42.7119 3.06284 43.47 2.79701 44.3135Z" fill="#E4D7C6"/>
<path d="M19.3062 45.7195C18.8784 45.5575 18.8845 44.014 19.2878 43.9773C19.4864 43.959 19.7553 44.1424 19.8623 44.3288C20.1587 44.8423 19.8623 45.4872 19.3062 45.7226V45.7195Z" fill="#E4D7C6"/>
<path d="M4.71284 45.5056C4.56006 45.4506 4.45006 45.3283 4.44701 45.2305C4.4409 44.8637 4.88701 44.5275 5.17423 44.5214C5.3759 44.5153 5.52562 44.5978 5.61117 44.7506C5.7059 44.9187 5.66617 45.1143 5.52256 45.2641C5.32395 45.4719 5.01229 45.6156 4.7159 45.5056H4.71284Z" fill="#E4D7C6"/>
<path d="M23.0278 36.6265C22.7009 36.7396 22.4442 36.3911 22.4167 36.0977C22.4015 35.9266 22.4167 35.7554 22.5298 35.6515C22.652 35.5445 22.8384 35.52 23.0095 35.5965C23.202 35.682 23.312 35.8991 23.312 36.0886C23.312 36.2781 23.2601 36.544 23.0248 36.6234L23.0278 36.6265Z" fill="#E4D7C6"/>
<path d="M16.3148 33.8023C16.0826 33.9154 15.832 33.8848 15.6762 33.7106C15.5356 33.5517 15.4623 33.2919 15.6487 33.1054C15.8351 32.919 16.1681 32.9832 16.3667 33.136C16.4859 33.2277 16.5531 33.3316 16.547 33.46C16.5409 33.6067 16.4767 33.7259 16.3148 33.8054V33.8023Z" fill="#E4D7C6"/>
<path d="M23.0676 39.2306C22.6153 39.3651 22.2823 39.0503 22.1265 38.6896C21.9523 38.2831 21.9859 37.9133 22.2303 37.5526C22.4351 37.2531 22.6398 36.9505 23.0126 36.8282C23.0828 36.8068 23.1806 36.816 23.2387 36.8588C23.2815 36.8894 23.3395 36.9749 23.3456 37.0636C23.3701 37.3845 23.4495 39.1206 23.0676 39.2337V39.2306Z" fill="#E4D7C6"/>
<path d="M21.3473 38.0875C20.0976 38.6866 18.7287 37.5251 18.6309 36.4737C18.5912 36.0427 18.6828 35.627 19.0006 35.3183C19.4681 34.8629 20.177 34.7437 20.8126 34.921C21.329 35.0646 21.6865 35.4559 21.9492 35.9113C22.3892 36.6785 22.1967 37.681 21.3442 38.0875H21.3473Z" fill="#E4D7C6"/>
</svg>
