<svg width="193" height="144" viewBox="0 0 193 144" fill="none" xmlns="http://www.w3.org/2000/svg">
<path d="M166.59 132.69C166.2 134.88 164.67 136.07 162.86 135.3H149.42L9.87 135.24C8.71 135.24 7.64 134.74 7.65 133.59L7.74 115.71C7.75 113.09 8.87 110.62 9.43 108.12L13.66 89.13L20.41 59.5L25.58 37.15L30.74 14.08C31.04 12.73 32.02 11.75 33.7 11.75H181.37C182.82 11.75 183.54 12.62 183.55 13.87L183.68 30.3C183.7 32.44 183.98 34.61 183.61 36.75L179.81 58.41L173.91 92.11L166.6 132.69H166.59ZM165.49 75.69L172.07 43.27C172.79 39.75 173.62 36.45 174.09 32.87L177.6 16.63L35.23 16.58L18.76 88.06L12.93 114.63L126.67 114.66H157.56L165.5 75.69H165.49ZM161.65 130.34C161.99 129.24 162.41 128.99 162.51 128.51L168.47 98.27L174.82 62.86L179.24 38.06C179.5 36.62 179.42 35.15 179.01 33.88C178.76 35.47 178.17 36.62 177.87 38.07L169.76 77.69L163.33 109.65L161.85 118.44C161.52 120.41 160.81 129.42 161.65 130.34ZM28.23 120.36C28.23 119.57 27.56 119.43 27.07 119.43L12.75 119.48C12.39 120.79 12.52 129.81 12.75 130.1C12.98 130.39 13.46 130.62 14.06 130.61L28.3 130.45L28.23 120.36ZM42.77 130.49V119.49H30.61C30.36 123.22 30.4 126.62 30.6 130.48L42.77 130.5V130.49ZM56.95 119.38L44.73 119.4L44.75 130.57L56.97 130.55L56.95 119.38ZM69.87 119.39L58.98 119.42L59.01 130.56L69.9 130.53L69.87 119.39ZM71.93 119.42V130.56H83.37V119.42H71.93ZM85.52 119.39V130.55L108.53 130.57V119.41L85.52 119.39ZM121.81 119.42H110.51V130.54H121.81V119.42ZM123.84 119.41V130.53L136.06 130.54V119.42L123.84 119.41ZM148.56 119.4L138 119.42L138.02 130.58L148.58 130.56L148.56 119.4ZM157.01 120.85C157.04 118.42 152.33 119.68 150.62 119.72L150.81 130.33C153 130.67 154.67 130.7 156.88 130.4L157.01 120.86V120.85Z" fill="#3E1E11"/>
<path d="M34.01 105C31.56 105.24 29.42 105.74 26.96 105.31C26.76 104.02 27.8 103.1 28.55 101.99L35.1 92.3C35.54 91.65 38.36 85.93 39.95 88.21C41.54 90.49 40.69 95.35 43.42 93.73L65.55 80.62L81.56 71.19L87.76 67.54L129.54 42.85L144.88 34.05C143.4 32.98 142.12 32.63 141.21 31.42C140.86 30.95 140.22 29.22 141.23 28.99L161.91 24.32C162.34 24.22 162.88 24.39 163.13 24.48C163.41 24.58 163.49 25.15 163.18 25.63L152.42 42.29C152.12 42.75 151.62 42.93 151.35 42.98C149.87 43.23 148.2 39.78 147.47 37.87L133.87 45.87L103.82 63.54L69.8 83.65L58.52 90.31L49.03 95.92L44.84 98.61C45.79 99.68 50.1 99.78 50.09 102.74C50.09 103.29 49.25 103.56 48.71 103.61L39.73 104.46L33.99 105.02L34.01 105Z" fill="#3E1E11"/>
</svg>
