<svg width="241" height="170" viewBox="0 0 241 170" fill="none" xmlns="http://www.w3.org/2000/svg">
<g clip-path="url(#clip0_16_180)">
<path d="M75.35 66.18C76.06 64.24 83.31 61.75 85.14 60.83C83.82 59.52 82.7 60.43 81.57 60.36C78.25 60.16 75.12 60.41 71.81 60.39C67.8 60.36 63.92 60.18 59.99 60.46C56.47 63.36 54.22 66.93 52.19 70.83L46.09 82.62L40.54 93.38L36.36 101.59L26.01 121.01C25.42 122.11 24.2 122.6 23.29 122.68C22.51 122.75 20.55 122.42 20.44 121.24L20.23 94.22C20.21 92.22 20.57 90.29 21.19 88.54C21.39 87.97 22.01 87.92 22.28 87.78C24.41 86.64 23.44 92.2 24.59 93.21C30.03 87.57 28.85 87.02 29.01 80.15C29.04 78.73 28.93 74.41 30.81 74.08C32.3 73.82 32.3 77.05 32.85 77.97C34.39 77.53 36.8 75.38 36.75 73.08L36.58 64.4C36.54 62.14 38.87 60.71 38.48 60.66C38.72 60.69 38.94 61.16 39.27 61.26C41.26 61.89 39.74 64.31 41.2 64.39C45.51 60.99 43.09 50.8 45.64 49.98C46.13 49.82 46.96 49.8 47.28 50.4C47.63 51.06 47.64 51.67 48.52 52.34C49.42 50.95 50.7 50.01 51.15 48.51C51.64 46.87 49.67 42.4 52.18 39.36C52.57 38.89 53.1 38.72 53.6 38.77C54.04 38.81 54.85 39.23 54.94 40C55.53 44.71 55.51 49.29 55.53 54.12C55.53 54.8 55.46 55.81 56.19 56.22C57.89 55.68 60.13 55.97 60.78 55.41C61.72 54.59 60.4 49.47 63.4 49.49C65.02 49.5 63.86 54.51 64.6 55.83L95.57 55.71C97.71 55.71 99.79 54.59 101.66 53.79L108.82 50.7C110.77 49.86 112.53 50.03 114.51 50.67L145.24 60.56C146.47 60.96 147.61 61.19 147.66 62.74C147.74 65.42 147.46 68.03 147.8 70.9L207.71 70.99C211.75 70.99 208.81 77.24 208.33 78.75L193.47 124.97C192.99 126.47 192.09 127.59 190.44 127.59H162.29C160.53 127.6 159.46 128.16 158.09 129.03L139.31 141C138.31 141.63 137.08 142.41 135.66 142.41L38.84 142.43C37.71 142.43 37.17 141.91 37.13 141C37.07 139.69 37.57 138.42 38.01 137.07L45.95 112.67C46.64 110.54 47.7 109.01 49.5 107.72C52.01 105.91 63.25 98 63.98 96.09L73.04 72.51L75.35 66.21V66.18ZM48.27 68.38C50.41 65.87 50.99 63.5 51.81 60.97L51.68 54.6C50.31 55.34 48.07 58.62 48.04 60.39C47.99 63.17 47.75 65.76 48.26 68.39L48.27 68.38ZM159.05 122.88C160.17 122.18 161.73 122.56 162.83 122.56L188.81 122.5C190.09 119.8 190.79 117.32 191.61 114.67L197.94 94.98L204.2 75.77L144.44 75.75C143.36 75.75 142.93 75.04 142.91 74.17L142.71 65.16L133.03 62.04C129.02 60.75 125.28 59.29 121.17 58.22C118.09 57.41 115.12 55.37 111.88 55.38C109.13 55.38 106.52 57.52 103.93 58.43C99.66 59.93 95.81 61.73 91.66 63.46L80.07 68.3C78.83 68.82 78.69 70.9 78.26 72.06L69.49 95.76C68.49 98.47 67.14 100.64 64.82 102.34L52.33 111.47C51.41 112.18 50.8 113.08 50.53 114.26L43.3 137.36L133.46 137.38C135.66 137.38 136.99 136.65 138.65 135.61L159.04 122.88H159.05ZM85.9 60.33C85.9 60.18 85.78 60.06 85.63 60.06C85.48 60.06 85.36 60.18 85.36 60.33C85.36 60.48 85.48 60.6 85.63 60.6C85.78 60.6 85.9 60.48 85.9 60.33ZM44.19 67.44C42.97 68.94 41.43 70.25 40.76 71.92C40.56 75.31 40.29 78.37 40.88 82.09C44.53 79.22 45.05 71.43 44.19 67.44ZM32.92 98.3C37.28 91.23 37.38 88.4 36.72 79.85C31.67 86.36 32.78 86.23 32.74 92.55C32.73 94.49 32.03 96.1 32.92 98.31V98.3ZM24.71 113.24C26.98 110.36 27.66 107.52 29.09 104.68L28.96 94.97C27.15 95.41 27.12 96.72 26.48 97.66C25.11 99.66 24.28 101.93 24.51 104.47C24.77 107.47 24.18 110.17 24.72 113.23L24.71 113.24Z" fill="#3E1E11"/>
<path d="M157.8 65.4599C155.83 65.4599 155.2 64.7699 155.2 63.3099C155.2 61.8499 155.86 60.7099 157.43 60.6499L161.2 60.5099V35.0399C159.4 33.9499 157.64 37.7499 155.14 36.4499C154.18 33.0299 158.39 31.0099 161.42 28.8599L184.2 12.7299C186.91 10.8099 187.9 10.8099 191.04 12.4399L201.08 17.6499L222.76 28.9199C224.88 30.0199 227.16 30.7699 228.85 32.3999C229.59 33.1099 229.13 34.4299 228.54 34.9799C227.83 35.6399 227.03 35.9899 225.2 35.5599L225.08 60.5499L230.03 60.6699C231.13 60.6999 232.61 61.2299 232.92 62.3499C233.47 64.3899 231.77 65.5099 229.85 65.5099L157.78 65.4499L157.8 65.4599ZM198.39 38.7499L212.77 38.8299L212.89 60.5599H220.48L220.56 35.6899C220.56 34.2499 220.25 33.5799 219.01 32.9399L205.82 26.0899L187.39 16.6299L182.86 19.8799L165.65 31.7899L165.74 60.5999H196.96L196.98 39.9999C196.98 39.2499 197.48 38.7399 198.4 38.7399L198.39 38.7499ZM208.91 42.6599H200.74V60.6399H208.91V42.6599Z" fill="#3E1E11"/>
<path d="M119.72 155.38C122.04 159.53 110.26 158.21 109.03 158.12C108.1 158.05 107.67 156.81 107.62 156.22C107.4 153.38 113.69 154.23 117.18 154.25C117.99 154.25 119.22 154.5 119.71 155.38H119.72Z" fill="#3E1E11"/>
<path d="M82.54 155.76C83.58 158.99 76.63 158.17 75.07 158.27C73.76 158.35 72.57 158.5 71.48 157.9C70.56 157.4 70.1 156.74 70.26 155.69C70.35 155.1 70.94 154.28 72.01 154.23C75.03 154.08 78 154.05 81.02 154.41C81.87 154.51 82.39 155.28 82.54 155.77V155.76Z" fill="#3E1E11"/>
<path d="M43.38 157.75C42.1 158.51 35.05 158.61 32.72 157.55C32 157.22 32.16 156.04 32.32 155.55C32.51 154.98 33.32 154.31 34.13 154.27C37.03 154.12 39.84 154.07 42.73 154.3C43.66 154.37 44.35 155.09 44.47 155.74C44.62 156.56 44.22 157.24 43.38 157.74V157.75Z" fill="#3E1E11"/>
<path d="M25.42 155.78C26.03 158.82 20.42 158.32 18.74 158.28L15.56 158.21C14.42 158.19 13.63 157.51 13.45 156.66C13.24 155.66 14.05 154.41 15.25 154.28C18.12 153.98 20.93 154.09 23.8 154.28C24.62 154.34 25.31 155.21 25.42 155.76V155.78Z" fill="#3E1E11"/>
<path d="M156.71 155.79C157.69 159.27 148.01 158.37 146.75 158.16C145.49 157.95 144.77 157.35 144.75 156.2C144.73 155.19 145.42 154.24 146.75 154.21C149.5 154.15 152.19 154.12 154.93 154.28C155.86 154.34 156.54 155.2 156.71 155.78V155.79Z" fill="#3E1E11"/>
<path d="M61.69 158.08C59.43 158.27 51.11 159.12 51.29 156.21C51.47 153.3 57.15 154.23 60.95 154.15C62.12 154.13 63.16 154.87 63.34 155.81C63.5 156.65 62.8 157.98 61.7 158.08H61.69Z" fill="#3E1E11"/>
<path d="M137.96 156.2C138.04 159 132.34 158.25 129.2 158.24C128.07 158.24 126.45 157.73 126.22 156.45C125.99 155.17 127.54 154.14 128.72 154.16C132.06 154.21 137.89 153.47 137.96 156.2Z" fill="#3E1E11"/>
<path d="M100.95 155.73C101.79 159.24 93.75 158.24 91.27 158.11C90.13 158.05 89.4 157.1 89.34 156.23C89.29 155.47 89.91 154.35 91.01 154.28C93.73 154.12 96.4 154.21 99.15 154.3C100.1 154.33 100.81 155.17 100.95 155.73Z" fill="#3E1E11"/>
<path d="M175.45 155.81C175.69 157.8 173.56 158.26 172.1 158.23C170.1 158.2 164 159.02 163.97 156.2C163.97 155.45 164.55 154.57 165.57 154.41C166.91 154.21 175.17 153.39 175.46 155.8L175.45 155.81Z" fill="#3E1E11"/>
<path d="M192.98 155.77C193.83 158.84 188.15 158.21 186.08 158.31C184.48 158.39 182.48 158.24 181.49 156.86C180.73 155.79 182.15 154.45 183.27 154.34C185.94 154.07 188.53 154.1 191.2 154.31C192.12 154.38 192.84 155.21 193 155.77H192.98Z" fill="#3E1E11"/>
<path d="M214.35 120.95C214.14 122.94 212.84 132.01 210.3 131.65C207.49 131.25 210.19 123.2 210.91 121.06C211.2 120.21 211.85 119.68 212.55 119.62C213.15 119.56 214.46 120.01 214.36 120.96L214.35 120.95Z" fill="#3E1E11"/>
<path d="M206.48 158.08C204.51 158.15 198.81 159.03 198.67 156.45C198.5 153.14 205.2 153.74 207.17 154.02C208.23 154.17 208.49 155.44 208.43 156.07C208.34 157.06 207.73 157.63 206.48 158.07V158.08Z" fill="#3E1E11"/>
<path d="M210.51 138.59C210.48 140.86 209.28 149.26 206.11 148.19C204.61 147.68 207.04 140.05 207.54 138.25C207.76 137.45 208.58 136.86 209.1 136.9C209.9 136.97 210.52 137.58 210.51 138.58V138.59Z" fill="#3E1E11"/>
<path d="M213.9 114.14C212.29 113.53 214.14 107.8 214.57 105.68C214.83 104.39 215.49 103.68 216.71 102.92C219.46 104.07 217.31 109.94 216.39 112.68C216.06 113.65 214.98 114.55 213.91 114.14H213.9Z" fill="#3E1E11"/>
<path d="M85.11 38.42C86.71 38.42 87.51 39.2 87.41 40.28C87.32 41.28 86.72 42.17 85.38 42.17H78.84C77.42 42.17 76.72 41.5 76.66 40.12C76.62 39.3 77.59 38.45 78.86 38.45L85.12 38.43L85.11 38.42Z" fill="#3E1E11"/>
<path d="M221.8 89.33C221.58 91.26 220.41 97.96 218.3 98.03C215.62 98.11 217.99 91.16 218.65 88.63C218.94 87.51 219.72 87.1 220.54 87.15C221.67 87.22 221.94 88.11 221.8 89.33Z" fill="#3E1E11"/>
<path d="M101.8 42.11C98.8901 41.82 92.2201 43.37 92.7101 40.35C93.2001 37.33 99.3601 38.51 101.97 38.62C103.14 39.58 103.05 40.98 101.8 42.11Z" fill="#3E1E11"/>
<path d="M150.19 39.3699C150.78 40.1299 150.04 42.1699 148.76 42.1199C144.75 41.9799 139.75 43.2399 140.56 39.9899C140.7 39.4299 141.37 38.5699 142.25 38.4999C144.58 38.3099 149.1 37.9899 150.19 39.3699Z" fill="#3E1E11"/>
<path d="M110.33 38.57C112.35 38.32 119.2 37.57 118.64 40.26C118.51 40.85 118.32 41.94 117.32 42.04C114.6 42.31 108.89 42.89 108.75 40.29C108.71 39.5 109.24 38.7 110.33 38.57Z" fill="#3E1E11"/>
<path d="M134.5 40.2899C134.64 43.2299 127.98 41.9299 125.47 41.9999C125 41.3799 124.72 40.5399 124.86 39.6899C125.15 37.8899 130.4 38.3799 132.51 38.4399C133.81 38.4799 134.45 39.2699 134.5 40.2899Z" fill="#3E1E11"/>
<path d="M223.96 73.05C226.42 73.9 223.89 84.85 221.25 83.44C219.42 82.48 221.44 76.41 222.02 74.68C222.49 73.89 223.01 73.16 223.96 73.05Z" fill="#3E1E11"/>
<path d="M19.64 136.22C19.3 136.83 18.49 137.02 18.07 137.02C14.43 137.04 18.42 130.41 19.65 128.71C20.19 127.97 21 127.82 21.69 128.05C24.08 128.86 20.51 134.66 19.64 136.21V136.22Z" fill="#3E1E11"/>
<path d="M71.17 40.29C71.28 42.9 65.84 42.3 62.62 42.03C61.48 41.93 61.45 40.62 61.65 39.81C61.82 39.11 62.56 38.47 63.68 38.45C68.53 38.37 71.06 37.68 71.17 40.3V40.29Z" fill="#3E1E11"/>
<path d="M16.61 143.07C16.67 147.3 13.65 150.59 12.39 150C10.15 148.94 13.2 143.78 14.32 142.32C14.71 141.81 15.27 141.72 15.73 141.71C16.25 141.69 16.6 142.36 16.61 143.06V143.07Z" fill="#3E1E11"/>
<path d="M186.54 53.43C182.33 53.8001 178.37 53.46 174.18 53.55C173.14 53.57 172.65 52.9701 172.65 51.9501L172.69 37.84C172.69 37.14 173.17 36.6301 173.8 36.6301L186.6 36.55L186.69 49.5601C186.69 50.7501 187.03 51.86 186.54 53.42V53.43ZM183.13 49.7401L182.98 40.3101C180.59 40.1301 178.53 39.91 176.36 40.2701V49.8C178.69 50 180.59 50.0101 183.13 49.7401Z" fill="#3E1E11"/>
</g>
<defs>
<clipPath id="clip0_16_180">
<rect width="240.95" height="169.66" fill="white"/>
</clipPath>
</defs>
</svg>
