<svg width="194" height="194" viewBox="0 0 194 194" fill="none" xmlns="http://www.w3.org/2000/svg">
<path d="M159.25 81.36C159.98 82.0299 160.25 82.9799 160.32 83.7799C160.39 84.5099 158.2 87.84 155.53 87.8499L145.68 87.8799L145.82 121.21L156.55 121.62C157.84 121.67 158.66 122.95 158.7 123.91C158.74 124.87 157.91 126.18 156.52 126.18H100.84C98.32 126.18 98.13 122.94 98.41 121.6C99.3 120.66 104.41 122.1 104.41 120.4V100.38C104.42 99.8699 104.82 99.18 105.39 99.18L126.03 99.14L126.2 121.19L139.28 121.31C140.21 121.31 140.77 120.75 140.77 119.84L140.73 86.15L123.15 72.0299L119.23 68.82L105.56 57.61C104.44 56.69 103.68 56.8599 102.6 57.7299L69.71 84.3C68.48 85.29 67.11 86.1699 66.25 87.4199L65.82 99.25C66.64 100.86 62.02 99.8699 61.56 99.59L61.78 87.7099C57.76 87.4399 53.99 87.8499 50.11 87.0299C48.86 85.3299 46.98 84.09 48.82 81.9C50.09 80.39 51.56 79.3199 53.06 78.0899L68.82 65.1999L89.56 48.47L102.01 38.2099C105.03 35.7199 107.67 40.35 110.59 41.63C113.75 38.33 116.73 35.3099 119.94 32.3499C121.95 30.4899 124.43 30.6199 126.44 32.4599C128.45 34.2999 130.43 36.01 132.51 37.73C134.34 39.24 135.74 40.94 138.07 42.08L138.15 35.68C138.15 34.9 139.07 34.64 139.83 34.63L154.94 34.56C156.07 34.56 156.74 35.36 156.74 36.45V57.79L172.99 71.48C175.09 73.25 177.13 74.84 179.02 76.7799C180.12 77.91 180.11 79.4 179.03 80.51C176.2 83.43 173.98 82.11 169.64 82.69L169.57 113.56C171.82 114.36 178.49 113.17 179.95 114.47C180.92 115.33 180.97 117.73 179.62 118.41C178.18 119.14 170.57 118.9 167.96 118.89L149.17 118.84C146.24 118.84 147.6 115.42 146.85 113.89C147.78 114.06 148.39 113.85 149.13 113.84L165.04 113.71L164.97 83.55C164.97 80.78 164.25 78.0599 166.46 78.0199L171.25 77.94C174.22 78.15 167.16 73.0499 166.53 72.5199L150.59 59.18L143.68 53.61L136.04 47.18L123.2 36.15L114.07 44.5999C116.13 46.9799 118.55 48.5199 120.94 50.4199L134.77 61.4599L146.75 71.19C150.99 74.64 155.25 77.71 159.25 81.37V81.36ZM143.7 47.16C146.66 49.44 148.96 52.05 152.23 54.06L152.2 39.15L142.68 39.22C142.64 41.9 141.91 45.78 143.7 47.16ZM104.07 50.5499C105.84 50.9299 107.12 52.57 108.48 53.66L128.65 69.79L144.35 82.2799C146.09 83.66 147.9 82.8199 151.02 82.7699C151.64 82.7699 152.59 83.54 152.85 82.61C150.86 80.52 148.78 79.24 146.73 77.58L121.04 56.79L105 43.9C104.23 43.28 103.33 43.4299 102.65 44.1399C100.91 45.9299 98.95 47.26 97.04 48.82L87.45 56.59L73.68 67.72L56.18 82.04C58.31 82.43 60.56 82.7399 62.93 82.82L71.97 75.82L90.19 61.07L100.45 52.82C101.44 52.0299 102.64 50.24 104.08 50.5499H104.07ZM121.74 119.54L121.61 104.07C117.28 103.71 113.01 103.8 108.92 103.99V121.11C113 121.41 116.78 121.18 120.88 121.23C121.49 121.23 121.74 120.26 121.73 119.53L121.74 119.54Z" fill="#3E1E11"/>
<path d="M159.74 181.19L98.7 181.24L88.81 181.22L18.92 181.15C18.58 179.69 19.16 178.48 19.67 177.17L26.04 160.78L32.32 144.93C32.8 143.72 33.25 142.6 34.13 141.7C35.68 143.55 36.68 145.08 35.88 147.15L29.68 163.25C34.85 163.29 41.09 160.66 46.73 160.06C47.6 159.97 48.01 161.99 47.71 162.61C47.36 163.34 46.38 163.47 45.58 163.61C40.33 164.51 35.49 166 30.35 167.31C29.36 167.56 28.14 167.53 27.62 168.6C26.37 171.18 25.39 173.62 24.32 176.66L65.49 176.6L59.22 168.94L48.07 155.24C46.07 152.78 44.12 150.56 42.39 147.9C33.96 134.95 36.02 116.83 49.04 107.6C60.79 99.26 77.84 100.1 87.71 110.17C96.26 118.89 98.49 130.75 94.41 142.24C92.98 145.32 91.51 148.09 89.51 150.85L68.85 176.53L102.58 176.74C103.9 173.26 104.17 169.65 104.79 165.88C105.03 164.6 105.48 163.47 105.15 162.15C100.72 161.31 96.52 161.28 92.17 160.67L89.45 160.29C88.59 160.17 88.2 159.65 88.11 159.05C87.8 157.01 91.99 157.06 93.76 157.31L104.63 158.88C105.02 158.94 105.91 158.84 106.08 158.53L108.38 146.67C108.72 144.91 109.2 143.33 109.38 141.05L99.16 140.8C100.35 139.33 99.91 136.59 103.53 136.59L146.86 136.69C148.15 139.2 148.71 141.8 149.61 144.51L156.54 165.23L160.62 177.33C160.99 178.42 161.21 179.57 160.98 180.58C160.9 180.94 160.23 181.17 159.74 181.17V181.19ZM90.79 131.17C90.79 117.94 80.06 107.21 66.83 107.21C53.6 107.21 42.87 117.94 42.87 131.17C42.87 144.4 53.6 155.13 66.83 155.13C80.06 155.13 90.79 144.4 90.79 131.17ZM148.79 156.88L144.48 143.43C144.21 142.59 143.94 141.86 143.33 140.96L113.53 140.92C112.62 141.57 112.45 142.48 112.27 143.47L109.41 159.7C115.2 161.53 120.43 163.33 125.62 165.94C133.98 162.85 140.04 159.51 148.77 156.88H148.79ZM135.69 176.72L155.17 176.67L150.56 162.33C150.15 161.06 149.38 160.24 147.87 160.63C141.13 163.02 136.35 165.06 129.21 168.25C133.87 171.94 132.8 172.62 135.69 176.72ZM130.8 176.61C129.71 173.28 127.47 171.74 125.27 169.98C120.17 166.86 114.9 164.65 108.74 163.37L106.6 176.71L130.8 176.61Z" fill="#3E1E11"/>
<path d="M66.8 61.82C65.44 63.09 64.29 63.97 62.84 65.07C61.67 58.5 64.68 50.23 59.58 45.43L59.38 67.25C58.23 68.43 57.15 69.73 55.38 70.49L55.27 39.6H23.44V119.84L34.62 120.16C35.03 121.44 34.68 123.2 33.89 124.43C31.56 125.08 29.11 124.84 26.6 124.83L15.22 124.76C14.5 124.76 13.41 124.82 12.99 124.22C12.34 123.31 12.34 121.41 13.23 120.62C14.33 119.64 17.58 120.61 19.02 119.49V37C19.02 35.6 19.93 34.82 21.17 34.81L45.44 34.67L45.51 14.5C45.51 13.87 46.1 13.5 46.67 13.51L82.68 13.56C83.21 13.56 83.76 14.24 84.02 14.62L91.48 25.54C92.18 26.57 92.79 27.58 92.8 28.89C92.82 33.67 93 38.31 92.72 43.01C91.88 44.41 90.1 45.01 88.83 45.8C89.06 46.89 88.1 46.78 88.69 46.07C87.43 39.01 90.38 28.39 85.1 23.82L84.9 50.4C83.77 51.59 82.3 52.05 81.24 52.84C80.79 52.1 80.73 51.49 80.73 50.62V18.01L51.53 17.97C50.86 17.97 50.35 17.91 49.79 18.49V34.73L59.67 34.87C65.77 49.82 67.21 43.57 66.82 61.83L66.8 61.82Z" fill="#3E1E11"/>
<path d="M116.78 73.77L116.84 90.55L91.6 90.64L91.54 73.86L116.78 73.77ZM101.07 83.53L100.73 79.33C99.43 78.98 97.98 79.14 96.59 79.36C96.44 81.49 96.22 83.42 96.66 85.47C98.15 85.5 99.13 85.61 100.31 85.38C101.14 85.22 101.14 84.26 101.08 83.54L101.07 83.53ZM112.1 79.17H104.7V85.54H112.1V79.17Z" fill="#3E1E11"/>
<path d="M35.74 80.29L29.83 80.51C28.99 80.49 29.18 73.14 29.6 72.38C31.59 72.19 33.51 72.21 35.63 72.35C35.94 74.89 35.78 77.08 35.73 80.28L35.74 80.29Z" fill="#3E1E11"/>
<path d="M42.23 80.2199C41.6 80.2899 41.73 79.7399 42.29 79.3299V73.7499C42.31 71.2299 45.57 72.2999 48.06 72.1699C48.29 74.8299 48.19 77.2899 47.77 79.8799C46.08 80.6099 44.3 80.2899 42.23 80.2099V80.2199Z" fill="#3E1E11"/>
<path d="M48.16 51.5801C48.16 53.6901 44.32 52.3101 42.71 52.8501C42.52 52.5301 42.2 52.2501 42.2 51.9401L42.23 46.8401C42.24 44.4501 45.25 45.7501 48.06 45.5401C48.35 47.7001 48.16 49.4901 48.17 51.5801H48.16Z" fill="#3E1E11"/>
<path d="M35.76 51.6C35.73 53.92 31.48 52.58 29.43 52.7C29.2 50.22 29.18 48.14 29.43 45.64C31.56 45.52 33.51 45.65 35.64 45.77C35.92 47.77 35.78 49.55 35.76 51.6Z" fill="#3E1E11"/>
<path d="M35.72 65.1C35.61 67 31.19 66.04 29.48 66.01C29.23 63.69 29.21 61.56 29.42 59.02C31.44 58.68 33.44 58.58 35.53 58.87C35.92 60.94 35.85 62.92 35.73 65.1H35.72Z" fill="#3E1E11"/>
<path d="M48.22 65.9801C47.15 66.1701 42.44 66.5701 42.34 65.6301C42.1 63.3301 42.12 61.1301 42.44 58.7701C44.43 58.5101 46.15 58.6101 48.13 58.7301L48.22 65.9801Z" fill="#3E1E11"/>
<path d="M73.22 42.3C71.44 42.64 70.06 42.37 68.48 42.42C66.71 42.47 67.14 38.28 67.29 36.41C67.45 34.42 71.3 35.46 73.03 35.57C73.28 37.72 73.24 39.75 73.23 42.31L73.22 42.3Z" fill="#3E1E11"/>
<path d="M61.04 29.57C59.14 30.07 57.39 29.92 55.4 29.65C55.1 27.49 55.29 25.53 55.24 23.2C56.97 22.59 58.76 22.72 60.82 22.9C61.28 25.05 60.94 27.01 61.04 29.57Z" fill="#3E1E11"/>
<path d="M73.13 29.7299C71.11 30.0499 69.37 29.9599 67.47 29.6199C67.11 27.2999 66.95 25.0799 67.68 22.8199C69.62 22.8899 71.18 22.7399 73 22.9899C73.27 25.1899 73.28 27.0499 73.12 29.7299H73.13Z" fill="#3E1E11"/>
<path d="M64.85 147.46C59.44 142.07 53.9 137.19 48.71 131.3C48.52 130.86 49.33 130.33 49.76 130.05L54.99 126.59C55.69 126.13 56.15 125.75 56.83 126.44L63.96 133.66L70.33 126.21L77.08 117.78L78.37 116.55C80.65 120.49 86.26 120.9 83.53 124.29L64.87 147.46H64.85Z" fill="#3E1E11"/>
</svg>
