<svg width="186" height="180" viewBox="0 0 186 180" fill="none" xmlns="http://www.w3.org/2000/svg">
<g clip-path="url(#clip0_16_168)">
<path d="M172.14 144.3C172.56 136.8 172.26 137.49 169.28 132.07C168.67 130.95 168.54 129.97 168.53 128.63L168.5 91.8L109.28 91.78C108.86 94.1 109.17 96.05 109.17 98.38L109.15 153.64L138.52 153.7C140.77 153.7 141.09 156.78 141.09 156.01C141.09 155.5 140.73 157.99 139 157.99L119.57 158.05L105.82 157.97C105.29 157.94 104.43 157.54 104.43 156.79L104.35 122.7L71.76 122.63C71.43 121.06 71.25 119.72 71.94 118.44L104.34 118.35C104.42 116.45 104.51 114.84 104.3 112.89L72.24 112.87C71.34 111.56 71.54 109.77 71.96 108.1L103.3 108.12C104.05 108.12 104.41 107.68 104.41 106.99V89.63C104.41 86.25 109.52 87.25 113.13 87.25L169.91 87.3C171.9 87.3 173.14 88.65 173.14 90.8L173.25 156.04C173.25 156.68 173.34 156.99 173.22 157.25C172.6 158.61 167.32 157.62 164.72 158.11C164.34 159.87 164.82 164.57 164.07 165.08C163.32 165.59 161.92 163.87 160.77 163.21C158.81 162.09 157.09 160.85 155.21 159.6C154.28 159.53 153.36 160.51 152.55 161.04L147.23 164.58C146.67 165.45 145.82 164.92 146.32 163.93L146.04 152.74C139.65 147.21 138.53 138.4 143.44 131.91C145.96 128.58 149.99 126.74 154.22 126.66C159.24 126.56 163.72 129.4 166.15 132.92C169.25 137.4 169.59 142.7 167.53 147.51C166.57 149.76 164.86 151.21 163.06 153.2C164.9 154.26 166.82 153.74 168.83 153.53C169.6 152.42 169.14 151.17 169.73 150.05C170.7 148.2 172.01 146.52 172.13 144.33L172.14 144.3ZM164.35 141.11C164.35 135.74 160 131.39 154.63 131.39C149.26 131.39 144.91 135.74 144.91 141.11C144.91 146.48 149.26 150.83 154.63 150.83C160 150.83 164.35 146.48 164.35 141.11Z" fill="#3E1E11"/>
<path d="M159.86 99.54H116.46V103.54H159.86V99.54Z" fill="#3E1E11"/>
<path d="M159.74 108.99H116.46V112.95H159.74V108.99Z" fill="#3E1E11"/>
<path d="M159.66 118.36H116.69V122.13H159.66V118.36Z" fill="#3E1E11"/>
<path d="M138.12 131.29C137.59 132.07 136.6 132.04 135.82 132.04H117.98C117.4 132.06 117.03 131.85 116.83 131.65C116.49 131.31 116.59 130.86 116.6 130.32C116.63 128.8 117.53 128.12 119.01 128.13L138.23 128.21C138.63 129.2 138.74 130.35 138.1 131.3L138.12 131.29Z" fill="#3E1E11"/>
<path d="M42.06 161.55C41.12 161.98 40.08 162.43 39 161.93C28.3 156.95 21.1 152.91 15.57 141.75C11.57 133.67 10.6 124.9 10.06 115.99C9.82999 112.21 8.61999 107.53 11.26 107.25C21.44 106.18 27.61 105.17 35.59 98.43C41.08 93.8 46.72 106.17 59.99 106.98L66.86 107.4C67.7 107.45 68.13 108.2 68.08 109.14L67.42 122.14L66.81 127.02C66.02 133.34 64.46 139.22 61.38 144.71C56.64 153.16 50.76 157.6 42.05 161.55H42.06ZM59.03 137.86C61.85 131 63.38 119.33 62.75 111.93C53.35 111.1 46.78 109.14 39.66 103.34C39 102.8 38 103.4 37.41 103.76C27.51 109.63 27.33 109.87 14.89 111.75C15.2 132.2 19.5 148.9 40.12 156.33C49.08 153.06 55.36 146.8 59.03 137.86Z" fill="#3E1E11"/>
<path d="M36.47 143.73L23.36 130.6C23.14 130.38 23.1 130.1 23.06 129.96C22.83 129.23 28.35 126.05 29.5 125.39C30.49 124.83 31.18 125.06 31.92 125.82C33.83 127.81 35.63 129.67 38.06 131.55L51.15 114.52C52.72 115.87 58.27 119.42 58.4 119.96C58.47 120.23 58.24 120.79 57.92 121.19L42.75 140.63C41.46 142.28 40.3 143.86 38.65 145.11C37.96 145.08 37.16 144.42 36.47 143.73Z" fill="#3E1E11"/>
<path d="M99.05 101.31C100.38 102.11 100.86 102.81 100.64 104.35C100.47 105.49 99.53 106.31 98.34 105.83C94.65 104.34 89.27 100.24 84.77 98.34C77.08 95.09 69.55 99.91 63.47 104.43C61.31 106.03 58.46 105.16 58.15 103.81C57.97 103.05 58.14 102.21 59 101.71L66.11 97.5C72.27 93.85 71.4 95.34 71.4 91.22L71.38 34.93L35.64 34.91C34.5 34.91 33.71 36.37 33.13 37.08L37.1 46.84L45.89 68.97L55.09 69.26L54.74 71.58C54.39 73.92 53.13 75.95 52.1 78.08C48.09 86.35 39.92 91.26 30.77 91.37C16.64 91.54 8.55003 82.75 5.03003 70.06C9.82003 67.61 12.07 71.02 13.51 67.31L25.24 37.17C22.12 35.26 20.58 31.34 22.41 28.14C24.8 23.98 30.6 23.62 33.9 26.87C36.08 29.01 39.21 27.95 41.77 27.11L60.08 21.12C66.68 18.96 69.07 21.05 73.85 19.44C73.85 17.14 69.94 16.53 70.82 11.24C71.18 9.07999 72.77 7.23999 75.09 6.27999C77.7 5.19999 80.49 5.59999 82.66 7.37999C86.39 10.45 86.45 15.4 82.88 19.01C87.99 20.39 90.24 18.62 95.15 20.55C99.07 22.09 102.98 23.21 107.02 24.45L115.26 26.98C117.25 27.59 119.08 28.25 121.25 28.37C123.57 24.69 128.22 23.44 131.86 25.9C133.67 27.12 134.59 29.06 134.73 30.87C135.12 35.93 130.75 36.2 131.64 38.4L141.03 61.63L144.14 68.98L150.47 69.14C151.63 69.17 152.3 70.08 151.98 71.24C151.15 74.2 147.2 81.81 144.48 84.14C143.36 85.1 137.08 85.53 138.9 83.41C141.34 80.57 143.67 77.82 144.99 73.95L108.6 73.85C110.4 78.59 113.4 81.24 116.32 84.59C113.96 85.07 111.61 85.48 109.55 84.37C106.53 82.74 103.39 74.53 101.93 71.17C101.7 70.63 101.93 70.02 102.14 69.75C103.1 68.47 108.11 69.47 110.12 68.89L119.32 45.29C120.29 42.8 121.25 40.46 122.35 38.01C122.43 35.79 120.6 34.85 118.5 34.86H85.49L85.44 91.75C85.44 92.8 85.52 93.62 86.49 94.11C90.79 96.3 94.78 98.71 99.06 101.29L99.05 101.31ZM81.18 12.82C81.18 11.07 79.76 9.64999 78.01 9.64999C76.26 9.64999 74.84 11.07 74.84 12.82C74.84 14.57 76.26 15.99 78.01 15.99C79.76 15.99 81.18 14.57 81.18 12.82ZM81.11 23.65H75.69V37.12H81.11V23.65ZM104.82 28.05C97.57 26.37 92.59 23.12 85.6 24.23C85.31 26.36 85.23 28.3 85.74 30.38L111.07 30.05C109.35 28.51 107.13 28.69 104.82 28.05ZM70.86 30.25C71.66 28.59 71.75 25.5 70.17 24.95C67.76 24.12 64.77 24.57 62.39 25.23C57.16 26.67 52.16 27.69 46.73 29.88L70.86 30.25ZM31.87 31.3C31.87 29.61 30.5 28.25 28.82 28.25C27.14 28.25 25.77 29.62 25.77 31.3C25.77 32.98 27.14 34.35 28.82 34.35C30.5 34.35 31.87 32.98 31.87 31.3ZM130.66 31.45C130.66 29.76 129.29 28.38 127.59 28.38C125.89 28.38 124.52 29.75 124.52 31.45C124.52 33.15 125.89 34.52 127.59 34.52C129.29 34.52 130.66 33.15 130.66 31.45ZM81.11 41.44H75.69V93.76H81.11V41.44ZM125.16 68.94L124.71 43.8L114.86 68.98C118.67 69.15 121.57 69.23 125.16 68.94ZM17.69 69.01C21.55 69.1 24.2 69.28 27.46 68.93L27.29 44.46L20.61 61.27C19.56 63.9 18.6 66.32 17.69 69.01ZM40.68 68.86L36.32 57.15C34.64 53.06 33.53 48.95 31.43 45.05L31.26 69.09C34.53 69.02 37.2 69.32 40.68 68.86ZM138.91 68.69L134.32 56.63C132.36 52.79 131.84 48.63 129.1 44.77L129.14 69.07C132.74 68.91 135.81 69.57 138.91 68.68V68.69ZM38.68 84.73C43.27 82.76 46.61 78.83 48.1 73.95L12.08 73.88C12.74 76.62 14.34 78.85 16.2 80.9C21.64 86.89 32.21 87.51 38.69 84.73H38.68Z" fill="#3E1E11"/>
<path d="M153.07 148.23L147.18 142.33C147.08 142.23 147.06 142.1 147.04 142.04C146.94 141.71 149.42 140.28 149.94 139.99C150.38 139.74 150.7 139.84 151.03 140.18C151.89 141.07 152.7 141.91 153.79 142.76L159.67 135.11C160.37 135.72 162.87 137.31 162.93 137.55C162.96 137.67 162.86 137.92 162.72 138.1L155.9 146.84C155.32 147.58 154.8 148.29 154.06 148.85C153.75 148.84 153.39 148.54 153.08 148.23H153.07Z" fill="#3E1E11"/>
</g>
<defs>
<clipPath id="clip0_16_168">
<rect width="185.35" height="179.64" fill="white"/>
</clipPath>
</defs>
</svg>
