<?xml version="1.0" encoding="UTF-8" standalone="no"?>
<!-- Created with Inkscape (http://www.inkscape.org/) -->

<svg
   width="904.15894"
   height="270.37628"
   viewBox="0 0 239.22538 71.537056"
   version="1.1"
   id="svg1"
   xmlns="http://www.w3.org/2000/svg"
   xmlns:svg="http://www.w3.org/2000/svg">
  <defs
     id="defs1">
    <clipPath
       clipPathUnits="userSpaceOnUse"
       id="clipPath46">
      <path
         d="M 0,1080 H 1080 V 0 H 0 Z"
         transform="translate(-89.465327,-404.42731)"
         id="path46" />
    </clipPath>
    <clipPath
       clipPathUnits="userSpaceOnUse"
       id="clipPath48">
      <path
         d="M 0,1080 H 1080 V 0 H 0 Z"
         transform="translate(-638.24604,-696.34672)"
         id="path48" />
    </clipPath>
    <clipPath
       clipPathUnits="userSpaceOnUse"
       id="clipPath50">
      <path
         d="M 0,1080 H 1080 V 0 H 0 Z"
         transform="translate(-416.96371,-588.94072)"
         id="path50" />
    </clipPath>
    <clipPath
       clipPathUnits="userSpaceOnUse"
       id="clipPath52">
      <path
         d="M 0,1080 H 1080 V 0 H 0 Z"
         transform="translate(-501.97329,-507.62542)"
         id="path52" />
    </clipPath>
    <clipPath
       clipPathUnits="userSpaceOnUse"
       id="clipPath54">
      <path
         d="M 0,1080 H 1080 V 0 H 0 Z"
         transform="translate(-545.31654,-571.60192)"
         id="path54" />
    </clipPath>
    <clipPath
       clipPathUnits="userSpaceOnUse"
       id="clipPath56">
      <path
         d="M 0,1080 H 1080 V 0 H 0 Z"
         transform="translate(-649.54359,-574.96291)"
         id="path56" />
    </clipPath>
    <clipPath
       clipPathUnits="userSpaceOnUse"
       id="clipPath58">
      <path
         d="M 0,1080 H 1080 V 0 H 0 Z"
         transform="translate(-732.20094,-575.43331)"
         id="path58" />
    </clipPath>
    <clipPath
       clipPathUnits="userSpaceOnUse"
       id="clipPath60">
      <path
         d="M 0,1080 H 1080 V 0 H 0 Z"
         transform="translate(-815.3965,-507.62542)"
         id="path60" />
    </clipPath>
    <clipPath
       clipPathUnits="userSpaceOnUse"
       id="clipPath62">
      <path
         d="M 0,1080 H 1080 V 0 H 0 Z"
         transform="translate(-906.79045,-574.96291)"
         id="path62" />
    </clipPath>
    <clipPath
       clipPathUnits="userSpaceOnUse"
       id="clipPath64">
      <path
         d="M 0,1080 H 1080 V 0 H 0 Z"
         transform="translate(-1009.3377,-574.96291)"
         id="path64" />
    </clipPath>
    <clipPath
       clipPathUnits="userSpaceOnUse"
       id="clipPath66">
      <path
         d="M 0,1080 H 1080 V 0 H 0 Z"
         transform="translate(-1056.4459,-497.74761)"
         id="path66" />
    </clipPath>
    <clipPath
       clipPathUnits="userSpaceOnUse"
       id="clipPath68">
      <path
         d="M 0,1080 H 1080 V 0 H 0 Z"
         transform="translate(-519.34884,-439.26321)"
         id="path68" />
    </clipPath>
    <clipPath
       clipPathUnits="userSpaceOnUse"
       id="clipPath70">
      <path
         d="M 0,1080 H 1080 V 0 H 0 Z"
         transform="translate(-554.64421,-442.18911)"
         id="path70" />
    </clipPath>
    <clipPath
       clipPathUnits="userSpaceOnUse"
       id="clipPath72">
      <path
         d="M 0,1080 H 1080 V 0 H 0 Z"
         transform="translate(-622.47144,-435.20621)"
         id="path72" />
    </clipPath>
    <clipPath
       clipPathUnits="userSpaceOnUse"
       id="clipPath74">
      <path
         d="M 0,1080 H 1080 V 0 H 0 Z"
         transform="translate(-651.32664,-443.21701)"
         id="path74" />
    </clipPath>
    <clipPath
       clipPathUnits="userSpaceOnUse"
       id="clipPath76">
      <path
         d="M 0,1080 H 1080 V 0 H 0 Z"
         transform="translate(-702.82359,-424.98911)"
         id="path76" />
    </clipPath>
    <clipPath
       clipPathUnits="userSpaceOnUse"
       id="clipPath78">
      <path
         d="M 0,1080 H 1080 V 0 H 0 Z"
         transform="translate(-772.96322,-429.09621)"
         id="path78" />
    </clipPath>
    <clipPath
       clipPathUnits="userSpaceOnUse"
       id="clipPath80">
      <path
         d="M 0,1080 H 1080 V 0 H 0 Z"
         transform="translate(-820.2514,-443.26721)"
         id="path80" />
    </clipPath>
    <clipPath
       clipPathUnits="userSpaceOnUse"
       id="clipPath82">
      <path
         d="M 0,1080 H 1080 V 0 H 0 Z"
         transform="translate(-865.05302,-439.26321)"
         id="path82" />
    </clipPath>
    <clipPath
       clipPathUnits="userSpaceOnUse"
       id="clipPath84">
      <path
         d="M 0,1080 H 1080 V 0 H 0 Z"
         transform="translate(-916.6255,-453.79401)"
         id="path84" />
    </clipPath>
    <clipPath
       clipPathUnits="userSpaceOnUse"
       id="clipPath86">
      <path
         d="M 0,1080 H 1080 V 0 H 0 Z"
         transform="translate(-1060.885,-442.01661)"
         id="path86" />
    </clipPath>
    <clipPath
       clipPathUnits="userSpaceOnUse"
       id="clipPath88">
      <path
         d="M 0,1080 H 1080 V 0 H 0 Z"
         transform="translate(-469.98864,-442.01661)"
         id="path88" />
    </clipPath>
  </defs>
  <g
     id="layer1"
     transform="translate(-30.160654,-59.312497)">
    <path
       id="path45"
       d="m 0,0 c -10.399,-4.563 -20.535,-7.797 -31.778,-9.194 -4.817,-0.6 -9.308,-1.368 -14.447,-0.809 6.233,14.563 13.614,26.935 25.768,37.395 15.553,13.383 39.077,21.116 58.641,26.822 0.471,0.138 0.967,-0.261 1.028,-0.447 C 39.317,53.452 38.889,52.98 38.423,52.818 30.457,50.053 23.502,46.023 16.604,41.234 12.276,38.229 8.925,34.636 5.168,30.892 1.822,26.272 -2.261,22.349 -4.966,16.301 c 14.772,6.437 27.52,15.748 39.72,25.84 6.347,5.251 12.206,10.232 17.449,16.431 l 10.142,2.543 C 57.269,33.37 23.809,10.448 0,0 m 28.045,152.147 c -10.707,5.655 -21.732,9.632 -34.01,11.291 3.932,-2.886 8.317,-4.252 12.474,-6.699 6.8,-4.002 13.557,-7.729 19.444,-12.95 5.097,-4.519 10.003,-8.777 13.899,-14.298 2.657,-3.768 5.606,-7.047 7.058,-11.92 -17.034,-0.313 -33.274,2.989 -48.822,9.488 -31.802,14.551 -52.42,44.097 -59.182,78.629 15.511,-8.048 31.302,-13.225 47.906,-17.164 L 5.283,184.14 c 12.636,-2.999 24.766,-6.957 36.184,-13.084 17.352,-9.313 25.21,-31.632 22.668,-49.755 -0.395,-2.814 -0.483,-5.469 -2.101,-8.135 -2.758,5.466 -4.429,10.646 -7.742,15.434 -6.845,9.893 -15.534,17.888 -26.247,23.547 M 57.916,74.041 c 0,-0.147 -0.119,-0.265 -0.266,-0.265 -0.146,0 -0.266,0.118 -0.266,0.265 0,0.146 0.12,0.266 0.266,0.266 0.147,0 0.266,-0.12 0.266,-0.266 m 169.751,95.553 c -1.069,1.497 -3.5,1.184 -4.105,1.261 l -21.601,2.791 c -9.904,1.28 -22.307,3.948 -30.743,9.086 l -7.611,4.636 c -6.283,3.826 -12.474,7.019 -19.347,9.848 -6.27,2.581 -13.041,4.252 -19.966,3.705 -2.639,-0.208 -5.28,-0.209 -7.805,-0.682 -12.302,-2.306 -23.829,-7.598 -31.683,-18.436 3.923,0.578 6.761,2.812 10.338,4.077 8.722,3.082 17.652,5.264 26.958,4.14 7.471,-0.902 14.446,-4.621 20.72,-8.576 6.307,-3.975 12.759,-8.437 18.334,-13.404 0.127,-0.114 0.266,-0.262 0.237,-0.431 -0.019,-0.11 -0.107,-0.196 -0.189,-0.272 -1.638,-1.497 -2.637,-3.733 -4.157,-5.409 -1.581,-1.745 -3.367,-3.32 -5.232,-4.758 -4.067,-3.187 -6.437,-7.672 -9.283,-11.889 l -16.885,-25.035 -7.009,-8.926 C 105.306,94.347 81.847,82.268 61.793,75.136 c -1.291,-0.46 -2.363,-1.614 -3.96,-0.309 5.357,6.818 9.293,13.687 12.917,21.146 7.039,14.49 11.263,31.535 8.378,47.628 -3.416,19.067 -17.446,29.299 -33.584,38.019 -10.632,5.747 -22.237,9.452 -33.872,12.562 -8.776,2.346 -17.632,4.386 -26.38,6.839 -8.487,2.379 -17.188,6.776 -25.601,8.174 -9.192,1.527 -19.051,7.408 -26.367,13.349 l -6.633,5.385 c -1.04,-33.152 10.985,-65.606 34.346,-89.051 11.834,-11.877 26.395,-19.75 42.498,-24.261 6.943,-1.946 13.694,-3.464 20.902,-3.935 l 8.525,-0.556 c 4.455,-0.291 8.768,-0.004 13.274,-0.127 0.837,-0.024 2.77,1.049 3.411,0.076 C 52.213,100.5 52.188,96.801 49.5,87.069 48.061,81.853 44.566,77.675 40.601,74.114 31.508,65.951 24.824,64.38 13.537,60.116 2.608,55.987 -7.799,51.521 -17.544,45.169 c -5.984,-3.9 -11.591,-7.765 -16.073,-13.128 l -3.621,-4.329 c -2.454,-2.934 -4.602,-5.5 -6.716,-8.675 -7.219,-10.835 -12.412,-22.44 -15.823,-35.024 -0.48,-1.767 -1.069,-3.224 -0.483,-5.107 l 14.94,0.205 8.554,0.539 c 21.129,1.333 51.59,13.199 68.819,26.05 l 9.136,6.814 c 3.478,2.594 10.157,9.309 13.197,12.715 8.485,9.507 14.913,20.339 18.057,32.81 0.862,3.419 1.747,8.064 5.377,9.678 8.679,3.858 17.261,7.259 25.342,12.321 12.059,7.558 23.041,18.302 31.011,30.031 l 8.155,12.002 c 5.861,8.628 11.001,17.308 17.504,25.544 8.497,10.765 28.784,17.501 41.773,18.812 l 25.626,2.584 c 0.441,0.045 0.593,0.362 0.436,0.583"
       style="fill:#3d5724;fill-opacity:1;fill-rule:nonzero;stroke:none"
       transform="matrix(0.2283097,0,0,-0.2283097,46.91201,126.03359)"
       clip-path="url(#clipPath46)" />
    <path
       id="path47"
       d="m 0,0 c 0,-0.176 -0.143,-0.32 -0.32,-0.32 -0.178,0 -0.321,0.144 -0.321,0.32 0,0.176 0.143,0.32 0.321,0.32 C -0.143,0.32 0,0.176 0,0"
       style="fill:#3d5724;fill-opacity:1;fill-rule:nonzero;stroke:none"
       transform="matrix(0.2283097,0,0,-0.2283097,172.20397,59.385556)"
       clip-path="url(#clipPath48)" />
    <path
       id="path49"
       d="m 0,0 c -2.197,-0.271 -4.282,-0.404 -6.25,-0.404 h -50.402 c -1.881,0 -3.944,0.133 -6.181,0.404 -2.242,0.269 -4.282,0.581 -6.116,0.942 -1.838,0.355 -3.206,0.714 -4.101,1.074 v -2.42 -1.478 -3.225 -0.405 -13.709 l 1.345,0.134 v 1.749 c 0,3.494 1.076,6.317 3.225,8.468 2.151,2.149 4.974,3.268 8.467,3.358 h 20.43 v -79.297 c -0.089,-2.331 -0.964,-4.324 -2.62,-5.981 -1.659,-1.661 -3.652,-2.487 -5.982,-2.487 h -1.746 v -1.344 h 10.348 0.404 15.591 0.403 10.348 v 1.344 h -1.747 c -2.33,0 -4.323,0.826 -5.979,2.487 -1.661,1.657 -2.535,3.65 -2.622,5.981 V -5.512 H -2.89 c 3.495,-0.09 6.317,-1.209 8.468,-3.358 2.15,-2.151 3.225,-4.974 3.225,-8.468 v -1.749 l 1.343,-0.134 v 13.709 0.405 3.225 1.478 2.42 C 9.341,1.656 7.996,1.297 6.114,0.942 4.233,0.581 2.194,0.269 0,0"
       style="fill:#853112;fill-opacity:1;fill-rule:nonzero;stroke:none"
       transform="matrix(0.2283097,0,0,-0.2283097,121.68307,83.90739)"
       clip-path="url(#clipPath50)" />
    <path
       id="path51"
       d="m 0,0 c -2.062,-2.687 -4.57,-4.75 -7.526,-6.183 -2.958,-1.433 -6.544,-2.195 -10.754,-2.284 h -27.725 l 46.14,76.476 v 1.074 c -0.539,-0.179 -1.594,-0.402 -3.16,-0.671 -1.569,-0.269 -3.36,-0.493 -5.376,-0.672 -2.016,-0.18 -3.92,-0.268 -5.712,-0.268 h -36.692 c -1.704,0.088 -3.562,0.244 -5.578,0.47 -2.016,0.222 -3.854,0.491 -5.51,0.807 -1.659,0.312 -2.891,0.605 -3.698,0.872 V 67.472 66.127 62.902 62.633 50.267 h 1.48 v 1.48 c 0,3.225 0.918,5.823 2.756,7.795 1.835,1.969 4.412,3.001 7.727,3.091 h 32.392 l -46.236,-74.728 v -1.211 h 8.871 9.677 26.076 H -1.211 0 L 6.316,9.543 H 4.972 C 3.717,5.868 2.061,2.689 0,0"
       style="fill:#853112;fill-opacity:1;fill-rule:nonzero;stroke:none"
       transform="matrix(0.2283097,0,0,-0.2283097,141.09159,102.47246)"
       clip-path="url(#clipPath52)" />
    <path
       id="path53"
       d="m 0,0 c 1.566,1.345 3.514,2.016 5.847,2.016 h 1.476 l 0.136,1.345 h -9.946 -0.403 -14.919 -0.403 -9.945 V 2.016 h 1.746 c 2.238,0 4.168,-0.671 5.779,-2.016 1.614,-1.344 2.42,-3.047 2.42,-5.107 v -63.707 c 0,-1.973 -0.806,-3.653 -2.42,-5.04 -1.611,-1.391 -3.541,-2.085 -5.779,-2.085 h -1.746 v -1.343 h 9.945 0.403 14.919 0.403 9.946 v 1.343 H 5.847 c -2.333,0 -4.281,0.694 -5.847,2.085 -1.569,1.387 -2.399,3.067 -2.487,5.04 V -5.107 C -2.399,-3.047 -1.569,-1.344 0,0"
       style="fill:#853112;fill-opacity:1;fill-rule:nonzero;stroke:none"
       transform="matrix(0.2283097,0,0,-0.2283097,150.98727,87.86601)"
       clip-path="url(#clipPath54)" />
    <path
       id="path55"
       d="m 0,0 h -13.573 -0.271 -9.676 v -1.345 h 2.286 c 1.969,0 3.672,-0.65 5.106,-1.947 1.432,-1.302 2.194,-2.937 2.284,-4.907 V -56.015 L -78.222,1.882 h -1.344 c 0.894,-5.914 1.344,-11.157 1.344,-15.726 v -58.601 c 0,-1.971 -0.719,-3.607 -2.151,-4.905 -1.435,-1.3 -3.18,-1.949 -5.241,-1.949 h -2.151 v -1.343 h 9.543 0.403 13.573 0.271 9.676 v 1.343 h -2.284 c -1.882,0 -3.562,0.649 -5.041,1.949 -1.478,1.298 -2.264,2.934 -2.351,4.905 v 48.184 l 64.513,-58.13 h 1.209 c -0.45,2.868 -0.785,5.512 -1.007,7.93 -0.226,2.42 -0.336,5.152 -0.336,8.201 v 58.061 c 0,1.97 0.739,3.605 2.216,4.907 1.479,1.297 3.204,1.947 5.175,1.947 h 2.287 V 0 H 0.404 Z"
       style="fill:#853112;fill-opacity:1;fill-rule:nonzero;stroke:none"
       transform="matrix(0.2283097,0,0,-0.2283097,174.78332,87.09866)"
       clip-path="url(#clipPath56)" />
    <path
       id="path57"
       d="m 0,0 c -1.971,-0.226 -3.853,-0.336 -5.645,-0.336 h -47.578 c -1.704,0 -3.542,0.11 -5.511,0.336 -1.973,0.223 -3.763,0.513 -5.377,0.873 -1.611,0.357 -2.778,0.672 -3.493,0.941 v -2.15 -1.345 -3.226 -0.402 -12.232 h 1.344 v 1.614 c 0,3.135 0.916,5.665 2.754,7.593 1.836,1.925 4.412,2.933 7.728,3.025 h 18.413 v -67.336 c -0.09,-1.973 -0.852,-3.653 -2.284,-5.041 -1.434,-1.39 -3.181,-2.083 -5.241,-2.083 h -1.479 v -1.344 h 9.004 0.271 15.187 0.537 8.87 v 1.344 h -1.344 c -2.061,0 -3.829,0.693 -5.308,2.083 -1.479,1.388 -2.218,3.068 -2.218,5.041 v 67.336 h 18.414 c 3.313,-0.092 5.89,-1.1 7.727,-3.025 1.836,-1.928 2.709,-4.458 2.622,-7.593 v -1.614 H 8.87 v 12.232 0.402 3.226 1.345 2.15 C 8.242,1.545 7.101,1.23 5.443,0.873 3.784,0.513 1.97,0.223 0,0"
       style="fill:#853112;fill-opacity:1;fill-rule:nonzero;stroke:none"
       transform="matrix(0.2283097,0,0,-0.2283097,193.65479,86.99126)"
       clip-path="url(#clipPath58)" />
    <path
       id="path59"
       d="m 0,0 c -2.062,-2.687 -4.57,-4.75 -7.526,-6.183 -2.958,-1.433 -6.544,-2.195 -10.754,-2.284 h -27.725 l 46.14,76.476 v 1.074 c -0.539,-0.179 -1.594,-0.402 -3.16,-0.671 -1.569,-0.269 -3.36,-0.493 -5.376,-0.672 -2.016,-0.18 -3.92,-0.268 -5.712,-0.268 h -36.692 c -1.704,0.088 -3.562,0.244 -5.578,0.47 -2.016,0.222 -3.854,0.491 -5.51,0.807 -1.659,0.312 -2.891,0.605 -3.698,0.872 V 67.472 66.127 62.902 62.633 50.267 h 1.48 v 1.48 c 0,3.225 0.918,5.823 2.756,7.795 1.835,1.969 4.412,3.001 7.727,3.091 h 32.392 l -46.236,-74.728 v -1.211 h 8.871 9.677 26.076 H -1.211 0 L 6.316,9.543 H 4.972 C 3.717,5.868 2.061,2.689 0,0"
       style="fill:#853112;fill-opacity:1;fill-rule:nonzero;stroke:none"
       transform="matrix(0.2283097,0,0,-0.2283097,212.64914,102.47246)"
       clip-path="url(#clipPath60)" />
    <path
       id="path61"
       d="m 0,0 h -7.393 -0.268 -8.199 v -1.211 h 2.016 c 1.701,0 3.158,-0.56 4.369,-1.68 1.209,-1.12 1.814,-2.486 1.814,-4.098 v -45.294 c 0,-7.886 -2.13,-14.091 -6.385,-18.616 -4.258,-4.524 -10.148,-6.787 -17.673,-6.787 -7.081,0 -12.634,2.397 -16.667,7.192 -4.032,4.791 -6.048,11.357 -6.048,19.689 v 43.816 c 0,1.612 0.605,2.978 1.814,4.098 1.209,1.12 2.622,1.68 4.234,1.68 h 2.017 V 0 h -8.065 -0.269 -15.322 -0.268 -8.2 v -1.211 h 2.016 c 1.702,0 3.136,-0.56 4.303,-1.68 1.163,-1.12 1.79,-2.486 1.881,-4.098 v -44.892 c 0,-9.498 3.136,-16.957 9.407,-22.378 6.271,-5.422 15.458,-8.132 27.553,-8.132 10.662,0 18.927,2.734 24.799,8.201 5.866,5.464 8.803,12.989 8.803,22.578 v 44.623 c 0.088,1.612 0.738,2.978 1.947,4.098 1.211,1.12 2.665,1.68 4.369,1.68 H 8.466 V 0 H 0.269 Z"
       style="fill:#853112;fill-opacity:1;fill-rule:nonzero;stroke:none"
       transform="matrix(0.2283097,0,0,-0.2283097,233.51527,87.09866)"
       clip-path="url(#clipPath62)" />
    <path
       id="path63"
       d="m 0,0 h -13.573 -0.271 -9.676 v -1.345 h 2.286 c 1.969,0 3.672,-0.65 5.106,-1.947 1.432,-1.302 2.194,-2.937 2.284,-4.907 V -56.015 L -78.223,1.882 h -1.343 c 0.894,-5.914 1.343,-11.157 1.343,-15.726 v -58.601 c 0,-1.971 -0.718,-3.607 -2.15,-4.905 -1.435,-1.3 -3.18,-1.949 -5.242,-1.949 h -2.15 v -1.343 h 9.542 0.404 13.573 0.271 9.676 v 1.343 h -2.284 c -1.882,0 -3.562,0.649 -5.041,1.949 -1.478,1.298 -2.264,2.934 -2.351,4.905 v 48.184 l 64.513,-58.13 h 1.209 c -0.45,2.868 -0.785,5.512 -1.007,7.93 -0.226,2.42 -0.336,5.152 -0.336,8.201 v 58.061 c 0,1.97 0.739,3.605 2.216,4.907 1.479,1.297 3.204,1.947 5.175,1.947 h 2.287 V 0 H 0.404 Z"
       style="fill:#853112;fill-opacity:1;fill-rule:nonzero;stroke:none"
       transform="matrix(0.2283097,0,0,-0.2283097,256.92781,87.09866)"
       clip-path="url(#clipPath64)" />
    <path
       id="path65"
       d="m 0,0 c -1.569,1.388 -2.399,3.067 -2.487,5.041 v 63.706 c 0.088,2.061 0.918,3.763 2.487,5.107 1.566,1.345 3.514,2.016 5.845,2.016 h 1.478 l 0.136,1.345 h -9.946 -0.403 -14.919 -0.403 -9.945 V 75.87 h 1.746 c 2.238,0 4.168,-0.671 5.779,-2.016 1.614,-1.344 2.42,-3.046 2.42,-5.107 V 5.041 c 0,-1.974 -0.806,-3.653 -2.42,-5.041 -1.611,-1.391 -3.541,-2.083 -5.779,-2.083 h -1.746 v -1.344 h 9.945 0.403 14.919 0.403 9.946 v 1.344 H 5.845 C 3.514,-2.083 1.566,-1.391 0,0"
       style="fill:#853112;fill-opacity:1;fill-rule:nonzero;stroke:none"
       transform="matrix(0.2283097,0,0,-0.2283097,267.68307,104.72766)"
       clip-path="url(#clipPath66)" />
    <path
       id="path67"
       d="M 0,0 -6.447,16.84 -12.925,0 Z m -8.399,22.18 h 3.902 l 14.89,-36.454 H 5.464 l -4.089,10.68 h -15.681 l -4.107,-10.68 h -4.929 z"
       style="fill:#26331a;fill-opacity:1;fill-rule:nonzero;stroke:none"
       transform="matrix(0.2283097,0,0,-0.2283097,145.05859,118.08022)"
       clip-path="url(#clipPath68)" />
    <path
       id="path69"
       d="m 0,0 h 11.039 c 1.267,0 2.37,0.351 3.311,1.054 0.942,0.701 1.677,1.633 2.208,2.797 0.532,1.163 0.797,2.414 0.797,3.749 0,1.369 -0.308,2.626 -0.924,3.773 -0.617,1.147 -1.423,2.061 -2.414,2.747 -0.994,0.685 -2.088,1.027 -3.286,1.027 L 0,15.147 Z m -4.623,-17.201 v 36.455 h 15.609 c 1.61,0 3.082,-0.333 4.418,-1.001 1.335,-0.667 2.497,-1.558 3.49,-2.67 0.994,-1.113 1.763,-2.362 2.312,-3.748 0.547,-1.387 0.82,-2.798 0.82,-4.235 0,-1.677 -0.316,-3.27 -0.949,-4.775 -0.633,-1.507 -1.523,-2.791 -2.67,-3.852 -1.148,-1.061 -2.49,-1.798 -4.031,-2.207 l 8.833,-13.967 H 17.97 L 9.652,-4.107 H 0 v -13.094 z"
       style="fill:#26331a;fill-opacity:1;fill-rule:nonzero;stroke:none"
       transform="matrix(0.2283097,0,0,-0.2283097,153.11687,117.41221)"
       clip-path="url(#clipPath70)" />
    <path
       id="path71"
       d="m 0,0 c 0,1.13 -0.25,2.173 -0.744,3.133 -0.498,0.958 -1.165,1.727 -2.003,2.31 -0.84,0.581 -1.805,0.873 -2.901,0.873 H -18.689 V -6.211 h 12.681 c 1.13,0 2.149,0.29 3.056,0.873 0.906,0.581 1.625,1.342 2.155,2.283 C -0.266,-2.113 0,-1.095 0,0 m -18.689,22.234 v -12.17 h 11.603 c 1.096,0 2.061,0.274 2.901,0.821 0.839,0.547 1.505,1.285 2.003,2.209 0.495,0.923 0.744,1.934 0.744,3.029 0,1.163 -0.231,2.2 -0.693,3.106 -0.462,0.907 -1.096,1.635 -1.9,2.183 -0.805,0.547 -1.72,0.822 -2.747,0.822 z M 4.672,-0.822 c 0,-1.882 -0.48,-3.526 -1.438,-4.927 -0.958,-1.405 -2.251,-2.501 -3.875,-3.287 -1.628,-0.788 -3.417,-1.181 -5.367,-1.181 h -17.304 v 36.455 h 18.126 c 1.711,0 3.191,-0.454 4.442,-1.36 1.248,-0.909 2.207,-2.073 2.875,-3.493 0.667,-1.42 1.002,-2.901 1.002,-4.44 0,-1.78 -0.455,-3.449 -1.362,-5.007 C 0.864,10.381 -0.429,9.224 -2.106,8.473 -0.018,7.857 1.633,6.718 2.849,5.059 4.065,3.399 4.672,1.438 4.672,-0.822"
       style="fill:#26331a;fill-opacity:1;fill-rule:nonzero;stroke:none"
       transform="matrix(0.2283097,0,0,-0.2283097,168.60249,119.00647)"
       clip-path="url(#clipPath72)" />
    <path
       id="path73"
       d="m 0,0 c 0,-1.849 0.299,-3.638 0.898,-5.367 0.599,-1.728 1.447,-3.259 2.542,-4.596 1.094,-1.334 2.413,-2.395 3.955,-3.181 1.539,-0.788 3.249,-1.181 5.134,-1.181 1.95,0 3.696,0.411 5.237,1.231 1.54,0.822 2.85,1.916 3.927,3.287 1.079,1.369 1.9,2.908 2.465,4.621 0.565,1.711 0.847,3.44 0.847,5.186 0,1.847 -0.3,3.627 -0.898,5.34 -0.599,1.711 -1.456,3.242 -2.568,4.596 -1.112,1.351 -2.43,2.412 -3.953,3.182 -1.523,0.769 -3.209,1.156 -5.057,1.156 -1.952,0 -3.698,-0.403 -5.237,-1.207 C 5.749,12.263 4.442,11.176 3.364,9.807 2.285,8.437 1.454,6.905 0.873,5.211 0.29,3.517 0,1.778 0,0 m 12.476,-18.484 c -2.566,0 -4.894,0.512 -6.982,1.539 -2.089,1.028 -3.893,2.421 -5.418,4.185 -1.523,1.763 -2.696,3.748 -3.516,5.957 -0.822,2.207 -1.232,4.474 -1.232,6.803 0,2.429 0.436,4.748 1.309,6.957 0.873,2.207 2.087,4.176 3.645,5.905 1.556,1.728 3.38,3.097 5.467,4.107 2.09,1.01 4.366,1.514 6.831,1.514 2.567,0 4.894,-0.531 6.982,-1.592 2.088,-1.061 3.886,-2.481 5.392,-4.261 1.507,-1.78 2.669,-3.766 3.491,-5.955 0.821,-2.191 1.233,-4.433 1.233,-6.727 0,-2.43 -0.428,-4.75 -1.285,-6.957 -0.855,-2.208 -2.061,-4.178 -3.618,-5.905 -1.559,-1.729 -3.382,-3.088 -5.469,-4.082 -2.087,-0.994 -4.364,-1.488 -6.83,-1.488"
       style="fill:#26331a;fill-opacity:1;fill-rule:nonzero;stroke:none"
       transform="matrix(0.2283097,0,0,-0.2283097,175.19041,117.17753)"
       clip-path="url(#clipPath74)" />
    <path
       id="path75"
       d="M 0,0 V 36.455 H 4.623 V 4.107 H 24.954 V 0 Z"
       style="fill:#26331a;fill-opacity:1;fill-rule:nonzero;stroke:none"
       transform="matrix(0.2283097,0,0,-0.2283097,186.94766,121.33913)"
       clip-path="url(#clipPath76)" />
    <path
       id="path77"
       d="M 0,0 V -4.107 H -24.75 V 32.348 H -0.463 V 28.241 H -20.127 V 16.431 H -3.029 V 12.579 H -20.127 V 0 Z"
       style="fill:#26331a;fill-opacity:1;fill-rule:nonzero;stroke:none"
       transform="matrix(0.2283097,0,0,-0.2283097,202.96122,120.40144)"
       clip-path="url(#clipPath78)" />
    <path
       id="path79"
       d="m 0,0 c 0,2.738 -0.505,5.17 -1.514,7.292 -1.01,2.122 -2.473,3.782 -4.391,4.981 -1.917,1.197 -4.262,1.797 -7.035,1.797 h -8.009 v -28.241 h 8.009 c 2.807,0 5.17,0.626 7.087,1.874 1.915,1.249 3.371,2.944 4.363,5.084 C -0.498,-5.074 0,-2.669 0,0 m -25.572,-18.278 v 36.455 h 12.632 c 3.902,0 7.164,-0.813 9.782,-2.438 C -0.54,14.111 1.42,11.92 2.721,9.166 4.022,6.41 4.672,3.355 4.672,0 c 0,-3.696 -0.717,-6.914 -2.157,-9.652 -1.437,-2.739 -3.473,-4.861 -6.109,-6.366 -2.637,-1.508 -5.751,-2.26 -9.346,-2.26 z"
       style="fill:#26331a;fill-opacity:1;fill-rule:nonzero;stroke:none"
       transform="matrix(0.2283097,0,0,-0.2283097,213.75757,117.16607)"
       clip-path="url(#clipPath80)" />
    <path
       id="path81"
       d="M 0,0 -6.447,16.84 -12.925,0 Z m -8.399,22.18 h 3.902 l 14.89,-36.454 H 5.464 l -4.089,10.68 h -15.681 l -4.107,-10.68 h -4.929 z"
       style="fill:#26331a;fill-opacity:1;fill-rule:nonzero;stroke:none"
       transform="matrix(0.2283097,0,0,-0.2283097,223.98621,118.08022)"
       clip-path="url(#clipPath82)" />
    <path
       id="path83"
       d="m 0,0 c -0.411,0.48 -0.958,0.942 -1.643,1.387 -0.686,0.444 -1.455,0.846 -2.312,1.206 -0.856,0.36 -1.787,0.65 -2.797,0.873 -1.011,0.223 -2.063,0.333 -3.158,0.333 -2.807,0 -4.877,-0.529 -6.213,-1.587 -1.335,-1.057 -2.001,-2.508 -2.001,-4.351 0,-1.295 0.34,-2.319 1.025,-3.069 0.684,-0.754 1.738,-1.366 3.158,-1.845 1.42,-0.476 3.227,-0.971 5.416,-1.482 2.535,-0.547 4.724,-1.214 6.573,-1.998 1.849,-0.784 3.269,-1.834 4.261,-3.148 0.992,-1.314 1.49,-3.062 1.49,-5.246 0,-1.741 -0.333,-3.25 -1.001,-4.531 C 2.13,-24.736 1.197,-25.796 0,-26.631 c -1.199,-0.837 -2.604,-1.45 -4.21,-1.843 -1.611,-0.391 -3.355,-0.587 -5.238,-0.587 -1.849,0 -3.653,0.197 -5.418,0.589 -1.762,0.394 -3.432,0.968 -5.005,1.721 -1.576,0.752 -3.046,1.695 -4.415,2.825 l 2.207,3.902 c 0.547,-0.583 1.259,-1.157 2.131,-1.721 0.872,-0.565 1.864,-1.087 2.977,-1.567 1.112,-0.48 2.319,-0.864 3.62,-1.154 1.3,-0.292 2.637,-0.437 4.006,-0.437 2.6,0 4.621,0.467 6.057,1.406 1.439,0.936 2.158,2.307 2.158,4.113 0,1.366 -0.402,2.457 -1.206,3.276 -0.806,0.819 -1.995,1.502 -3.569,2.047 -1.575,0.547 -3.493,1.093 -5.751,1.64 -2.464,0.614 -4.536,1.288 -6.213,2.022 -1.678,0.734 -2.935,1.698 -3.773,2.893 -0.839,1.196 -1.259,2.749 -1.259,4.66 0,2.321 0.565,4.284 1.695,5.889 1.13,1.604 2.686,2.814 4.672,3.635 1.986,0.819 4.226,1.228 6.727,1.228 1.642,0 3.174,-0.17 4.595,-0.513 1.42,-0.342 2.746,-0.822 3.979,-1.437 C 0,5.34 1.13,4.603 2.157,3.747 Z"
       style="fill:#26331a;fill-opacity:1;fill-rule:nonzero;stroke:none"
       transform="matrix(0.2283097,0,0,-0.2283097,235.76071,114.7627)"
       clip-path="url(#clipPath84)" />
    <path
       id="path85"
       d="m 0,0 h -123.054 c -1.668,0 -3.021,1.353 -3.021,3.02 0,1.668 1.353,3.021 3.021,3.021 H 0 C 1.668,6.041 3.02,4.688 3.02,3.02 3.02,1.353 1.668,0 0,0"
       style="fill:#26331a;fill-opacity:1;fill-rule:nonzero;stroke:none"
       transform="matrix(0.2283097,0,0,-0.2283097,268.69655,117.45159)"
       clip-path="url(#clipPath86)" />
    <path
       id="path87"
       d="m 0,0 h -123.054 c -1.668,0 -3.021,1.353 -3.021,3.02 0,1.668 1.353,3.021 3.021,3.021 H 0 C 1.668,6.041 3.02,4.688 3.02,3.02 3.02,1.353 1.668,0 0,0"
       style="fill:#26331a;fill-opacity:1;fill-rule:nonzero;stroke:none"
       transform="matrix(0.2283097,0,0,-0.2283097,133.78918,117.45159)"
       clip-path="url(#clipPath88)" />
  </g>
</svg>
