<svg width="187" height="184" viewBox="0 0 187 184" fill="none" xmlns="http://www.w3.org/2000/svg">
<path d="M49.9369 96.331C50.8842 96.331 51.7978 96.7161 51.7978 97.8073C51.7978 98.4644 51.4036 99.2041 50.5175 99.2928C50.8475 99.3997 51.1408 99.7115 51.315 99.9866C51.3394 100.023 51.8069 100.769 52.1033 101.136C52.4394 101.567 52.6625 101.723 53.0719 101.729V101.808H52.3111C51.4556 101.808 50.8322 101.622 50.4747 100.998C50.2853 100.668 49.9308 99.8918 49.8239 99.6565C49.6711 99.3294 49.4969 99.1644 49.2953 99.1277V99.0543H49.5336C49.9553 99.0482 50.3831 98.8343 50.5206 98.1496C50.5389 98.0549 50.5572 97.9296 50.5511 97.7706C50.5206 97.0218 50.1417 96.6886 49.6283 96.6764C49.4206 96.6672 49.1333 96.6764 49.0356 96.6764V101.24C49.0417 101.512 49.2617 101.732 49.5367 101.732H49.6344V101.811H47.2572V101.732H47.3581C47.63 101.732 47.8531 101.515 47.8592 101.243V96.9026C47.8531 96.6306 47.6331 96.4105 47.3581 96.4105H47.2572V96.3341H49.94L49.9369 96.331Z" fill="#E4D7C6"/>
<path d="M62.3883 101.808H58.3397V101.729H58.4406C58.7156 101.729 58.9356 101.509 58.9417 101.237V96.8751C58.9233 96.6153 58.7064 96.4074 58.4406 96.4074H58.3428V96.331H61.3403C61.6764 96.331 62.1286 96.2485 62.2753 96.1874V97.5567H62.1958V97.4619C62.1958 96.9912 61.8994 96.6825 61.4319 96.6642H60.115V98.9413H61.1508C61.5358 98.9351 61.8139 98.6509 61.8139 98.2719V98.2046H61.8903V100.011H61.8139V99.9438C61.8139 99.5648 61.5389 99.2866 61.16 99.2744H60.1119V101.475H61.1386C61.9208 101.475 62.4281 100.989 62.6694 100.213H62.7489L62.3883 101.808Z" fill="#E4D7C6"/>
<path d="M71.7628 99.0024C72.2272 99.305 72.4992 99.7146 72.4656 100.301C72.4167 101.319 71.6497 101.921 70.4 101.921C69.6972 101.921 69.0403 101.741 68.7561 101.448C68.6278 101.121 68.7378 100.46 68.9425 100.118H69.0097C68.9486 100.934 69.5475 101.607 70.4856 101.591C71.1669 101.579 71.5672 101.203 71.5672 100.711C71.5672 100.393 71.3625 100.182 70.9408 99.904L69.5781 98.9993C69.0403 98.6417 68.7714 98.1649 68.8294 97.5964C68.8967 96.7864 69.4894 96.2271 70.4764 96.2271C70.7269 96.2271 71.1853 96.2607 71.5428 96.3066H72.0347L71.9308 97.4558H71.8545C71.8545 96.9118 71.4145 96.5541 70.7514 96.5541C70.1372 96.5541 69.7461 96.8873 69.7278 97.306C69.7095 97.6147 69.9447 97.8195 70.2717 98.0335L71.7628 99.0024Z" fill="#E4D7C6"/>
<path d="M80.8439 101.808H78.4667V101.729H78.5675C78.8425 101.729 79.0625 101.509 79.0686 101.237V96.8965C79.0625 96.6244 78.8394 96.4074 78.5675 96.4074H78.4697V96.328H80.8439V96.4074H80.7431C80.4711 96.4074 80.2511 96.6245 80.2419 96.8934V101.234C80.248 101.506 80.4681 101.726 80.7431 101.726H80.8408V101.805L80.8439 101.808Z" fill="#E4D7C6"/>
<path d="M89.6836 96.3341C91.5322 96.3341 92.6811 97.3825 92.6811 99.0757C92.6811 100.769 91.5292 101.811 89.6836 101.811H86.845V101.732H86.9458C87.2178 101.732 87.4408 101.512 87.4469 101.24V96.8567C87.4469 96.6061 87.2086 96.4074 86.9489 96.4074H86.8511V96.331H89.6836V96.3341ZM88.6233 101.478H89.5919C90.7133 101.478 91.41 100.558 91.41 99.0757C91.41 97.5934 90.7103 96.6642 89.5919 96.6642H88.6233V101.478Z" fill="#E4D7C6"/>
<path d="M102.578 101.808H98.5294V101.729H98.6303C98.9053 101.729 99.1253 101.509 99.1314 101.237V96.8751C99.1131 96.6153 98.8961 96.4074 98.6303 96.4074H98.5325V96.331H101.53C101.866 96.331 102.318 96.2485 102.465 96.1874V97.5567H102.386V97.4619C102.386 96.9912 102.089 96.6825 101.622 96.6642H100.305V98.9413H101.341C101.726 98.9351 102.004 98.6509 102.004 98.2719V98.2046H102.08V100.011H102.004V99.9438C102.004 99.5648 101.729 99.2866 101.35 99.2744H100.302V101.475H101.328C102.111 101.475 102.618 100.989 102.859 100.213H102.939L102.578 101.808Z" fill="#E4D7C6"/>
<path d="M115.002 96.331V96.4105H114.855C114.593 96.4105 114.382 96.6183 114.373 96.8781V100.922C114.373 101.512 114.464 101.921 114.464 101.921H114.394L110.443 98.1557V101.261C110.449 101.524 110.663 101.732 110.926 101.732H111.069V101.811H108.698V101.732H108.845C109.108 101.732 109.322 101.521 109.328 101.258V97.1929C109.328 96.6122 109.236 96.2149 109.236 96.2149H109.313L113.257 99.9774V96.8843C113.251 96.6214 113.037 96.4105 112.774 96.4105H112.631V96.331H115.002Z" fill="#E4D7C6"/>
<path d="M126.106 99.525L126.182 100.873C125.831 101.451 125.165 101.918 123.985 101.918C122.063 101.909 120.814 100.848 120.814 99.0635C120.814 97.2785 122.024 96.2241 124.01 96.2241C124.844 96.2241 125.51 96.4166 125.953 96.6489L125.968 97.9907H125.904C125.62 96.9637 124.948 96.5541 124.086 96.5541C122.846 96.5541 122.088 97.5108 122.088 99.0482C122.088 100.586 122.821 101.561 123.985 101.591C125.189 101.591 125.8 101.066 126.042 99.5281H126.106V99.525Z" fill="#E4D7C6"/>
<path d="M134.6 101.808H132.223V101.729H132.324C132.599 101.729 132.819 101.509 132.825 101.237V96.8965C132.819 96.6244 132.596 96.4074 132.324 96.4074H132.226V96.328H134.6V96.4074H134.499C134.227 96.4074 134.007 96.6245 133.998 96.8934V101.234C134.004 101.506 134.224 101.726 134.499 101.726H134.597V101.805L134.6 101.808Z" fill="#E4D7C6"/>
<path d="M145.328 101.276C145.496 101.597 145.765 101.729 145.994 101.729H146.059V101.808H143.565V101.732H143.636C143.837 101.732 144.057 101.555 143.938 101.24L143.553 100.274H141.717L141.316 101.24C141.188 101.555 141.414 101.732 141.616 101.732H141.686V101.808H140.009V101.729H140.079C140.302 101.729 140.571 101.597 140.736 101.289L142.545 97.1991C142.6 97.0799 142.911 96.4013 142.93 96.1751H143L145.325 101.276H145.328ZM143.425 99.9438L142.661 98.0213L141.86 99.9438H143.428H143.425Z" fill="#E4D7C6"/>
<path d="M155.568 101.808H151.519V101.729H151.62C151.895 101.729 152.115 101.509 152.121 101.237V96.8995C152.115 96.6275 151.895 96.4074 151.62 96.4074H151.522V96.328H153.896V96.4074H153.795C153.52 96.4074 153.3 96.6275 153.294 96.8995V101.472H154.321C155.103 101.472 155.61 100.986 155.852 100.21H155.931L155.571 101.805L155.568 101.808Z" fill="#E4D7C6"/>
<path d="M165.7 101.808H161.651V101.729H161.752C162.027 101.729 162.247 101.509 162.253 101.237V96.8751C162.235 96.6153 162.018 96.4074 161.752 96.4074H161.654V96.331H164.652C164.988 96.331 165.44 96.2485 165.587 96.1874V97.5567H165.507V97.4619C165.507 96.9912 165.211 96.6825 164.743 96.6642H163.426V98.9413H164.462C164.847 98.9351 165.125 98.6509 165.125 98.2719V98.2046H165.202V100.011H165.125V99.9438C165.125 99.5648 164.85 99.2866 164.471 99.2744H163.423V101.475H164.45C165.232 101.475 165.739 100.989 165.981 100.213H166.06L165.7 101.808Z" fill="#E4D7C6"/>
<path d="M175.074 99.0024C175.539 99.305 175.811 99.7146 175.777 100.301C175.728 101.319 174.961 101.921 173.711 101.921C173.012 101.921 172.352 101.741 172.068 101.448C171.939 101.121 172.049 100.46 172.254 100.118H172.324C172.26 100.934 172.862 101.607 173.8 101.591C174.481 101.579 174.882 101.203 174.882 100.711C174.882 100.393 174.677 100.182 174.255 99.904L172.893 98.9993C172.355 98.6417 172.086 98.1649 172.144 97.5964C172.211 96.7864 172.804 96.2271 173.791 96.2271C174.041 96.2271 174.5 96.2607 174.857 96.3066H175.349L175.245 97.4558H175.169C175.169 96.9118 174.729 96.5541 174.066 96.5541C173.449 96.5541 173.061 96.8873 173.042 97.306C173.024 97.6147 173.259 97.8195 173.586 98.0335L175.077 99.0024H175.074Z" fill="#E4D7C6"/>
<path d="M38.5367 90.5573H184.497V90.7591C184.497 91.7402 183.7 92.5379 182.719 92.5379H40.315C39.3342 92.5379 38.5367 91.7402 38.5367 90.7591V90.5573Z" fill="#E4D7C6"/>
<path d="M51.5625 80.3518C51.3547 81.6294 51.0369 82.6472 50.6153 83.4052C50.1906 84.1632 49.6344 84.7042 48.9439 85.0282C48.2533 85.3552 47.4039 85.5172 46.4017 85.5172C45.4361 85.4897 44.5989 85.2177 43.8869 84.695C43.175 84.1724 42.6281 83.4419 42.2431 82.5035C41.8581 81.5652 41.6656 80.4496 41.6656 79.1567C41.6656 77.8638 41.8672 76.7573 42.2706 75.8312C42.6739 74.9051 43.2483 74.1868 43.9908 73.6795C44.7333 73.1721 45.6256 72.9153 46.6706 72.9153C47.7156 72.9153 48.6719 73.1935 49.4664 73.7467C50.2608 74.2999 50.8353 75.223 51.1867 76.5159H51.3639L51.3456 73.169C50.7833 72.8695 50.0897 72.6158 49.2617 72.4049C48.4336 72.1971 47.4986 72.0932 46.4536 72.0932C44.7975 72.0932 43.3736 72.3805 42.1789 72.9551C40.9872 73.5297 40.0706 74.3488 39.4319 75.4094C38.7933 76.4731 38.4725 77.7354 38.4725 79.1964C38.4725 80.6574 38.7994 81.9748 39.4503 83.0323C40.1011 84.0898 41.0239 84.8998 42.2186 85.4683C43.4103 86.0368 44.8036 86.3272 46.3956 86.3394C47.3733 86.3394 48.2197 86.2202 48.9378 85.9787C49.6558 85.7373 50.2547 85.4194 50.7375 85.0282C51.2203 84.6369 51.6053 84.1999 51.8925 83.7169L51.7153 80.3518H51.5595H51.5625Z" fill="#E4D7C6"/>
<path d="M66.5072 85.6272C66.22 85.4652 65.9786 85.181 65.7831 84.7775L60.5611 73.8017H60.4053C60.3931 73.9332 60.3411 74.1135 60.2494 74.3397C60.1578 74.5689 60.06 74.8104 59.9561 75.064C59.8522 75.3177 59.7544 75.547 59.6628 75.7487C59.5711 75.9504 59.5131 76.091 59.4856 76.1705L55.4828 84.7806H55.4767C55.2933 85.1841 55.0581 85.4683 54.7708 85.6303C54.4836 85.7923 54.2117 85.8748 53.9489 85.8748H53.7931V86.0704H57.7042V85.8748H57.5483C57.3253 85.8748 57.1236 85.7801 56.9433 85.5906C56.7631 85.4041 56.7447 85.1413 56.8792 84.7989L57.6553 82.9987H61.7894L62.6053 84.9243C62.6878 85.2054 62.6572 85.4316 62.5014 85.5936C62.3181 85.7831 62.1164 85.8779 61.8964 85.8779H61.7406V86.0735H67.4911V85.8779H67.3353C67.0756 85.8779 66.8006 85.7954 66.5133 85.6334L66.5072 85.6272ZM57.9792 82.2315L59.7331 78.1541L61.4594 82.2315H57.9792Z" fill="#E4D7C6"/>
<path d="M81.7636 74.3274H77.7333V74.5231H78.0664C78.3658 74.5231 78.6164 74.6178 78.8211 74.8073C79.0228 74.9968 79.1297 75.2352 79.145 75.5225V81.9503L70.1678 74.0554H69.9906C70.1219 74.8776 70.1861 75.6203 70.1861 76.2866V84.8753C70.1861 85.1627 70.0822 85.4011 69.8744 85.5906C69.6667 85.7801 69.41 85.8748 69.1106 85.8748H68.7989V86.0704H74.2744V85.8748H73.9414C73.6542 85.8748 73.4067 85.7801 73.1989 85.5906C72.9911 85.4011 72.8781 85.1627 72.8658 84.8753V78.4139L81.8431 86.3211H82.0203C81.9561 85.9421 81.9072 85.5814 81.8736 85.236C81.84 84.8906 81.8247 84.4902 81.8247 84.0318V75.5195C81.8247 75.2322 81.9317 74.9938 82.1486 74.8043C82.3625 74.6148 82.6161 74.52 82.9003 74.52H83.2333V74.3244H81.7667L81.7636 74.3274Z" fill="#E4D7C6"/>
<path d="M95.3578 74.2571C95.0705 74.2908 94.8047 74.306 94.5572 74.306H87.34C87.1047 74.306 86.848 74.2908 86.5669 74.2571C86.2858 74.2235 86.0322 74.1807 85.803 74.1288C85.5739 74.0768 85.4028 74.0371 85.2836 74.0126V77.1027H85.4975V76.9254C85.4975 76.3661 85.6503 75.9199 85.9558 75.5959C86.2614 75.2688 86.7014 75.1007 87.2758 75.0854H89.5247V84.8295C89.5125 85.1168 89.4025 85.3613 89.2008 85.5631C88.9992 85.7648 88.7547 85.8656 88.4675 85.8656H88.2536V86.0613H93.6528V85.8656H93.4389C93.1394 85.8656 92.8828 85.7648 92.675 85.5631C92.4672 85.3613 92.3633 85.1168 92.3633 84.8295V75.0854H94.6336C95.1928 75.0977 95.6328 75.2688 95.9536 75.5959C96.2714 75.9229 96.4272 76.3661 96.4119 76.9254V77.1027H96.6258V74.0126C96.5342 74.0524 96.3722 74.0951 96.1369 74.141C95.9017 74.1868 95.6419 74.2266 95.3547 74.2571H95.3578Z" fill="#E4D7C6"/>
<path d="M110.712 75.7151C110.098 75.1802 109.368 74.7737 108.521 74.4925C107.672 74.2113 106.728 74.0707 105.686 74.0707C104.644 74.0707 103.718 74.2113 102.868 74.4925C102.022 74.7737 101.292 75.1802 100.677 75.7151C100.063 76.25 99.5958 76.8949 99.2689 77.6529C98.9419 78.4109 98.78 79.2637 98.78 80.2173C98.78 81.1709 98.9419 82.0023 99.2689 82.7511C99.5958 83.4999 100.063 84.1448 100.677 84.6797C101.292 85.2146 102.022 85.6211 102.868 85.9023C103.715 86.1835 104.656 86.3241 105.686 86.3241C106.715 86.3241 107.675 86.1835 108.521 85.9023C109.368 85.6211 110.098 85.2146 110.712 84.6797C111.326 84.1448 111.797 83.503 112.13 82.7511C112.463 82.0023 112.628 81.1556 112.628 80.2173C112.628 79.2789 112.463 78.4109 112.13 77.6529C111.797 76.8979 111.323 76.25 110.712 75.7151ZM109.138 83.0537C108.817 83.8484 108.362 84.4658 107.769 84.9029C107.177 85.3399 106.483 85.5569 105.686 85.5569C104.888 85.5569 104.219 85.3399 103.632 84.9029C103.046 84.4658 102.587 83.8484 102.263 83.0537C101.936 82.259 101.774 81.3115 101.774 80.2173C101.774 79.1231 101.936 78.1542 102.263 77.3503C102.59 76.5495 103.046 75.929 103.632 75.492C104.219 75.0549 104.903 74.8379 105.686 74.8379C106.468 74.8379 107.177 75.0579 107.769 75.492C108.362 75.929 108.821 76.5495 109.138 77.3503C109.456 78.1542 109.618 79.1078 109.618 80.2173C109.618 81.3268 109.459 82.259 109.138 83.0537Z" fill="#E4D7C6"/>
<path d="M122.43 79.8444L119.359 77.9463C119.112 77.8027 118.886 77.659 118.684 77.5153C118.482 77.3717 118.326 77.2066 118.213 77.0171C118.103 76.8276 118.061 76.6167 118.085 76.3814C118.112 75.926 118.317 75.5592 118.702 75.2841C119.087 75.009 119.591 74.8745 120.218 74.8745C121 74.8745 121.599 75.0518 122.017 75.4033C122.436 75.7548 122.644 76.2316 122.644 76.8307H122.821L123.075 74.4436C123.075 74.4436 123.069 74.4436 123.066 74.4405L123.075 74.248H121.999C121.849 74.2296 121.697 74.2143 121.532 74.1991C121.165 74.1654 120.798 74.1379 120.426 74.1104C120.053 74.086 119.738 74.0707 119.475 74.0707C118.824 74.0707 118.244 74.1868 117.734 74.4222C117.223 74.6575 116.817 74.9968 116.511 75.44C116.206 75.8832 116.019 76.4181 115.955 77.0447C115.876 77.711 115.986 78.3223 116.279 78.8846C116.572 79.447 117.046 79.8963 117.697 80.2356L120.474 81.9961C120.997 82.2712 121.37 82.5463 121.599 82.8275C121.828 83.1087 121.941 83.4235 121.941 83.7781C121.941 84.2488 121.752 84.6583 121.373 85.0098C120.994 85.3613 120.426 85.5386 119.671 85.5386C118.98 85.5386 118.388 85.3919 117.889 85.0985C117.391 84.8051 117.019 84.4108 116.765 83.9156C116.511 83.4205 116.404 82.8795 116.441 82.2926H116.285C116.129 82.5402 115.998 82.8489 115.894 83.2218C115.79 83.5947 115.732 83.9645 115.717 84.3374C115.705 84.7103 115.751 85.0251 115.854 85.2849C116.038 85.4805 116.301 85.6578 116.646 85.8137C116.991 85.9696 117.407 86.0949 117.886 86.1866C118.369 86.2783 118.892 86.3241 119.451 86.3241C120.364 86.3241 121.156 86.1835 121.828 85.9023C122.5 85.6211 123.029 85.2146 123.414 84.6797C123.799 84.1448 124.01 83.5122 124.049 82.7817C124.089 82.0787 123.958 81.4765 123.658 80.9814C123.359 80.4862 122.946 80.1072 122.427 79.8474L122.43 79.8444Z" fill="#E4D7C6"/>
<path d="M138.432 85.6272C138.145 85.4652 137.903 85.181 137.708 84.7775L132.486 73.8017H132.33C132.318 73.9332 132.266 74.1135 132.174 74.3397C132.082 74.5689 131.985 74.8104 131.881 75.064C131.777 75.3177 131.679 75.547 131.587 75.7487C131.496 75.9504 131.438 76.091 131.41 76.1705L127.407 84.7806H127.401C127.218 85.1841 126.983 85.4683 126.696 85.6303C126.408 85.7923 126.136 85.8748 125.874 85.8748H125.718V86.0704H129.629V85.8748H129.473C129.25 85.8748 129.048 85.7801 128.868 85.5906C128.688 85.4041 128.669 85.1413 128.804 84.7989L129.58 82.9987H133.714L134.53 84.9243C134.612 85.2054 134.582 85.4316 134.426 85.5936C134.243 85.7831 134.041 85.8779 133.821 85.8779H133.665V86.0735H139.416V85.8779H139.26C139 85.8779 138.725 85.7954 138.438 85.6334L138.432 85.6272ZM129.904 82.2315L131.658 78.1541L133.384 82.2315H129.904Z" fill="#E4D7C6"/>
<path d="M153.688 74.3274H149.658V74.5231H149.991C150.291 74.5231 150.541 74.6178 150.746 74.8073C150.947 74.9968 151.054 75.2352 151.07 75.5225V81.9503L142.092 74.0554H141.915C142.047 74.8776 142.111 75.6203 142.111 76.2866V84.8753C142.111 85.1627 142.007 85.4011 141.799 85.5906C141.591 85.7801 141.335 85.8748 141.035 85.8748H140.724V86.0704H146.199V85.8748H145.866C145.579 85.8748 145.331 85.7801 145.124 85.5906C144.916 85.4011 144.803 85.1627 144.791 84.8753V78.4139L153.768 86.3211H153.945C153.881 85.9421 153.832 85.5814 153.798 85.236C153.765 84.8906 153.749 84.4902 153.749 84.0318V75.5195C153.749 75.2322 153.856 74.9938 154.073 74.8043C154.287 74.6148 154.541 74.52 154.825 74.52H155.158V74.3244H153.691L153.688 74.3274Z" fill="#E4D7C6"/>
<path d="M167.283 74.2571C166.995 74.2908 166.729 74.306 166.482 74.306H159.265C159.029 74.306 158.773 74.2908 158.492 74.2571C158.211 74.2235 157.957 74.1807 157.728 74.1288C157.499 74.0768 157.328 74.0371 157.208 74.0126V77.1027H157.422V76.9254C157.422 76.3661 157.575 75.9199 157.881 75.5959C158.186 75.2688 158.626 75.1007 159.201 75.0854H161.449V84.8295C161.437 85.1168 161.327 85.3613 161.126 85.5631C160.924 85.7648 160.679 85.8656 160.392 85.8656H160.178V86.0613H165.578V85.8656H165.364C165.064 85.8656 164.808 85.7648 164.6 85.5631C164.392 85.3613 164.288 85.1168 164.288 84.8295V75.0854H166.558C167.118 75.0977 167.558 75.2688 167.878 75.5959C168.196 75.9229 168.352 76.3661 168.337 76.9254V77.1027H168.551V74.0126C168.459 74.0524 168.297 74.0951 168.062 74.141C167.826 74.1868 167.567 74.2266 167.279 74.2571H167.283Z" fill="#E4D7C6"/>
<path d="M184.058 77.6529C183.724 76.8979 183.251 76.25 182.64 75.7151C182.026 75.1802 181.295 74.7737 180.449 74.4925C179.599 74.2113 178.655 74.0707 177.613 74.0707C176.571 74.0707 175.646 74.2113 174.796 74.4925C173.95 74.7737 173.219 75.1802 172.605 75.7151C171.991 76.25 171.524 76.8949 171.197 77.6529C170.87 78.4109 170.708 79.2637 170.708 80.2173C170.708 81.1709 170.87 82.0023 171.197 82.7511C171.524 83.4999 171.991 84.1448 172.605 84.6797C173.219 85.2146 173.95 85.6211 174.796 85.9023C175.643 86.1835 176.584 86.3241 177.613 86.3241C178.643 86.3241 179.603 86.1835 180.449 85.9023C181.295 85.6211 182.026 85.2146 182.64 84.6797C183.254 84.1448 183.724 83.503 184.058 82.7511C184.391 82.0023 184.556 81.1556 184.556 80.2173C184.556 79.2789 184.391 78.4109 184.058 77.6529ZM181.063 83.0537C180.742 83.8484 180.287 84.4658 179.694 84.9029C179.101 85.3399 178.408 85.5569 177.61 85.5569C176.813 85.5569 176.144 85.3399 175.557 84.9029C174.97 84.4658 174.512 83.8484 174.188 83.0537C173.861 82.259 173.699 81.3115 173.699 80.2173C173.699 79.1231 173.861 78.1542 174.188 77.3503C174.515 76.5495 174.97 75.929 175.557 75.492C176.144 75.0549 176.828 74.8379 177.61 74.8379C178.393 74.8379 179.101 75.0579 179.694 75.492C180.287 75.929 180.745 76.5495 181.063 77.3503C181.381 78.1542 181.543 79.1078 181.543 80.2173C181.543 81.3268 181.384 82.259 181.063 83.0537Z" fill="#E4D7C6"/>
<path d="M4.33889 119.025V120.838H2.52694V119.025H4.33889ZM4.42444 118.94H2.44444V120.92H4.42444V118.94Z" fill="#E4D7C6"/>
<path d="M4.51679 120.052L6.76679 123.682H6.83497L9.08497 120.052H10.3293L7.58497 124.415L10.3293 128.779H9.08497L6.83497 125.216H6.76679L4.51679 128.779H3.27247L6.08497 124.415L3.27247 120.052H4.51679Z" fill="#E4D7C6"/>
<path d="M31.1606 73.8659C31.5119 73.8659 31.6342 74.2052 31.6494 74.4283C31.6647 74.6361 31.5089 75.0274 31.1881 75.0274H6.80472C6.52666 75.0274 6.39222 74.6086 6.4075 74.4252C6.42583 74.2174 6.58777 73.8659 6.89639 73.8659H31.1606Z" fill="#E4D7C6"/>
<path d="M28.2578 84.5972L9.83583 84.5911C9.54249 84.5911 9.29805 84.2793 9.29805 84.0073V77.9371C9.29805 77.494 9.67388 77.3289 10.0589 77.3289H28.0164C28.4472 77.3289 28.7619 77.5918 28.7619 78.038V83.9553C28.7619 84.2641 28.5755 84.4872 28.2608 84.5941L28.2578 84.5972ZM20.3836 83.4174C20.7319 83.4174 20.9978 83.0965 20.9978 82.7725L20.9917 79.8108C20.9917 79.1444 20.4967 78.6401 19.8611 78.527C19.3386 78.4323 18.81 78.4231 18.2967 78.5576C17.7314 78.7074 17.3342 79.1842 17.3342 79.7802V82.7939C17.3342 83.1148 17.5328 83.4174 17.8689 83.4174H20.3867H20.3836ZM14.3183 83.0384C14.5964 83.0384 14.8256 82.8031 14.8256 82.531V79.3767C14.8225 79.0314 14.5689 78.7991 14.245 78.7991H12.8853C12.5675 78.796 12.3017 79.0253 12.3047 79.3553L12.3139 82.528C12.3139 82.8458 12.595 83.0476 12.8822 83.0476L14.3183 83.0384ZM25.2083 83.0384C25.4772 83.0384 25.685 82.8092 25.685 82.5494V79.3492C25.6819 79.0283 25.4497 78.7991 25.138 78.7991H23.6836C23.3811 78.7991 23.1458 79.0375 23.1458 79.3462L23.158 82.5647C23.158 82.8611 23.4147 83.0476 23.6775 83.0476L25.2114 83.0384H25.2083Z" fill="#E4D7C6"/>
<path d="M9.67083 71.5613C9.44167 71.5613 9.35611 71.4146 9.39278 71.2373C9.63722 70.0606 10.1506 69.0122 10.8625 68.0433C12.8425 65.3506 15.9989 64.1157 19.305 64.183C21.0742 64.2197 22.7883 64.669 24.3222 65.534C26.5161 66.7718 28.105 68.835 28.6672 71.2801C28.7069 71.4482 28.5878 71.5552 28.4289 71.5552H9.67083V71.5613Z" fill="#E4D7C6"/>
<path d="M21.4592 63.0429L16.4206 63.0368C16.3319 62.774 16.39 62.5264 16.3686 62.2727C16.3533 62.0801 16.4144 61.9548 16.6008 61.9151C16.8819 61.854 17.9697 61.6889 17.9667 61.4016C16.8789 60.9248 16.2983 59.9253 16.3839 58.7608C16.4756 57.4832 17.4717 56.4287 18.7672 56.2973C19.7908 56.1934 20.7442 56.7252 21.2636 57.5351C21.8258 58.4154 21.835 59.5402 21.2819 60.4113C20.9764 60.8912 20.5394 61.1938 20.0169 61.4536C20.1728 61.5911 20.3592 61.6736 20.5578 61.7164L21.5081 61.9304C21.6028 61.9518 21.67 62.0251 21.67 62.129V62.8565C21.6669 62.9757 21.6119 63.0429 21.4592 63.0429Z" fill="#E4D7C6"/>
<path d="M31.0903 117.088H7.10416C6.80166 117.088 6.50833 116.926 6.50833 116.678V114.132C6.50833 113.936 6.71916 113.698 6.99416 113.698H31.1331C31.4569 113.698 31.6953 113.884 31.6953 114.138V116.595C31.6953 116.858 31.4753 117.088 31.0903 117.088Z" fill="#E4D7C6"/>
<path d="M30.9375 88.0724H6.9361C6.4411 88.0694 6.35555 87.3358 6.59999 87.0821C6.70083 86.9751 6.8536 86.9018 7.08277 86.9018H31.0872C31.463 86.9049 31.5975 87.2533 31.5944 87.4856C31.5883 87.8249 31.3683 88.0724 30.9405 88.0724H30.9375Z" fill="#E4D7C6"/>
<path d="M21.1444 112.555H16.7475C16.4297 112.472 16.1669 112.228 16.1669 111.867V101.231C16.2097 100.882 16.4419 100.598 16.7994 100.598L21.0681 100.589C21.4806 100.647 21.7281 100.916 21.7281 101.328L21.7372 111.916C21.7128 112.264 21.505 112.497 21.1475 112.558L21.1444 112.555Z" fill="#E4D7C6"/>
<path d="M20.4478 98.3239C20.4478 99.1522 19.7756 99.8215 18.9506 99.8215C18.1256 99.8215 17.4533 99.1491 17.4533 98.3239C17.4533 97.4986 18.3028 94.4635 18.9506 94.4635C19.5983 94.4635 20.4478 97.4956 20.4478 98.3239Z" fill="#E4D7C6"/>
<path d="M11.3575 112.433C10.8869 112.368 10.505 112.093 10.175 111.794C9.72278 111.381 9.29805 110.972 8.88555 110.519C8.67167 110.284 8.49444 109.984 8.4975 109.663C8.4975 108.945 9.28278 108.484 9.99778 108.413C10.6211 108.349 11.2017 108.679 11.5928 109.171C12.0878 109.798 12.6775 110.913 12.4728 111.711C12.3414 112.222 11.9014 112.506 11.3575 112.433Z" fill="#E4D7C6"/>
<path d="M15.8889 92.3087C15.3022 92.9872 14.5292 93.4641 13.64 93.4916C13.1939 93.5068 12.8119 93.189 12.6622 92.7825C12.2956 91.786 13.3894 90.9119 14.1839 90.6337C14.795 90.4198 15.4611 90.4412 15.9806 90.808C16.2433 90.9914 16.3411 91.2664 16.2892 91.5751C16.2433 91.8594 16.0844 92.0764 15.8828 92.3087H15.8889Z" fill="#E4D7C6"/>
<path d="M11.5439 100.084C11.3392 100.43 10.7922 100.937 10.3308 100.793C10.0681 100.711 9.82972 100.503 9.70444 100.28C9.31333 99.5862 9.50278 98.8251 9.90306 98.1955C10.3461 97.5017 10.8472 96.6856 11.7944 96.8292C12.1581 96.8843 12.3689 97.2785 12.32 97.6575C12.2039 98.5164 11.9839 99.3478 11.5469 100.087L11.5439 100.084Z" fill="#E4D7C6"/>
<path d="M11.8647 94.9984C11.8708 95.1084 11.8097 95.3224 11.7761 95.4263C11.5133 96.1782 10.7953 96.7926 10.01 96.4441C9.29805 96.1293 8.9375 95.1726 8.89167 94.3963C8.85805 93.8278 9.24 93.2868 9.79611 93.1645C10.7158 92.9628 11.5164 93.5619 11.7792 94.329C11.8647 94.5858 11.8556 94.7355 11.8678 94.9984H11.8647Z" fill="#E4D7C6"/>
<path d="M27.4633 104.4C26.7606 104.535 26.2808 103.932 26.1647 103.443C25.9172 102.423 26.6139 101.053 27.5183 100.714C27.9308 100.561 28.5358 100.708 28.6642 101.172C28.9453 102.209 28.5297 104.195 27.4633 104.397V104.4Z" fill="#E4D7C6"/>
<path d="M29.0217 108.713C28.2608 109.171 27.4756 108.615 27.1669 107.995C26.8583 107.374 26.9317 106.512 27.4817 106.13C27.8667 105.861 28.2669 105.779 28.7008 105.919C29.2997 106.109 29.6878 106.604 29.7367 107.249C29.7794 107.823 29.5197 108.413 29.0217 108.716V108.713Z" fill="#E4D7C6"/>
<path d="M25.9844 100.042C25.5933 99.7726 25.3244 99.3844 25.3214 98.9046C25.3183 98.3941 25.6819 97.9815 26.1433 97.7767C26.7728 97.4986 27.5397 97.5444 27.8758 98.2658C28.1692 98.8924 27.9981 99.6106 27.4389 100.045C27.0203 100.369 26.4397 100.353 25.9844 100.045V100.042Z" fill="#E4D7C6"/>
<path d="M23.6378 93.0881C22.7517 93.2226 21.7922 92.2292 21.8503 91.6118C21.9022 91.0372 22.385 90.6032 22.9533 90.5573C23.1306 90.5421 23.3169 90.5176 23.4911 90.5573C24.0167 90.6735 24.4689 91.0831 24.6156 91.5843C24.8294 92.3118 24.3894 92.975 23.6378 93.0881Z" fill="#E4D7C6"/>
<path d="M28.2639 110.654C27.9644 111.351 27.3808 111.849 26.6169 111.494C26.3847 111.387 26.2411 111.256 26.0639 111.075C25.5781 110.574 25.5658 109.801 26.1464 109.342C26.7392 108.872 27.8178 108.847 28.2272 109.529C28.4533 109.908 28.4289 110.269 28.2639 110.654Z" fill="#E4D7C6"/>
<path d="M27.3747 90.4657C26.8064 90.7958 26.1831 90.863 25.5353 90.8447C24.8294 90.8263 24.1694 90.5298 23.6744 90.0377C23.5522 89.9185 23.5217 89.7718 23.5644 89.6221C23.6836 89.2094 25.7186 89.292 26.1311 89.3164C26.5039 89.3378 27.7811 89.3989 27.7597 89.9522C27.7506 90.1783 27.5764 90.3495 27.3778 90.4657H27.3747Z" fill="#E4D7C6"/>
<path d="M10.8656 90.1967C10.7861 90.9333 10.2636 91.5507 9.54556 91.6913C9.18195 91.7646 8.81222 91.6393 8.57695 91.3918C8.32945 91.135 8.1675 90.7835 8.24389 90.3984C8.44861 89.35 9.67695 89.0749 10.45 89.4356C10.7556 89.5762 10.9022 89.833 10.8656 90.1967Z" fill="#E4D7C6"/>
<path d="M29.8589 112.145C29.8131 112.237 29.7244 112.298 29.6542 112.374C29.4586 112.585 29.1928 112.634 28.8964 112.552C28.4839 112.436 28.3831 111.83 28.435 111.396C28.4992 110.874 28.5786 110.379 28.7803 109.89C28.9056 109.587 29.2844 108.759 29.6389 108.789C30.0636 108.826 30.0422 109.673 30.0667 109.954C30.1156 110.538 30.1094 111.635 29.8558 112.148L29.8589 112.145Z" fill="#E4D7C6"/>
<path d="M29.3822 96.3219C29.5992 96.8812 29.1714 97.5261 28.7039 97.6881C28.2975 97.8287 27.9064 97.7462 27.6192 97.5169C26.8064 96.869 26.8553 95.6586 27.4694 95.301C27.7139 95.1604 28.1417 95.1421 28.3464 95.3193L28.8444 95.7503C29.0339 95.9153 29.2844 96.0682 29.3822 96.3219Z" fill="#E4D7C6"/>
<path d="M12.1061 91.4896C11.8128 91.6271 11.4675 91.6454 11.2108 91.4529C10.6761 91.0525 11.4614 89.7871 12.2039 89.4264C12.6714 89.2003 13.2825 89.2369 13.7286 89.4753C14.0189 89.6312 13.97 90.0744 13.7592 90.3037C13.3039 90.8049 12.7264 91.1961 12.1092 91.4865L12.1061 91.4896Z" fill="#E4D7C6"/>
<path d="M10.1689 107.509C9.56083 107.542 9.11778 106.549 9.27972 105.837C9.36222 105.473 9.66472 105.158 9.99167 105.027C10.4592 104.837 10.9175 104.981 11.1986 105.381C11.4797 105.782 11.4431 106.292 11.2231 106.726C11.0031 107.16 10.6669 107.478 10.1689 107.509Z" fill="#E4D7C6"/>
<path d="M19.2439 91.8533C18.8039 92.0336 18.3486 91.7555 18.1133 91.404C17.8628 91.0311 17.7772 90.5268 17.9483 90.0958C18.1194 89.6649 18.645 89.3898 19.085 89.512C19.5953 89.6557 19.9314 90.0958 19.9742 90.6246C20.0139 91.1014 19.7267 91.6546 19.2439 91.8533Z" fill="#E4D7C6"/>
<path d="M29.9628 103.581C29.9628 104.091 29.9506 105.601 29.3364 105.757C29.095 105.818 28.8536 105.711 28.7253 105.507C28.2119 104.678 28.8383 103.028 29.3058 102.258C29.3517 102.181 29.4556 102.129 29.5136 102.111C29.9414 101.976 29.9628 103.336 29.9628 103.581Z" fill="#E4D7C6"/>
<path d="M9.39889 103.416C9.185 103.447 8.87639 103.336 8.73889 103.174C8.33861 102.704 8.3325 102.025 8.64111 101.512C8.88861 101.102 9.34695 100.934 9.8175 101.093C10.34 101.27 10.56 101.982 10.3247 102.618C10.175 103.019 9.89083 103.343 9.39889 103.416Z" fill="#E4D7C6"/>
<path d="M25.74 97.5108C25.3978 97.465 25.1228 97.4283 25.0739 96.7406C25.025 96.0529 25.2786 95.4569 25.7156 94.9587C25.7828 94.8823 25.8592 94.8272 25.9478 94.8242C26.2992 94.815 27.0264 95.9581 26.7422 97.0615C26.6872 97.2755 26.5283 97.4069 26.3389 97.4803C26.2625 97.5108 25.8928 97.5567 25.74 97.5108Z" fill="#E4D7C6"/>
<path d="M11.9747 104.382C11.7822 104.642 11.4492 104.779 11.1528 104.684C10.5692 104.498 10.3156 103.871 10.4103 103.294C10.4744 102.893 10.6486 102.533 11.0428 102.368C11.2108 102.297 11.5072 102.27 11.6753 102.389C12.3169 102.832 12.4483 103.752 11.9747 104.385V104.382Z" fill="#E4D7C6"/>
<path d="M13.7378 94.1181C13.9883 94.8486 12.9769 96.7314 12.3444 96.3952C11.8464 96.1293 11.9717 94.2648 12.8792 93.8522C13.1969 93.7086 13.6186 93.7666 13.7378 94.1181Z" fill="#E4D7C6"/>
<path d="M26.4581 106.616C26.1158 106.735 25.7828 106.57 25.5658 106.317C25.1075 105.776 25.2603 104.975 25.8683 104.596C26.1342 104.431 26.4794 104.495 26.7575 104.66C26.9928 104.797 27.1425 105.06 27.1853 105.387C27.2525 105.904 26.9897 106.433 26.4581 106.619V106.616Z" fill="#E4D7C6"/>
<path d="M29.9261 90.7316C29.8344 91.1961 29.4433 91.4743 28.9819 91.3612C28.3708 91.2114 28.0469 90.594 28.1447 89.9827C28.215 89.5548 28.5542 89.292 28.985 89.2767C29.4128 89.2614 29.7367 89.4845 29.8925 89.8971C29.9872 90.1447 29.9811 90.4473 29.9261 90.7346V90.7316Z" fill="#E4D7C6"/>
<path d="M9.67084 97.3611C9.75639 97.8348 9.44473 98.7884 8.94056 98.7854C8.10639 98.7823 8.0025 96.1599 8.61361 96.0193C8.92528 95.9459 9.56695 96.7956 9.67084 97.3611Z" fill="#E4D7C6"/>
<path d="M29.535 100.806C29.2325 100.864 29.0431 100.913 28.7497 100.656C28.3464 100.375 28.3739 100.249 28.3036 99.9407C28.0806 98.9566 28.6917 98.0396 29.1194 98.1588C29.5472 98.278 29.6847 98.7946 29.7214 99.2011C29.7642 99.6932 29.8069 100.146 29.6633 100.619C29.6358 100.708 29.5961 100.793 29.535 100.806Z" fill="#E4D7C6"/>
<path d="M17.5267 90.2517C16.9461 90.9914 15.3511 90.05 15.0792 89.729C14.9814 89.6129 15.0792 89.4295 15.2319 89.3837C15.7697 89.2217 17.1356 89.1972 17.5756 89.6618C17.6122 89.8421 17.6611 90.0805 17.5267 90.2517Z" fill="#E4D7C6"/>
<path d="M11.6111 93.2165C11.1436 93.2348 10.3339 92.755 10.2392 92.1834C10.2208 92.0703 10.2881 91.8441 10.3858 91.786C10.6944 91.5935 11.0397 91.6516 11.3789 91.7402C11.8739 91.8716 12.2253 92.4004 12.0969 92.9108C12.0481 93.1034 11.825 93.2043 11.6111 93.2134V93.2165Z" fill="#E4D7C6"/>
<path d="M9.69222 112.442C9.4325 112.812 8.80917 112.702 8.195 112.374C7.89556 112.216 7.95056 111.778 8.02083 111.36C8.06972 111.075 8.36611 110.91 8.635 111.017C9.18806 111.241 9.71056 111.806 9.735 112.286C9.73806 112.341 9.72278 112.396 9.69222 112.442Z" fill="#E4D7C6"/>
<path d="M25.7706 111.271C26.1433 111.506 26.785 111.885 26.5742 112.374C26.4153 112.741 25.5231 112.778 24.9394 112.191C24.6675 111.916 24.6858 111.39 25.0342 111.167C25.2572 111.024 25.575 111.149 25.7706 111.271Z" fill="#E4D7C6"/>
<path d="M26.5925 108.511C26.5039 108.777 26.2992 108.933 26.0822 108.951C25.8317 108.973 25.6392 108.856 25.4681 108.636C25.1381 108.215 25.2481 107.243 25.7858 107.13C26.0089 107.081 26.2472 107.142 26.3969 107.344C26.6353 107.661 26.7208 108.117 26.5925 108.508V108.511Z" fill="#E4D7C6"/>
<path d="M21.2361 92.431C20.9642 92.7274 20.5792 92.7458 20.2736 92.5868C19.9681 92.4279 19.8061 92.0978 19.8703 91.7402C19.9497 91.3031 20.3164 91.0097 20.7747 91.0892C21.0467 91.135 21.2453 91.3795 21.3278 91.5782C21.4469 91.8625 21.4347 92.2078 21.2331 92.431H21.2361Z" fill="#E4D7C6"/>
<path d="M9.49666 104.984C9.24916 105.167 8.77861 105.586 8.51277 105.198C8.19805 104.736 8.57389 103.932 8.9925 103.719C9.27055 103.575 9.71055 103.572 9.86639 103.884C10.065 104.278 9.82055 104.742 9.49972 104.984H9.49666Z" fill="#E4D7C6"/>
<path d="M21.6822 89.7627C21.7953 90.16 21.3644 90.6032 20.8969 90.6032C20.4294 90.6032 20.0475 90.1325 19.9956 89.7229C19.965 89.4845 20.1056 89.3409 20.3286 89.2858C20.7992 89.1697 21.5325 89.2339 21.6822 89.7657V89.7627Z" fill="#E4D7C6"/>
<path d="M9.35 107.545C9.32861 107.885 9.17278 108.083 8.90084 108.16C8.63806 108.23 8.39056 108.105 8.25 107.848C7.92306 107.243 8.195 106.262 8.65028 106.341C9.09945 106.42 9.36834 107.261 9.35306 107.548L9.35 107.545Z" fill="#E4D7C6"/>
<path d="M25.1717 94.7264C24.6828 95.1146 23.4514 94.2373 23.6683 93.5802C23.7478 93.3326 24.0717 93.2684 24.3314 93.3326C25.0769 93.5191 25.4314 94.5216 25.1747 94.7264H25.1717Z" fill="#E4D7C6"/>
<path d="M17.7161 92.272C17.6183 92.5532 17.3861 92.6847 17.1203 92.6327C16.7719 92.5624 16.4908 92.2353 16.5092 91.8747C16.5275 91.569 16.6314 91.2634 16.8239 91.0433C16.9583 90.8905 17.1783 90.915 17.3189 91.0433C17.6489 91.3398 17.8658 91.835 17.7131 92.272H17.7161Z" fill="#E4D7C6"/>
<path d="M8.58916 93.5252C8.46389 93.5894 8.23472 93.5741 8.15527 93.4549C8.00861 93.2348 8.08805 92.9628 8.19805 92.7488C8.44555 92.269 8.80611 91.8961 9.38055 92.0734C9.52111 92.1161 9.60361 92.2445 9.62805 92.3362C9.75944 92.8069 8.98639 93.3235 8.58916 93.5252Z" fill="#E4D7C6"/>
<path d="M12.1244 108.566C11.9931 108.725 11.7822 108.823 11.6233 108.691C11.0428 108.202 11.6844 106.696 12.0053 106.61C12.2558 106.543 12.3597 107.402 12.3842 107.585C12.43 107.921 12.3506 108.294 12.1275 108.566H12.1244Z" fill="#E4D7C6"/>
<path d="M9.20333 100.598C9.13917 100.797 8.94056 100.904 8.79083 100.904C8.07583 100.913 8.07889 99.4975 8.45167 99.2286C8.7725 98.9963 9.46917 99.7543 9.20333 100.598Z" fill="#E4D7C6"/>
<path d="M25.7125 102.004C25.2847 101.842 25.2908 100.298 25.6942 100.262C25.8928 100.243 26.1617 100.427 26.2686 100.613C26.565 101.127 26.2686 101.772 25.7125 102.007V102.004Z" fill="#E4D7C6"/>
<path d="M11.1192 101.79C10.9664 101.735 10.8564 101.613 10.8533 101.515C10.8472 101.148 11.2933 100.812 11.5806 100.806C11.7822 100.8 11.9319 100.882 12.0175 101.035C12.1122 101.203 12.0725 101.399 11.9289 101.548C11.7303 101.756 11.4186 101.9 11.1222 101.79H11.1192Z" fill="#E4D7C6"/>
<path d="M29.4342 92.9108C29.1072 93.0239 28.8506 92.6755 28.8231 92.3821C28.8078 92.2109 28.8231 92.0397 28.9361 91.9358C29.0583 91.8288 29.2447 91.8044 29.4158 91.8808C29.6083 91.9664 29.7183 92.1834 29.7183 92.3729C29.7183 92.5624 29.6664 92.8283 29.4311 92.9078L29.4342 92.9108Z" fill="#E4D7C6"/>
<path d="M22.7211 90.0866C22.4889 90.1997 22.2383 90.1692 22.0825 89.9949C21.9419 89.836 21.8686 89.5762 22.055 89.3898C22.2414 89.2033 22.5744 89.2675 22.7731 89.4203C22.8922 89.512 22.9594 89.6159 22.9533 89.7443C22.9472 89.891 22.8831 90.0102 22.7211 90.0897V90.0866Z" fill="#E4D7C6"/>
<path d="M29.4739 95.515C29.0217 95.6494 28.6886 95.3346 28.5328 94.974C28.3586 94.5674 28.3922 94.1976 28.6367 93.8369C28.8414 93.5374 29.0461 93.2348 29.4189 93.1126C29.4892 93.0912 29.5869 93.1003 29.645 93.1431C29.6878 93.1737 29.7458 93.2593 29.7519 93.3479C29.7764 93.6688 29.8558 95.4049 29.4739 95.518V95.515Z" fill="#E4D7C6"/>
<path d="M27.7536 94.3718C26.5039 94.9709 25.135 93.8094 25.0372 92.758C24.9975 92.327 25.0892 91.9114 25.4069 91.6027C25.8744 91.1472 26.5833 91.028 27.2189 91.2053C27.7353 91.349 28.0928 91.7402 28.3556 92.1956C28.7956 92.9628 28.6031 93.9653 27.7506 94.3718H27.7536Z" fill="#E4D7C6"/>
</svg>
