<svg width="315" height="112" viewBox="0 0 315 112" fill="none" xmlns="http://www.w3.org/2000/svg">
<path d="M82.1144 69.1869C83.7521 69.1869 85.3318 69.8522 85.3318 71.7374C85.3318 72.8727 84.6503 74.1506 83.1182 74.3037C83.6888 74.4885 84.1959 75.0271 84.4971 75.5024C84.5393 75.5658 85.3476 76.8542 85.8601 77.4879C86.4412 78.2324 86.8269 78.5017 87.5348 78.5123V78.6496H86.2193C84.7401 78.6496 83.6623 78.3275 83.0442 77.2502C82.7167 76.6799 82.1038 75.3387 81.9189 74.9321C81.6548 74.3671 81.3536 74.0819 81.005 74.0186V73.8918H81.417C82.1461 73.8813 82.8857 73.5116 83.1235 72.3288C83.1552 72.1651 83.1869 71.9486 83.1763 71.674C83.1235 70.3803 82.4684 69.8047 81.5808 69.7836C81.2216 69.7677 80.725 69.7836 80.5559 69.7836V77.6674C80.5665 78.1374 80.9468 78.5176 81.4223 78.5176H81.5914V78.6549H77.4812V78.5176H77.6555C78.1257 78.5176 78.5114 78.1426 78.5219 77.6727V70.1743C78.5114 69.7044 78.131 69.3242 77.6555 69.3242H77.4812V69.1921H82.1197L82.1144 69.1869Z" fill="#E4D7C6"/>
<path d="M103.643 78.6496H96.6428V78.5123H96.8171C97.2926 78.5123 97.673 78.1321 97.6835 77.6621V70.1268C97.6518 69.678 97.2767 69.3189 96.8171 69.3189H96.6481V69.1869H101.831C102.412 69.1869 103.194 69.0443 103.447 68.9387V71.3044H103.31V71.1407C103.31 70.3275 102.798 69.7941 101.989 69.7624H99.7122V73.6964H101.503C102.169 73.6859 102.65 73.1948 102.65 72.54V72.4238H102.782V75.5446H102.65V75.4285C102.65 74.7737 102.174 74.2931 101.519 74.272H99.7069V78.074H101.482C102.835 78.074 103.712 77.2344 104.129 75.8931H104.266L103.643 78.6496Z" fill="#E4D7C6"/>
<path d="M119.851 73.8021C120.654 74.3248 121.124 75.0324 121.066 76.0463C120.982 77.8047 119.656 78.845 117.495 78.845C116.28 78.845 115.144 78.5334 114.653 78.0265C114.431 77.4615 114.621 76.3209 114.975 75.7294H115.091C114.986 77.1393 116.021 78.3011 117.643 78.2747C118.821 78.2535 119.513 77.604 119.513 76.7539C119.513 76.2047 119.159 75.8403 118.43 75.3598L116.074 73.7968C115.144 73.1789 114.679 72.3552 114.779 71.373C114.896 69.9737 115.921 69.0073 117.627 69.0073C118.06 69.0073 118.853 69.0654 119.471 69.1446H120.321L120.142 71.1301H120.01C120.01 70.1902 119.249 69.5723 118.103 69.5723C117.041 69.5723 116.364 70.1479 116.333 70.8713C116.301 71.4047 116.708 71.7585 117.273 72.1281L119.851 73.8021Z" fill="#E4D7C6"/>
<path d="M135.552 78.6496H131.442V78.5123H131.617C132.092 78.5123 132.472 78.1321 132.483 77.6621V70.1638C132.472 69.6938 132.087 69.3189 131.617 69.3189H131.447V69.1816H135.552V69.3189H135.378C134.908 69.3189 134.527 69.6938 134.512 70.1585V77.6568C134.522 78.1268 134.903 78.507 135.378 78.507H135.547V78.6443L135.552 78.6496Z" fill="#E4D7C6"/>
<path d="M150.836 69.1921C154.033 69.1921 156.019 71.0034 156.019 73.9288C156.019 76.8542 154.027 78.6549 150.836 78.6549H145.928V78.5176H146.103C146.573 78.5176 146.959 78.1374 146.969 77.6674V70.0951C146.969 69.6621 146.557 69.3189 146.108 69.3189H145.939V69.1869H150.836V69.1921ZM149.003 78.0793H150.678C152.617 78.0793 153.821 76.4898 153.821 73.9288C153.821 71.3677 152.611 69.7624 150.678 69.7624H149.003V78.0793Z" fill="#E4D7C6"/>
<path d="M173.131 78.6496H166.131V78.5123H166.305C166.781 78.5123 167.161 78.1321 167.171 77.6621V70.1268C167.14 69.678 166.765 69.3189 166.305 69.3189H166.136V69.1869H171.319C171.9 69.1869 172.682 69.0443 172.935 68.9387V71.3044H172.798V71.1407C172.798 70.3275 172.285 69.7941 171.477 69.7624H169.2V73.6964H170.991C171.657 73.6859 172.138 73.1948 172.138 72.54V72.4238H172.27V75.5446H172.138V75.4285C172.138 74.7737 171.662 74.2931 171.007 74.272H169.195V78.074H170.97C172.322 78.074 173.199 77.2344 173.617 75.8931H173.754L173.131 78.6496Z" fill="#E4D7C6"/>
<path d="M194.612 69.1869V69.3242H194.358C193.904 69.3242 193.539 69.6832 193.523 70.1321V77.1182C193.523 78.1374 193.682 78.845 193.682 78.845H193.56L186.729 72.3394V77.7044C186.74 78.1585 187.11 78.5176 187.564 78.5176H187.812V78.6549H183.713V78.5176H183.966C184.421 78.5176 184.79 78.1532 184.801 77.6991V70.676C184.801 69.6727 184.642 68.9862 184.642 68.9862H184.775L191.595 75.4865V70.1426C191.584 69.6885 191.215 69.3242 190.76 69.3242H190.512V69.1869H194.612Z" fill="#E4D7C6"/>
<path d="M213.81 74.705L213.942 77.0337C213.335 78.0318 212.183 78.8397 210.144 78.8397C206.821 78.8239 204.66 76.9915 204.66 73.9077C204.66 70.8238 206.752 69.002 210.186 69.002C211.628 69.002 212.78 69.3347 213.546 69.736L213.572 72.0542H213.462C212.97 70.2799 211.808 69.5723 210.318 69.5723C208.173 69.5723 206.863 71.2251 206.863 73.8813C206.863 76.5374 208.131 78.2219 210.144 78.2747C212.225 78.2747 213.282 77.3664 213.699 74.7103H213.81V74.705Z" fill="#E4D7C6"/>
<path d="M228.497 78.6496H224.387V78.5123H224.561C225.037 78.5123 225.417 78.1321 225.428 77.6621V70.1638C225.417 69.6938 225.031 69.3189 224.561 69.3189H224.392V69.1816H228.497V69.3189H228.323C227.853 69.3189 227.472 69.6938 227.456 70.1585V77.6568C227.467 78.1268 227.847 78.507 228.323 78.507H228.492V78.6443L228.497 78.6496Z" fill="#E4D7C6"/>
<path d="M247.046 77.7308C247.336 78.2852 247.801 78.5123 248.198 78.5123H248.308V78.6496H243.998V78.5176H244.119C244.468 78.5176 244.848 78.2113 244.642 77.6674L243.976 75.9988H240.801L240.109 77.6674C239.887 78.2113 240.278 78.5176 240.627 78.5176H240.748V78.6496H237.848V78.5123H237.97C238.355 78.5123 238.82 78.2852 239.105 77.7519L242.233 70.6865C242.328 70.4806 242.867 69.3083 242.899 68.9176H243.02L247.041 77.7308H247.046ZM243.755 75.4284L242.434 72.107L241.05 75.4284H243.76H243.755Z" fill="#E4D7C6"/>
<path d="M264.749 78.6496H257.749V78.5123H257.924C258.399 78.5123 258.779 78.1321 258.79 77.6621V70.169C258.779 69.6991 258.399 69.3189 257.924 69.3189H257.755V69.1816H261.86V69.3189H261.685C261.21 69.3189 260.829 69.6991 260.819 70.169V78.0687H262.594C263.946 78.0687 264.823 77.2291 265.241 75.8879H265.378L264.755 78.6443L264.749 78.6496Z" fill="#E4D7C6"/>
<path d="M282.268 78.6496H275.268V78.5123H275.442C275.918 78.5123 276.298 78.1321 276.309 77.6621V70.1268C276.277 69.678 275.902 69.3189 275.442 69.3189H275.273V69.1869H280.456C281.037 69.1869 281.819 69.0443 282.072 68.9387V71.3044H281.935V71.1407C281.935 70.3275 281.423 69.7941 280.614 69.7624H278.337V73.6964H280.128C280.794 73.6859 281.275 73.1948 281.275 72.54V72.4238H281.407V75.5446H281.275V75.4285C281.275 74.7737 280.799 74.2931 280.144 74.272H278.332V78.074H280.107C281.46 78.074 282.337 77.2344 282.754 75.8931H282.891L282.268 78.6496Z" fill="#E4D7C6"/>
<path d="M298.476 73.8021C299.279 74.3248 299.75 75.0324 299.691 76.0463C299.607 77.8047 298.281 78.845 296.12 78.845C294.91 78.845 293.769 78.5334 293.278 78.0265C293.056 77.4615 293.246 76.3209 293.6 75.7294H293.722C293.611 77.1393 294.651 78.3011 296.273 78.2747C297.451 78.2535 298.143 77.604 298.143 76.7539C298.143 76.2047 297.789 75.8403 297.06 75.3598L294.704 73.7968C293.774 73.1789 293.309 72.3552 293.41 71.373C293.526 69.9737 294.551 69.0073 296.257 69.0073C296.691 69.0073 297.483 69.0654 298.101 69.1446H298.952L298.772 71.1301H298.64C298.64 70.1902 297.879 69.5723 296.733 69.5723C295.666 69.5723 294.995 70.1479 294.963 70.8713C294.931 71.4047 295.338 71.7585 295.903 72.1281L298.482 73.8021H298.476Z" fill="#E4D7C6"/>
<path d="M62.4034 59.2119H314.769V59.5604C314.769 61.2555 313.39 62.6337 311.694 62.6337H65.4781C63.7822 62.6337 62.4034 61.2555 62.4034 59.5604V59.2119Z" fill="#E4D7C6"/>
<path d="M84.925 41.5802C84.5657 43.7875 84.0163 45.5459 83.2872 46.8555C82.5529 48.165 81.5914 49.0997 80.3974 49.6594C79.2034 50.2244 77.7348 50.5043 76.0019 50.5043C74.3325 50.4568 72.8849 49.9868 71.654 49.0838C70.423 48.1809 69.4774 46.9188 68.8117 45.2977C68.146 43.6766 67.8132 41.7492 67.8132 39.5155C67.8132 37.2818 68.1619 35.3703 68.8592 33.7703C69.5566 32.1703 70.5498 30.9294 71.8336 30.0528C73.1174 29.1762 74.66 28.7326 76.4668 28.7326C78.2736 28.7326 79.9272 29.2132 81.3008 30.169C82.6744 31.1247 83.6676 32.7195 84.2752 34.9531H84.5816L84.5499 29.1709C83.5778 28.6534 82.3786 28.2152 80.9469 27.8508C79.5152 27.4917 77.8985 27.3122 76.0917 27.3122C73.2283 27.3122 70.7664 27.8086 68.7007 28.8013C66.6404 29.794 65.0555 31.2092 63.9513 33.0416C62.8471 34.8792 62.2924 37.06 62.2924 39.5841C62.2924 42.1082 62.8577 44.3842 63.983 46.2112C65.1083 48.0383 66.7038 49.4376 68.7694 50.4198C70.8298 51.402 73.2389 51.9037 75.9914 51.9248C77.6819 51.9248 79.1453 51.7188 80.3869 51.3017C81.6284 50.8845 82.6638 50.3353 83.4986 49.6594C84.3333 48.9835 84.999 48.2284 85.4956 47.3941L85.1891 41.5802H84.9197H84.925Z" fill="#E4D7C6"/>
<path d="M110.764 50.6944C110.268 50.4145 109.85 49.9234 109.512 49.2264L100.484 30.264H100.214C100.193 30.4911 100.103 30.8026 99.9447 31.1934C99.7862 31.5894 99.6171 32.0066 99.4375 32.4449C99.2579 32.8832 99.0888 33.2792 98.9303 33.6277C98.7718 33.9762 98.6715 34.2191 98.6239 34.3564L91.7031 49.2317H91.6926C91.3756 49.9287 90.9688 50.4198 90.4722 50.6997C89.9756 50.9796 89.5054 51.1221 89.051 51.1221H88.7816V51.4601H95.5439V51.1221H95.2745C94.8888 51.1221 94.5401 50.9584 94.2284 50.631C93.9167 50.3089 93.885 49.8548 94.1175 49.2634L95.4594 46.1531H102.607L104.018 49.4799C104.161 49.9657 104.108 50.3565 103.838 50.6363C103.521 50.9637 103.173 51.1274 102.792 51.1274H102.523V51.4654H112.466V51.1274H112.196C111.747 51.1274 111.272 50.9848 110.775 50.705L110.764 50.6944ZM96.0194 44.8277L99.0519 37.7835L102.037 44.8277H96.0194Z" fill="#E4D7C6"/>
<path d="M137.143 31.1723H130.174V31.5102H130.75C131.268 31.5102 131.701 31.6739 132.055 32.0013C132.404 32.3287 132.589 32.7406 132.615 33.2369V44.3419L117.093 30.7023H116.787C117.014 32.1228 117.125 33.4059 117.125 34.5571V49.3954C117.125 49.8918 116.946 50.3036 116.586 50.631C116.227 50.9584 115.783 51.1221 115.266 51.1221H114.727V51.4601H124.194V51.1221H123.618C123.121 51.1221 122.693 50.9584 122.334 50.631C121.975 50.3036 121.78 49.8918 121.758 49.3954V38.2323L137.28 51.8931H137.586C137.475 51.2383 137.391 50.6152 137.333 50.0185C137.275 49.4218 137.248 48.73 137.248 47.938V33.2317C137.248 32.7353 137.433 32.3234 137.808 31.996C138.178 31.6686 138.617 31.5049 139.108 31.5049H139.684V31.167H137.148L137.143 31.1723Z" fill="#E4D7C6"/>
<path d="M160.647 31.0508C160.15 31.1089 159.691 31.1353 159.263 31.1353H146.784C146.377 31.1353 145.934 31.1089 145.448 31.0508C144.962 30.9927 144.523 30.9188 144.127 30.829C143.731 30.7393 143.435 30.6706 143.229 30.6284V35.967H143.599V35.6607C143.599 34.6944 143.863 33.9234 144.391 33.3637C144.919 32.7987 145.68 32.5082 146.673 32.4818H150.562V49.3162C150.54 49.8126 150.35 50.235 150.002 50.5835C149.653 50.932 149.23 51.1063 148.734 51.1063H148.364V51.4443H157.699V51.1063H157.329C156.811 51.1063 156.368 50.932 156.008 50.5835C155.649 50.235 155.47 49.8126 155.47 49.3162V32.4818H159.395C160.362 32.503 161.122 32.7987 161.677 33.3637C162.227 33.9287 162.496 34.6944 162.47 35.6607V35.967H162.839V30.6284C162.681 30.697 162.401 30.7709 161.994 30.8501C161.587 30.9294 161.138 30.998 160.642 31.0508H160.647Z" fill="#E4D7C6"/>
<path d="M187.194 33.5696C186.132 32.6455 184.87 31.9432 183.406 31.4574C181.938 30.9716 180.305 30.7287 178.504 30.7287C176.702 30.7287 175.101 30.9716 173.633 31.4574C172.169 31.9432 170.907 32.6455 169.845 33.5696C168.783 34.4937 167.974 35.6079 167.409 36.9175C166.844 38.2271 166.564 39.7003 166.564 41.3479C166.564 42.9954 166.844 44.4317 167.409 45.7254C167.974 47.0191 168.783 48.1333 169.845 49.0574C170.907 49.9815 172.169 50.6838 173.633 51.1697C175.096 51.6555 176.723 51.8984 178.504 51.8984C180.284 51.8984 181.943 51.6555 183.406 51.1697C184.87 50.6838 186.132 49.9815 187.194 49.0574C188.256 48.1333 189.07 47.0244 189.646 45.7254C190.221 44.4317 190.507 42.969 190.507 41.3479C190.507 39.7267 190.221 38.2271 189.646 36.9175C189.07 35.6132 188.251 34.4937 187.194 33.5696ZM184.473 46.2482C183.919 47.6211 183.132 48.6878 182.107 49.4429C181.082 50.198 179.882 50.573 178.504 50.573C177.125 50.573 175.968 50.198 174.953 49.4429C173.939 48.6878 173.147 47.6211 172.587 46.2482C172.021 44.8753 171.741 43.2383 171.741 41.3479C171.741 39.4574 172.021 37.7835 172.587 36.3947C173.152 35.0112 173.939 33.9393 174.953 33.1841C175.968 32.429 177.151 32.0541 178.504 32.0541C179.856 32.0541 181.082 32.4343 182.107 33.1841C183.132 33.9393 183.924 35.0112 184.473 36.3947C185.023 37.7835 185.303 39.431 185.303 41.3479C185.303 43.2647 185.028 44.8753 184.473 46.2482Z" fill="#E4D7C6"/>
<path d="M207.455 40.7036L202.145 37.4244C201.717 37.1762 201.326 36.928 200.978 36.6799C200.629 36.4317 200.36 36.1465 200.164 35.8191C199.974 35.4917 199.9 35.1274 199.942 34.7208C199.99 33.934 200.344 33.3003 201.009 32.8251C201.675 32.3498 202.547 32.1175 203.63 32.1175C204.982 32.1175 206.018 32.4237 206.741 33.031C207.465 33.6383 207.825 34.462 207.825 35.497H208.131L208.569 31.3729C208.569 31.3729 208.559 31.3729 208.554 31.3676L208.569 31.035H206.71C206.451 31.0033 206.187 30.9769 205.901 30.9505C205.268 30.8924 204.634 30.8449 203.989 30.7973C203.344 30.7551 202.8 30.7287 202.346 30.7287C201.221 30.7287 200.217 30.9294 199.335 31.336C198.452 31.7426 197.75 32.3287 197.221 33.0944C196.693 33.8601 196.371 34.7842 196.26 35.8667C196.123 37.0178 196.313 38.0739 196.82 39.0455C197.327 40.0172 198.146 40.7934 199.271 41.3795L204.074 44.4211C204.977 44.8964 205.621 45.3716 206.018 45.8574C206.414 46.3432 206.609 46.8871 206.609 47.4997C206.609 48.3129 206.282 49.0205 205.627 49.6277C204.972 50.235 203.989 50.5413 202.684 50.5413C201.49 50.5413 200.465 50.2878 199.604 49.7809C198.743 49.274 198.098 48.5927 197.66 47.7373C197.221 46.8819 197.037 45.9472 197.1 44.9333H196.83C196.561 45.3611 196.334 45.8944 196.154 46.5386C195.975 47.1829 195.874 47.8218 195.848 48.466C195.827 49.1102 195.906 49.6541 196.086 50.103C196.403 50.4409 196.857 50.7472 197.454 51.0165C198.051 51.2858 198.769 51.5023 199.599 51.6608C200.434 51.8192 201.337 51.8984 202.304 51.8984C203.883 51.8984 205.252 51.6555 206.414 51.1697C207.576 50.6838 208.49 49.9815 209.156 49.0574C209.821 48.1333 210.186 47.0403 210.255 45.7782C210.323 44.5637 210.096 43.5234 209.578 42.668C209.061 41.8125 208.348 41.1578 207.449 40.7089L207.455 40.7036Z" fill="#E4D7C6"/>
<path d="M235.122 50.6944C234.625 50.4145 234.208 49.9234 233.87 49.2264L224.841 30.264H224.572C224.551 30.4911 224.461 30.8026 224.302 31.1934C224.144 31.5894 223.975 32.0066 223.795 32.4449C223.616 32.8832 223.446 33.2792 223.288 33.6277C223.129 33.9762 223.029 34.2191 222.982 34.3564L216.061 49.2317H216.05C215.733 49.9287 215.326 50.4198 214.83 50.6997C214.333 50.9796 213.863 51.1221 213.409 51.1221H213.139V51.4601H219.902V51.1221H219.632C219.246 51.1221 218.898 50.9584 218.586 50.631C218.274 50.3089 218.243 49.8548 218.475 49.2634L219.817 46.1531H226.965L228.376 49.4799C228.518 49.9657 228.465 50.3565 228.196 50.6363C227.879 50.9637 227.53 51.1274 227.15 51.1274H226.88V51.4654H236.823V51.1274H236.554C236.105 51.1274 235.629 50.9848 235.133 50.705L235.122 50.6944ZM220.377 44.8277L223.409 37.7835L226.394 44.8277H220.377Z" fill="#E4D7C6"/>
<path d="M261.5 31.1723H254.532V31.5102H255.108C255.626 31.5102 256.059 31.6739 256.413 32.0013C256.761 32.3287 256.946 32.7406 256.973 33.2369V44.3419L241.451 30.7023H241.145C241.372 32.1228 241.483 33.4059 241.483 34.5571V49.3954C241.483 49.8918 241.303 50.3036 240.944 50.631C240.585 50.9584 240.141 51.1221 239.623 51.1221H239.084V51.4601H248.552V51.1221H247.976C247.479 51.1221 247.051 50.9584 246.692 50.631C246.333 50.3036 246.137 49.8918 246.116 49.3954V38.2323L261.638 51.8931H261.944C261.833 51.2383 261.749 50.6152 261.69 50.0185C261.632 49.4218 261.606 48.73 261.606 47.938V33.2317C261.606 32.7353 261.791 32.3234 262.166 31.996C262.536 31.6686 262.974 31.5049 263.466 31.5049H264.041V31.167H261.506L261.5 31.1723Z" fill="#E4D7C6"/>
<path d="M285.005 31.0508C284.508 31.1089 284.048 31.1353 283.62 31.1353H271.142C270.735 31.1353 270.291 31.1089 269.805 31.0508C269.319 30.9927 268.881 30.9188 268.484 30.829C268.088 30.7393 267.792 30.6706 267.586 30.6284V35.967H267.956V35.6607C267.956 34.6944 268.22 33.9234 268.749 33.3637C269.277 32.7987 270.038 32.5082 271.031 32.4818H274.919V49.3162C274.898 49.8126 274.708 50.235 274.359 50.5835C274.011 50.932 273.588 51.1063 273.091 51.1063H272.721V51.4443H282.057V51.1063H281.687C281.169 51.1063 280.725 50.932 280.366 50.5835C280.007 50.235 279.827 49.8126 279.827 49.3162V32.4818H283.752C284.719 32.503 285.48 32.7987 286.035 33.3637C286.584 33.9287 286.854 34.6944 286.827 35.6607V35.967H287.197V30.6284C287.039 30.697 286.759 30.7709 286.352 30.8501C285.945 30.9294 285.496 30.998 284.999 31.0508H285.005Z" fill="#E4D7C6"/>
<path d="M314.008 36.9175C313.433 35.6132 312.614 34.4937 311.557 33.5696C310.495 32.6455 309.233 31.9432 307.769 31.4574C306.301 30.9716 304.668 30.7287 302.867 30.7287C301.065 30.7287 299.464 30.9716 297.996 31.4574C296.532 31.9432 295.269 32.6455 294.208 33.5696C293.146 34.4937 292.337 35.6079 291.772 36.9175C291.207 38.2271 290.927 39.7003 290.927 41.3479C290.927 42.9954 291.207 44.4317 291.772 45.7254C292.337 47.0191 293.146 48.1333 294.208 49.0574C295.269 49.9815 296.532 50.6838 297.996 51.1697C299.459 51.6555 301.086 51.8984 302.867 51.8984C304.647 51.8984 306.306 51.6555 307.769 51.1697C309.233 50.6838 310.495 49.9815 311.557 49.0574C312.619 48.1333 313.433 47.0244 314.008 45.7254C314.584 44.4317 314.87 42.969 314.87 41.3479C314.87 39.7267 314.584 38.2271 314.008 36.9175ZM308.831 46.2482C308.276 47.6211 307.489 48.6878 306.464 49.4429C305.439 50.198 304.24 50.573 302.861 50.573C301.482 50.573 300.325 50.198 299.311 49.4429C298.297 48.6878 297.504 47.6211 296.944 46.2482C296.379 44.8753 296.099 43.2383 296.099 41.3479C296.099 39.4574 296.379 37.7835 296.944 36.3947C297.51 35.0112 298.297 33.9393 299.311 33.1841C300.325 32.429 301.509 32.0541 302.861 32.0541C304.214 32.0541 305.439 32.4343 306.464 33.1841C307.489 33.9393 308.282 35.0112 308.831 36.3947C309.381 37.7835 309.661 39.431 309.661 41.3479C309.661 43.2647 309.386 44.8753 308.831 46.2482Z" fill="#E4D7C6"/>
<path d="M3.27549 108.395V111.526H0.142643V108.395H3.27549ZM3.42341 108.247H0V111.669H3.42341V108.247Z" fill="#E4D7C6"/>
<path d="M49.6501 30.3749C50.2576 30.3749 50.4689 30.961 50.4954 31.3465C50.5218 31.7056 50.2523 32.3815 49.6976 32.3815H7.53891C7.05815 32.3815 6.8257 31.6581 6.85211 31.3412C6.88381 30.9822 7.16381 30.3749 7.6974 30.3749H49.6501Z" fill="#E4D7C6"/>
<path d="M44.6312 48.9149L12.7797 48.9043C12.2725 48.9043 11.8499 48.3657 11.8499 47.8957V37.4086C11.8499 36.6429 12.4997 36.3577 13.1654 36.3577H44.2138C44.9587 36.3577 45.5029 36.8119 45.5029 37.5828V47.806C45.5029 48.3393 45.1806 48.7248 44.6365 48.9096L44.6312 48.9149ZM31.0168 46.8766C31.619 46.8766 32.0787 46.3221 32.0787 45.7624L32.0681 40.6455C32.0681 39.4944 31.2122 38.6231 30.1134 38.4277C29.21 38.264 28.296 38.2482 27.4084 38.4805C26.4311 38.7393 25.7443 39.563 25.7443 40.5927V45.7994C25.7443 46.3538 26.0877 46.8766 26.6688 46.8766H31.0221H31.0168ZM20.5299 46.2218C21.0107 46.2218 21.4069 45.8152 21.4069 45.3452V39.8957C21.4016 39.299 20.9631 38.8977 20.4031 38.8977H18.0522C17.5027 38.8924 17.0431 39.2884 17.0484 39.8587L17.0642 45.3399C17.0642 45.8891 17.5503 46.2376 18.0469 46.2376L20.5299 46.2218ZM39.3587 46.2218C39.8236 46.2218 40.1829 45.8257 40.1829 45.3769V39.8482C40.1776 39.2937 39.7761 38.8977 39.2372 38.8977H36.7225C36.1994 38.8977 35.7926 39.3096 35.7926 39.8429L35.8138 45.4033C35.8138 45.9155 36.2576 46.2376 36.7119 46.2376L39.364 46.2218H39.3587Z" fill="#E4D7C6"/>
<path d="M12.4944 26.3934C12.0982 26.3934 11.9503 26.1399 12.0136 25.8336C12.4363 23.8006 13.3238 21.9894 14.5548 20.3155C17.9782 15.6633 23.4356 13.53 29.1519 13.6462C32.2107 13.7095 35.1745 14.4858 37.8266 15.9801C41.6198 18.1188 44.367 21.6831 45.3391 25.9076C45.4078 26.198 45.2018 26.3828 44.927 26.3828H12.4944V26.3934Z" fill="#E4D7C6"/>
<path d="M32.8764 11.6765L24.1647 11.666C24.0114 11.2118 24.1118 10.7841 24.0748 10.3458C24.0484 10.0131 24.1541 9.79664 24.4764 9.72799C24.9624 9.62238 26.8432 9.33723 26.8379 8.84086C24.9571 8.01709 23.9533 6.29036 24.1013 4.27847C24.2597 2.07121 25.982 0.249423 28.222 0.0223602C29.9919 -0.157178 31.6402 0.761637 32.5383 2.16098C33.5104 3.68178 33.5262 5.62501 32.57 7.12996C32.0417 7.95901 31.2862 8.48178 30.3828 8.93063C30.6522 9.16825 30.9745 9.31083 31.3179 9.38475L32.9609 9.75439C33.1247 9.79135 33.2409 9.91809 33.2409 10.0976V11.3544C33.2356 11.5603 33.1406 11.6765 32.8764 11.6765Z" fill="#E4D7C6"/>
<path d="M49.5286 105.047H8.05665C7.53363 105.047 7.02645 104.767 7.02645 104.339V99.9407C7.02645 99.6028 7.39098 99.1909 7.86646 99.1909H49.6025C50.1625 99.1909 50.5746 99.513 50.5746 99.9513V104.197C50.5746 104.651 50.1942 105.047 49.5286 105.047Z" fill="#E4D7C6"/>
<path d="M7.76608 54.9188C6.91023 54.9136 6.7623 53.6462 7.18494 53.208C7.35928 53.0231 7.62344 52.8964 8.01967 52.8964H49.5233C50.1731 52.9017 50.4055 53.5037 50.4003 53.905C50.3897 54.4911 50.0093 54.9188 49.2697 54.9188H7.76608Z" fill="#E4D7C6"/>
<path d="M32.3322 97.216H24.7299C24.1805 97.0734 23.7262 96.651 23.7262 96.0278V77.6516C23.8001 77.0496 24.2016 76.5585 24.8198 76.5585L32.2002 76.5427C32.9134 76.643 33.3413 77.1077 33.3413 77.8205L33.3572 96.1123C33.3149 96.7143 32.9556 97.1156 32.3375 97.2213L32.3322 97.216Z" fill="#E4D7C6"/>
<path d="M31.1277 72.6298C31.1277 74.0608 29.9654 75.2172 28.539 75.2172C27.1126 75.2172 25.9503 74.0555 25.9503 72.6298C25.9503 71.204 27.419 65.9605 28.539 65.9605C29.659 65.9605 31.1277 71.1987 31.1277 72.6298Z" fill="#E4D7C6"/>
<path d="M15.4106 97.0048C14.5971 96.8939 13.9367 96.4186 13.3661 95.9011C12.5842 95.1882 11.8499 94.4806 11.1367 93.6991C10.7668 93.2925 10.4604 92.775 10.4657 92.2206C10.4657 90.9797 11.8235 90.1823 13.0597 90.0608C14.1374 89.95 15.1412 90.5202 15.8174 91.3704C16.6733 92.4529 17.6929 94.3803 17.339 95.7585C17.1118 96.6404 16.351 97.1315 15.4106 97.0048Z" fill="#E4D7C6"/>
<path d="M23.2454 62.2377C22.2311 63.4099 20.8944 64.2337 19.3571 64.2812C18.5858 64.3076 17.9254 63.7585 17.6665 63.0561C17.0325 61.3347 18.9239 59.8245 20.2975 59.3439C21.3541 58.9743 22.5058 59.0113 23.4039 59.6449C23.8582 59.9618 24.0273 60.437 23.9375 60.9703C23.8582 61.4614 23.5835 61.8363 23.2348 62.2377H23.2454Z" fill="#E4D7C6"/>
<path d="M15.7329 75.6714C15.3789 76.2681 14.4333 77.1446 13.6355 76.8964C13.1812 76.7539 12.7691 76.3948 12.5525 76.0093C11.8763 74.8106 12.2038 73.4958 12.8959 72.408C13.662 71.2093 14.5284 69.7994 16.1661 70.0476C16.7948 70.1426 17.1593 70.8238 17.0748 71.4786C16.8741 72.9625 16.4937 74.3987 15.7382 75.6766L15.7329 75.6714Z" fill="#E4D7C6"/>
<path d="M16.2876 66.8845C16.2982 67.0746 16.1925 67.4443 16.1344 67.6238C15.6801 68.9228 14.4386 69.9842 13.0808 69.3822C11.8499 68.8383 11.2265 67.1855 11.1472 65.8443C11.0891 64.8621 11.7495 63.9274 12.711 63.7162C14.3012 63.3677 15.6854 64.4027 16.1397 65.7281C16.2876 66.1717 16.2718 66.4304 16.2929 66.8845H16.2876Z" fill="#E4D7C6"/>
<path d="M43.2576 83.1275C42.0425 83.3598 41.213 82.3196 41.0123 81.4747C40.5844 79.711 41.7889 77.3453 43.3527 76.7592C44.0659 76.4951 45.1119 76.7486 45.3338 77.5512C45.8199 79.3414 45.1014 82.7737 43.2576 83.1222V83.1275Z" fill="#E4D7C6"/>
<path d="M45.9519 90.5783C44.6365 91.3704 43.2787 90.4093 42.7451 89.3374C42.2115 88.2654 42.3383 86.7763 43.2893 86.1163C43.9549 85.6516 44.647 85.509 45.3972 85.7519C46.4327 86.0793 47.1036 86.9348 47.1882 88.0489C47.2621 89.0417 46.8131 90.0608 45.9519 90.5836V90.5783Z" fill="#E4D7C6"/>
<path d="M40.7006 75.5974C40.0244 75.1327 39.5595 74.4621 39.5542 73.6331C39.5489 72.7512 40.1776 72.0383 40.9753 71.6845C42.0636 71.204 43.3897 71.2832 43.9708 72.5294C44.478 73.612 44.1821 74.8529 43.2153 75.6027C42.4915 76.1625 41.4878 76.1361 40.7006 75.6027V75.5974Z" fill="#E4D7C6"/>
<path d="M36.6432 63.5842C35.1111 63.8166 33.4523 62.1004 33.5526 61.0337C33.6424 60.041 34.4772 59.2911 35.4598 59.2119C35.7662 59.1855 36.0885 59.1433 36.3896 59.2119C37.2983 59.4126 38.0802 60.1202 38.3338 60.9862C38.7036 62.243 37.9428 63.3888 36.6432 63.5842Z" fill="#E4D7C6"/>
<path d="M44.6417 93.9315C44.124 95.1354 43.1149 95.9962 41.7942 95.3836C41.3927 95.1988 41.1444 94.9717 40.838 94.6602C39.998 93.7942 39.9768 92.4582 40.9806 91.6661C42.0055 90.8529 43.8704 90.8107 44.5784 91.9882C44.9693 92.643 44.927 93.2661 44.6417 93.9315Z" fill="#E4D7C6"/>
<path d="M43.1044 59.0535C42.1217 59.6238 41.044 59.74 39.924 59.7083C38.7036 59.6766 37.5625 59.1644 36.7066 58.3142C36.4953 58.1083 36.4425 57.8548 36.5164 57.5961C36.7225 56.8832 40.241 57.0258 40.9542 57.068C41.5987 57.105 43.807 57.2106 43.77 58.1664C43.7542 58.5571 43.4531 58.8529 43.1097 59.0535H43.1044Z" fill="#E4D7C6"/>
<path d="M14.5601 58.5888C14.4227 59.8614 13.5193 60.9281 12.2778 61.171C11.6491 61.2977 11.0099 61.0812 10.6031 60.6535C10.1751 60.2099 9.89515 59.6027 10.0272 58.9373C10.3812 57.1261 12.505 56.6508 13.8416 57.274C14.3699 57.5169 14.6235 57.9604 14.5601 58.5888Z" fill="#E4D7C6"/>
<path d="M47.3995 96.5084C47.3202 96.6668 47.167 96.7724 47.0455 96.9044C46.7074 97.2688 46.2478 97.3533 45.7353 97.2107C45.0221 97.01 44.8478 95.9645 44.9376 95.2146C45.0485 94.3117 45.1859 93.4562 45.5346 92.6113C45.7512 92.0886 46.4063 90.6575 47.0191 90.7103C47.7535 90.7737 47.7165 92.2364 47.7587 92.7222C47.8433 93.7308 47.8327 95.6265 47.3942 96.5137L47.3995 96.5084Z" fill="#E4D7C6"/>
<path d="M46.5753 69.171C46.9504 70.1374 46.2108 71.2515 45.4025 71.5314C44.6999 71.7743 44.0236 71.6317 43.527 71.2357C42.1217 70.1162 42.2063 68.0251 43.2682 67.4073C43.6908 67.1644 44.4304 67.1327 44.7844 67.439L45.6455 68.1835C45.9731 68.4687 46.4063 68.7327 46.5753 69.171Z" fill="#E4D7C6"/>
<path d="M16.705 60.8225C16.1978 61.0601 15.6008 61.0918 15.1571 60.7591C14.2325 60.0674 15.5903 57.8812 16.8741 57.2581C17.6824 56.8674 18.739 56.9307 19.5103 57.3426C20.0122 57.6119 19.9277 58.3776 19.5631 58.7736C18.7759 59.6397 17.7775 60.3156 16.7103 60.8172L16.705 60.8225Z" fill="#E4D7C6"/>
<path d="M13.3555 88.4978C12.3042 88.5559 11.5382 86.8397 11.8182 85.6093C11.9608 84.981 12.4838 84.4371 13.0491 84.21C13.8574 83.8826 14.6499 84.1308 15.1359 84.8225C15.622 85.5143 15.5586 86.3961 15.1782 87.146C14.7978 87.8958 14.2167 88.445 13.3555 88.4978Z" fill="#E4D7C6"/>
<path d="M29.0462 61.4509C28.2854 61.7624 27.4983 61.2819 27.0915 60.6746C26.6583 60.0304 26.5103 59.1591 26.8062 58.4146C27.102 57.67 28.0107 57.1948 28.7715 57.406C29.6537 57.6542 30.2349 58.4146 30.3088 59.3281C30.3775 60.1519 29.8809 61.1076 29.0462 61.4509Z" fill="#E4D7C6"/>
<path d="M47.5791 81.7123C47.5791 82.5942 47.558 85.2027 46.4961 85.4721C46.0787 85.5777 45.6614 85.3928 45.4395 85.039C44.5519 83.608 45.635 80.7565 46.4433 79.4258C46.5225 79.2938 46.7021 79.204 46.8025 79.1724C47.5421 78.94 47.5791 81.2899 47.5791 81.7123Z" fill="#E4D7C6"/>
<path d="M12.0242 81.4272C11.6544 81.48 11.1208 81.2899 10.8831 81.01C10.191 80.1968 10.1804 79.0245 10.714 78.1374C11.1419 77.4298 11.9344 77.1394 12.748 77.4139C13.6514 77.7202 14.0318 78.9506 13.625 80.0489C13.3661 80.7407 12.8748 81.3004 12.0242 81.4272Z" fill="#E4D7C6"/>
<path d="M40.2779 71.2251C39.6862 71.1459 39.2108 71.0826 39.1262 69.8945C39.0417 68.7063 39.4802 67.6766 40.2357 66.8159C40.3519 66.6839 40.484 66.5888 40.6372 66.5836C41.2447 66.5677 42.5021 68.5426 42.0108 70.4489C41.9157 70.8185 41.641 71.0456 41.3134 71.1723C41.1813 71.2251 40.5421 71.3044 40.2779 71.2251Z" fill="#E4D7C6"/>
<path d="M16.4778 83.0958C16.145 83.5447 15.5691 83.7823 15.0567 83.6186C14.0476 83.2965 13.6091 82.214 13.7729 81.2159C13.8838 80.5242 14.185 79.9011 14.8665 79.6159C15.1571 79.4945 15.6695 79.4469 15.9601 79.6529C17.0695 80.4186 17.2967 82.008 16.4778 83.1011V83.0958Z" fill="#E4D7C6"/>
<path d="M19.5261 65.3638C19.9594 66.6258 18.2107 69.8786 17.1171 69.2978C16.2559 68.8384 16.4725 65.6172 18.0416 64.9043C18.591 64.6562 19.3201 64.7565 19.5261 65.3638Z" fill="#E4D7C6"/>
<path d="M41.5195 86.9559C40.9278 87.1618 40.3519 86.8767 39.9768 86.4384C39.1844 85.5037 39.4485 84.1202 40.4998 83.4654C40.9595 83.1803 41.5564 83.2912 42.0372 83.5763C42.444 83.814 42.7029 84.2681 42.7768 84.8331C42.8931 85.7255 42.4387 86.639 41.5195 86.9612V86.9559Z" fill="#E4D7C6"/>
<path d="M47.5157 59.5129C47.3572 60.3156 46.681 60.7961 45.8833 60.6007C44.8266 60.342 44.2666 59.2753 44.4357 58.2192C44.5572 57.4799 45.1436 57.0258 45.8885 56.9994C46.6282 56.973 47.1882 57.3584 47.4576 58.0713C47.6214 58.499 47.6108 59.0218 47.5157 59.5182V59.5129Z" fill="#E4D7C6"/>
<path d="M12.4944 70.9664C12.6423 71.7849 12.1035 73.4324 11.2318 73.4271C9.78949 73.4219 9.60986 68.8912 10.6665 68.6482C11.2053 68.5215 12.3148 69.9895 12.4944 70.9664Z" fill="#E4D7C6"/>
<path d="M46.8395 76.9176C46.3165 77.0179 45.9889 77.1024 45.4817 76.6588C44.7844 76.173 44.8319 75.9565 44.7104 75.4232C44.3248 73.7229 45.3814 72.1387 46.121 72.3446C46.8606 72.5506 47.0984 73.443 47.1618 74.1453C47.2357 74.9955 47.3097 75.777 47.0614 76.5955C47.0138 76.7486 46.9452 76.8965 46.8395 76.9176Z" fill="#E4D7C6"/>
<path d="M26.0771 58.6839C25.0733 59.9618 22.3156 58.3354 21.8454 57.7809C21.6763 57.5802 21.8454 57.2634 22.1095 57.1842C23.0394 56.9043 25.4009 56.8621 26.1616 57.6647C26.225 57.9763 26.3096 58.3882 26.0771 58.6839Z" fill="#E4D7C6"/>
<path d="M15.8491 63.806C15.0408 63.8377 13.6408 63.0086 13.4771 62.0212C13.4454 61.8258 13.5616 61.435 13.7306 61.3347C14.2642 61.002 14.8612 61.1024 15.4476 61.2555C16.3035 61.4826 16.911 62.3961 16.6891 63.2779C16.6046 63.6106 16.219 63.7849 15.8491 63.8007V63.806Z" fill="#E4D7C6"/>
<path d="M12.5314 97.0206C12.0823 97.6595 11.0046 97.4694 9.94269 96.9044C9.42496 96.6298 9.52005 95.8747 9.64156 95.1513C9.72609 94.6602 10.2385 94.375 10.7035 94.5599C11.6597 94.9453 12.5631 95.9222 12.6054 96.7513C12.6106 96.8463 12.5842 96.9414 12.5314 97.0206Z" fill="#E4D7C6"/>
<path d="M40.3308 94.9981C40.9753 95.4047 42.0848 96.0595 41.7202 96.9044C41.4455 97.5381 39.9029 97.6015 38.8938 96.5876C38.4236 96.1123 38.4553 95.2041 39.0576 94.8186C39.4432 94.5704 39.9927 94.7869 40.3308 94.9981Z" fill="#E4D7C6"/>
<path d="M41.7519 90.2298C41.5987 90.6892 41.2447 90.9585 40.8697 90.9902C40.4364 91.0272 40.1036 90.8265 39.8078 90.4463C39.2372 89.7176 39.4274 88.0384 40.3572 87.843C40.7429 87.7585 41.1549 87.8641 41.4138 88.2127C41.8259 88.7618 41.9738 89.5486 41.7519 90.2245V90.2298Z" fill="#E4D7C6"/>
<path d="M32.4907 62.4489C32.0205 62.9611 31.3549 62.9928 30.8266 62.7182C30.2983 62.4436 30.0183 61.8733 30.1292 61.2555C30.2666 60.5004 30.9005 59.9934 31.693 60.1307C32.1632 60.2099 32.5066 60.6324 32.6492 60.9756C32.8553 61.4667 32.8341 62.0634 32.4855 62.4489H32.4907Z" fill="#E4D7C6"/>
<path d="M12.1933 84.1361C11.7653 84.4529 10.9518 85.1763 10.4921 84.5057C9.94798 83.7083 10.5978 82.3196 11.3216 81.9499C11.8023 81.7017 12.5631 81.6965 12.8325 82.2351C13.1759 82.9163 12.7533 83.7189 12.1986 84.1361H12.1933Z" fill="#E4D7C6"/>
<path d="M33.2621 57.839C33.4575 58.5255 32.7126 59.2911 31.9043 59.2911C31.096 59.2911 30.4356 58.4779 30.3458 57.7703C30.293 57.3584 30.536 57.1103 30.9217 57.0152C31.7353 56.8146 33.0032 56.9255 33.2621 57.8443V57.839Z" fill="#E4D7C6"/>
<path d="M11.9397 88.5612C11.9027 89.1473 11.6333 89.4905 11.1631 89.6226C10.7087 89.744 10.2808 89.5275 10.0378 89.0839C9.4725 88.0384 9.94269 86.3433 10.7299 86.4806C11.5065 86.6179 11.9714 88.0701 11.945 88.5664L11.9397 88.5612Z" fill="#E4D7C6"/>
<path d="M39.2953 66.4146C38.45 67.0852 36.3209 65.5697 36.696 64.4344C36.8334 64.0067 37.3934 63.8958 37.8425 64.0066C39.1315 64.3288 39.7444 66.0608 39.3006 66.4146H39.2953Z" fill="#E4D7C6"/>
<path d="M26.4047 62.1743C26.2356 62.6601 25.8341 62.8872 25.3745 62.7974C24.7722 62.676 24.2862 62.1109 24.3179 61.4878C24.3496 60.9598 24.5292 60.4317 24.862 60.0515C25.0945 59.7875 25.4749 59.8297 25.7179 60.0515C26.2884 60.5637 26.6635 61.4192 26.3994 62.1743H26.4047Z" fill="#E4D7C6"/>
<path d="M10.6242 64.3393C10.4076 64.4502 10.0114 64.4238 9.87402 64.2179C9.62043 63.8377 9.75779 63.3677 9.94798 62.9981C10.3759 62.169 10.9993 61.5248 11.9925 61.8311C12.2355 61.905 12.3782 62.1268 12.4204 62.2852C12.6476 63.0984 11.311 63.9908 10.6242 64.3393Z" fill="#E4D7C6"/>
<path d="M16.7367 90.3249C16.5095 90.5995 16.145 90.7684 15.8703 90.5414C14.8665 89.6965 15.9759 87.0932 16.5307 86.9453C16.9639 86.8291 17.1435 88.313 17.1857 88.6298C17.265 89.2107 17.1276 89.8549 16.742 90.3249H16.7367Z" fill="#E4D7C6"/>
<path d="M11.6861 76.5585C11.5752 76.9017 11.2318 77.0866 10.9729 77.0866C9.73666 77.1024 9.74194 74.6575 10.3865 74.1928C10.9412 73.7915 12.1457 75.1011 11.6861 76.5585Z" fill="#E4D7C6"/>
<path d="M40.2304 78.9875C39.4908 78.7077 39.5013 76.041 40.1987 75.9776C40.5421 75.946 41.007 76.2628 41.1919 76.5849C41.7044 77.472 41.1919 78.5862 40.2304 78.9928V78.9875Z" fill="#E4D7C6"/>
<path d="M14.9986 78.6179C14.7344 78.5229 14.5442 78.3116 14.5389 78.1427C14.5284 77.509 15.2997 76.9281 15.7963 76.9176C16.145 76.907 16.4039 77.0496 16.5518 77.3136C16.7156 77.604 16.6469 77.942 16.3986 78.2007C16.0552 78.5598 15.5163 78.808 15.0039 78.6179H14.9986Z" fill="#E4D7C6"/>
<path d="M46.6651 63.2779C46.0999 63.4733 45.6561 62.8713 45.6085 62.3644C45.5821 62.0687 45.6085 61.773 45.804 61.5935C46.0153 61.4086 46.3376 61.3664 46.6335 61.4984C46.9663 61.6462 47.1565 62.0212 47.1565 62.3486C47.1565 62.676 47.0667 63.1354 46.6599 63.2727L46.6651 63.2779Z" fill="#E4D7C6"/>
<path d="M35.0583 58.3987C34.6568 58.5941 34.2236 58.5413 33.9541 58.2403C33.7111 57.9657 33.5843 57.5169 33.9066 57.1947C34.2289 56.8726 34.8047 56.9835 35.1481 57.2476C35.3541 57.406 35.4704 57.5855 35.4598 57.8073C35.4492 58.0608 35.3383 58.2667 35.0583 58.404V58.3987Z" fill="#E4D7C6"/>
<path d="M46.7338 67.777C45.9519 68.0093 45.3761 67.4654 45.1067 66.8423C44.8055 66.14 44.8636 65.5011 45.2863 64.8779C45.6402 64.3605 45.9942 63.8377 46.6387 63.6265C46.7602 63.5895 46.9293 63.6053 47.0297 63.6792C47.1036 63.7321 47.204 63.8799 47.2146 64.0331C47.2569 64.5875 47.3942 67.5869 46.7338 67.7822V67.777Z" fill="#E4D7C6"/>
<path d="M43.7595 65.802C41.5987 66.837 39.2319 64.8304 39.0628 63.0139C38.9942 62.2694 39.1527 61.5512 39.7021 61.0179C40.5104 60.2311 41.7361 60.0251 42.8349 60.3314C43.7278 60.5796 44.3459 61.2555 44.8002 62.0423C45.561 63.3677 45.2282 65.0997 43.7542 65.802H43.7595Z" fill="#E4D7C6"/>
</svg>
