<svg width="51" height="112" viewBox="0 0 51 112" fill="none" xmlns="http://www.w3.org/2000/svg">
<path d="M3.27549 108.395V111.526H0.142642V108.395H3.27549ZM3.42341 108.247H0V111.669H3.42341V108.247Z" fill="#E4D7C6"/>
<path d="M49.6501 30.3749C50.2576 30.3749 50.4689 30.961 50.4954 31.3465C50.5218 31.7056 50.2523 32.3815 49.6976 32.3815H7.53891C7.05815 32.3815 6.8257 31.6581 6.85211 31.3412C6.88381 30.9822 7.16381 30.3749 7.6974 30.3749H49.6501Z" fill="#E4D7C6"/>
<path d="M44.6312 48.9149L12.7797 48.9043C12.2725 48.9043 11.8499 48.3657 11.8499 47.8957V37.4086C11.8499 36.6429 12.4997 36.3577 13.1654 36.3577H44.2138C44.9587 36.3577 45.5029 36.8119 45.5029 37.5828V47.806C45.5029 48.3393 45.1806 48.7248 44.6365 48.9096L44.6312 48.9149ZM31.0168 46.8766C31.619 46.8766 32.0787 46.3221 32.0787 45.7624L32.0681 40.6455C32.0681 39.4944 31.2122 38.6231 30.1134 38.4277C29.21 38.264 28.296 38.2482 27.4084 38.4805C26.4311 38.7393 25.7443 39.563 25.7443 40.5927V45.7994C25.7443 46.3538 26.0877 46.8766 26.6688 46.8766H31.0221H31.0168ZM20.5299 46.2218C21.0107 46.2218 21.4069 45.8152 21.4069 45.3452V39.8957C21.4016 39.299 20.9631 38.8977 20.4031 38.8977H18.0522C17.5027 38.8924 17.0431 39.2884 17.0484 39.8587L17.0642 45.3399C17.0642 45.8891 17.5503 46.2376 18.0469 46.2376L20.5299 46.2218ZM39.3587 46.2218C39.8236 46.2218 40.1829 45.8257 40.1829 45.3769V39.8482C40.1776 39.2937 39.7761 38.8977 39.2372 38.8977H36.7225C36.1994 38.8977 35.7926 39.3096 35.7926 39.8429L35.8138 45.4033C35.8138 45.9155 36.2576 46.2376 36.7119 46.2376L39.364 46.2218H39.3587Z" fill="#E4D7C6"/>
<path d="M12.4944 26.3934C12.0982 26.3934 11.9503 26.1399 12.0136 25.8336C12.4363 23.8006 13.3238 21.9894 14.5548 20.3155C17.9782 15.6633 23.4356 13.53 29.1519 13.6462C32.2107 13.7095 35.1745 14.4858 37.8266 15.9801C41.6198 18.1188 44.367 21.6831 45.3391 25.9076C45.4078 26.198 45.2018 26.3828 44.927 26.3828H12.4944V26.3934Z" fill="#E4D7C6"/>
<path d="M32.8764 11.6765L24.1647 11.666C24.0114 11.2118 24.1118 10.7841 24.0748 10.3458C24.0484 10.0131 24.1541 9.79664 24.4764 9.72799C24.9624 9.62238 26.8432 9.33723 26.8379 8.84086C24.9571 8.01709 23.9533 6.29036 24.1013 4.27847C24.2598 2.07121 25.982 0.249423 28.222 0.0223602C29.9919 -0.157178 31.6402 0.761637 32.5383 2.16098C33.5104 3.68178 33.5262 5.62501 32.57 7.12996C32.0417 7.95901 31.2862 8.48178 30.3828 8.93063C30.6522 9.16825 30.9745 9.31083 31.3179 9.38475L32.9609 9.75439C33.1247 9.79135 33.2409 9.91809 33.2409 10.0976V11.3544C33.2356 11.5603 33.1406 11.6765 32.8764 11.6765Z" fill="#E4D7C6"/>
<path d="M49.5286 105.047H8.05665C7.53363 105.047 7.02645 104.767 7.02645 104.339V99.9407C7.02645 99.6028 7.39098 99.1909 7.86646 99.1909H49.6025C50.1625 99.1909 50.5746 99.513 50.5746 99.9513V104.197C50.5746 104.651 50.1942 105.047 49.5286 105.047Z" fill="#E4D7C6"/>
<path d="M7.76608 54.9188C6.91023 54.9136 6.7623 53.6462 7.18494 53.208C7.35928 53.0231 7.62344 52.8964 8.01967 52.8964H49.5233C50.1731 52.9017 50.4055 53.5037 50.4003 53.905C50.3897 54.4911 50.0093 54.9188 49.2697 54.9188H7.76608Z" fill="#E4D7C6"/>
<path d="M32.3322 97.216H24.7299C24.1805 97.0734 23.7262 96.651 23.7262 96.0278V77.6516C23.8001 77.0496 24.2016 76.5585 24.8198 76.5585L32.2002 76.5427C32.9134 76.643 33.3413 77.1077 33.3413 77.8205L33.3572 96.1123C33.3149 96.7143 32.9556 97.1156 32.3375 97.2213L32.3322 97.216Z" fill="#E4D7C6"/>
<path d="M31.1277 72.6298C31.1277 74.0608 29.9654 75.2172 28.539 75.2172C27.1126 75.2172 25.9503 74.0555 25.9503 72.6298C25.9503 71.204 27.419 65.9604 28.539 65.9604C29.659 65.9604 31.1277 71.1987 31.1277 72.6298Z" fill="#E4D7C6"/>
<path d="M15.4106 97.0048C14.5971 96.8939 13.9367 96.4186 13.3661 95.9011C12.5842 95.1882 11.8499 94.4807 11.1367 93.6991C10.7668 93.2925 10.4604 92.775 10.4657 92.2206C10.4657 90.9797 11.8235 90.1823 13.0597 90.0608C14.1374 89.95 15.1412 90.5202 15.8174 91.3704C16.6733 92.4529 17.6929 94.3803 17.339 95.7585C17.1118 96.6404 16.351 97.1315 15.4106 97.0048Z" fill="#E4D7C6"/>
<path d="M23.2454 62.2377C22.2311 63.41 20.8944 64.2337 19.3571 64.2812C18.5858 64.3076 17.9254 63.7585 17.6665 63.0561C17.0325 61.3347 18.9239 59.8245 20.2975 59.3439C21.3541 58.9743 22.5058 59.0113 23.4039 59.6449C23.8582 59.9618 24.0273 60.437 23.9375 60.9703C23.8582 61.4614 23.5835 61.8363 23.2348 62.2377H23.2454Z" fill="#E4D7C6"/>
<path d="M15.7329 75.6714C15.3789 76.2681 14.4333 77.1446 13.6355 76.8964C13.1812 76.7539 12.7691 76.3948 12.5525 76.0093C11.8763 74.8106 12.2038 73.4958 12.8959 72.408C13.662 71.2093 14.5284 69.7994 16.1661 70.0476C16.7948 70.1426 17.1593 70.8238 17.0748 71.4786C16.8741 72.9625 16.4937 74.3988 15.7382 75.6766L15.7329 75.6714Z" fill="#E4D7C6"/>
<path d="M16.2876 66.8845C16.2982 67.0746 16.1925 67.4443 16.1344 67.6238C15.6801 68.9228 14.4386 69.9842 13.0808 69.3822C11.8499 68.8383 11.2265 67.1855 11.1472 65.8443C11.0891 64.8621 11.7495 63.9274 12.711 63.7162C14.3012 63.3677 15.6854 64.4027 16.1397 65.7281C16.2876 66.1717 16.2718 66.4304 16.2929 66.8845H16.2876Z" fill="#E4D7C6"/>
<path d="M43.2576 83.1275C42.0425 83.3598 41.213 82.3196 41.0123 81.4747C40.5844 79.711 41.7889 77.3453 43.3527 76.7592C44.0659 76.4951 45.1119 76.7486 45.3338 77.5512C45.8199 79.3414 45.1014 82.7737 43.2576 83.1222V83.1275Z" fill="#E4D7C6"/>
<path d="M45.9519 90.5783C44.6365 91.3704 43.2787 90.4093 42.7451 89.3374C42.2115 88.2654 42.3383 86.7763 43.2893 86.1163C43.9549 85.6516 44.647 85.509 45.3972 85.7519C46.4327 86.0793 47.1036 86.9348 47.1882 88.049C47.2621 89.0417 46.8131 90.0608 45.9519 90.5836V90.5783Z" fill="#E4D7C6"/>
<path d="M40.7006 75.5974C40.0244 75.1327 39.5595 74.4621 39.5542 73.6331C39.5489 72.7512 40.1776 72.0383 40.9753 71.6845C42.0636 71.204 43.3897 71.2832 43.9708 72.5294C44.478 73.612 44.1821 74.8529 43.2153 75.6027C42.4916 76.1625 41.4878 76.1361 40.7006 75.6027V75.5974Z" fill="#E4D7C6"/>
<path d="M36.6432 63.5842C35.1111 63.8166 33.4523 62.1004 33.5526 61.0337C33.6424 60.041 34.4772 59.2911 35.4598 59.2119C35.7662 59.1855 36.0885 59.1433 36.3896 59.2119C37.2983 59.4126 38.0802 60.1202 38.3338 60.9862C38.7036 62.243 37.9428 63.3888 36.6432 63.5842Z" fill="#E4D7C6"/>
<path d="M44.6417 93.9315C44.124 95.1354 43.1149 95.9962 41.7942 95.3836C41.3927 95.1988 41.1444 94.9717 40.838 94.6602C39.998 93.7942 39.9768 92.4582 40.9806 91.6661C42.0055 90.8529 43.8704 90.8107 44.5784 91.9882C44.9693 92.643 44.927 93.2661 44.6417 93.9315Z" fill="#E4D7C6"/>
<path d="M43.1044 59.0535C42.1217 59.6238 41.044 59.74 39.924 59.7083C38.7036 59.6766 37.5625 59.1644 36.7066 58.3142C36.4953 58.1083 36.4425 57.8548 36.5164 57.5961C36.7225 56.8832 40.241 57.0258 40.9542 57.068C41.5987 57.105 43.807 57.2106 43.77 58.1664C43.7542 58.5571 43.4531 58.8529 43.1097 59.0535H43.1044Z" fill="#E4D7C6"/>
<path d="M14.5601 58.5888C14.4227 59.8614 13.5193 60.9281 12.2778 61.171C11.6491 61.2977 11.0099 61.0812 10.6031 60.6535C10.1751 60.2099 9.89515 59.6027 10.0272 58.9373C10.3812 57.1261 12.505 56.6508 13.8416 57.274C14.3699 57.5169 14.6235 57.9604 14.5601 58.5888Z" fill="#E4D7C6"/>
<path d="M47.3995 96.5084C47.3202 96.6668 47.167 96.7724 47.0455 96.9044C46.7074 97.2688 46.2478 97.3533 45.7353 97.2107C45.0221 97.01 44.8478 95.9645 44.9376 95.2146C45.0485 94.3117 45.1859 93.4562 45.5346 92.6113C45.7512 92.0886 46.4063 90.6575 47.0191 90.7104C47.7535 90.7737 47.7165 92.2364 47.7587 92.7222C47.8433 93.7308 47.8327 95.6265 47.3942 96.5137L47.3995 96.5084Z" fill="#E4D7C6"/>
<path d="M46.5753 69.171C46.9504 70.1374 46.2108 71.2515 45.4025 71.5314C44.6999 71.7743 44.0236 71.6317 43.527 71.2357C42.1217 70.1162 42.2063 68.0251 43.2682 67.4073C43.6908 67.1644 44.4304 67.1327 44.7844 67.439L45.6455 68.1835C45.9731 68.4687 46.4063 68.7327 46.5753 69.171Z" fill="#E4D7C6"/>
<path d="M16.705 60.8225C16.1978 61.0601 15.6008 61.0918 15.1571 60.7591C14.2325 60.0674 15.5903 57.8812 16.8741 57.2581C17.6824 56.8674 18.739 56.9307 19.5103 57.3426C20.0122 57.6119 19.9277 58.3776 19.5631 58.7736C18.7759 59.6397 17.7775 60.3156 16.7103 60.8172L16.705 60.8225Z" fill="#E4D7C6"/>
<path d="M13.3555 88.4978C12.3042 88.5559 11.5382 86.8397 11.8182 85.6093C11.9608 84.981 12.4838 84.4371 13.0491 84.21C13.8574 83.8826 14.6499 84.1308 15.1359 84.8225C15.622 85.5143 15.5586 86.3961 15.1782 87.146C14.7978 87.8958 14.2167 88.445 13.3555 88.4978Z" fill="#E4D7C6"/>
<path d="M29.0462 61.4509C28.2854 61.7624 27.4983 61.2819 27.0915 60.6746C26.6583 60.0304 26.5103 59.1591 26.8062 58.4146C27.102 57.67 28.0107 57.1948 28.7715 57.406C29.6537 57.6542 30.2349 58.4146 30.3088 59.3281C30.3775 60.1519 29.8809 61.1076 29.0462 61.4509Z" fill="#E4D7C6"/>
<path d="M47.5791 81.7123C47.5791 82.5942 47.558 85.2027 46.4961 85.4721C46.0787 85.5777 45.6614 85.3928 45.4395 85.039C44.5519 83.608 45.635 80.7565 46.4433 79.4258C46.5225 79.2938 46.7021 79.204 46.8025 79.1724C47.5421 78.94 47.5791 81.2899 47.5791 81.7123Z" fill="#E4D7C6"/>
<path d="M12.0242 81.4272C11.6544 81.48 11.1208 81.2899 10.8831 81.01C10.191 80.1968 10.1804 79.0245 10.714 78.1374C11.1419 77.4298 11.9344 77.1394 12.748 77.4139C13.6514 77.7202 14.0318 78.9506 13.625 80.0489C13.3661 80.7407 12.8748 81.3004 12.0242 81.4272Z" fill="#E4D7C6"/>
<path d="M40.2779 71.2252C39.6862 71.1459 39.2108 71.0826 39.1262 69.8945C39.0417 68.7063 39.4802 67.6766 40.2357 66.8159C40.3519 66.6839 40.484 66.5888 40.6372 66.5835C41.2447 66.5677 42.5021 68.5426 42.0108 70.4489C41.9157 70.8186 41.641 71.0456 41.3134 71.1723C41.1813 71.2251 40.5421 71.3044 40.2779 71.2252Z" fill="#E4D7C6"/>
<path d="M16.4778 83.0958C16.145 83.5447 15.5691 83.7823 15.0567 83.6186C14.0476 83.2965 13.6091 82.214 13.7729 81.2159C13.8838 80.5242 14.185 79.9011 14.8665 79.6159C15.1571 79.4945 15.6695 79.4469 15.9601 79.6529C17.0695 80.4186 17.2967 82.008 16.4778 83.1011V83.0958Z" fill="#E4D7C6"/>
<path d="M19.5261 65.3638C19.9594 66.6258 18.2107 69.8786 17.1171 69.2978C16.2559 68.8384 16.4725 65.6172 18.0416 64.9044C18.591 64.6562 19.3201 64.7565 19.5261 65.3638Z" fill="#E4D7C6"/>
<path d="M41.5195 86.9559C40.9278 87.1618 40.3519 86.8767 39.9768 86.4384C39.1844 85.5037 39.4485 84.1202 40.4998 83.4654C40.9595 83.1803 41.5564 83.2912 42.0372 83.5763C42.444 83.814 42.7029 84.2681 42.7768 84.8331C42.8931 85.7255 42.4387 86.639 41.5195 86.9612V86.9559Z" fill="#E4D7C6"/>
<path d="M47.5157 59.5129C47.3572 60.3156 46.681 60.7961 45.8833 60.6007C44.8266 60.342 44.2666 59.2753 44.4357 58.2192C44.5572 57.4799 45.1436 57.0258 45.8885 56.9994C46.6282 56.973 47.1882 57.3584 47.4576 58.0713C47.6214 58.499 47.6108 59.0218 47.5157 59.5182V59.5129Z" fill="#E4D7C6"/>
<path d="M12.4944 70.9664C12.6423 71.7849 12.1035 73.4324 11.2318 73.4271C9.78949 73.4219 9.60986 68.8912 10.6665 68.6482C11.2053 68.5215 12.3148 69.9895 12.4944 70.9664Z" fill="#E4D7C6"/>
<path d="M46.8395 76.9176C46.3165 77.0179 45.9889 77.1024 45.4818 76.6588C44.7844 76.173 44.8319 75.9565 44.7104 75.4232C44.3248 73.7229 45.3814 72.1387 46.121 72.3446C46.8606 72.5506 47.0984 73.443 47.1618 74.1453C47.2357 74.9955 47.3097 75.777 47.0614 76.5955C47.0138 76.7486 46.9452 76.8965 46.8395 76.9176Z" fill="#E4D7C6"/>
<path d="M26.0771 58.6839C25.0733 59.9618 22.3156 58.3354 21.8454 57.7809C21.6763 57.5802 21.8454 57.2634 22.1095 57.1842C23.0394 56.9043 25.4009 56.8621 26.1616 57.6647C26.225 57.9763 26.3096 58.3882 26.0771 58.6839Z" fill="#E4D7C6"/>
<path d="M15.8491 63.806C15.0408 63.8377 13.6408 63.0086 13.4771 62.0212C13.4454 61.8258 13.5616 61.435 13.7306 61.3347C14.2642 61.002 14.8612 61.1024 15.4476 61.2555C16.3035 61.4826 16.911 62.3961 16.6891 63.2779C16.6046 63.6106 16.219 63.7849 15.8491 63.8007V63.806Z" fill="#E4D7C6"/>
<path d="M12.5314 97.0206C12.0823 97.6595 11.0046 97.4694 9.94269 96.9044C9.42496 96.6298 9.52005 95.8747 9.64156 95.1513C9.72609 94.6602 10.2385 94.375 10.7035 94.5599C11.6597 94.9453 12.5631 95.9222 12.6054 96.7513C12.6106 96.8463 12.5842 96.9414 12.5314 97.0206Z" fill="#E4D7C6"/>
<path d="M40.3308 94.9981C40.9753 95.4047 42.0848 96.0595 41.7202 96.9044C41.4455 97.5381 39.9029 97.6014 38.8938 96.5876C38.4236 96.1123 38.4553 95.2041 39.0576 94.8186C39.4432 94.5704 39.9927 94.7869 40.3308 94.9981Z" fill="#E4D7C6"/>
<path d="M41.7519 90.2298C41.5987 90.6892 41.2447 90.9585 40.8697 90.9902C40.4364 91.0272 40.1036 90.8265 39.8078 90.4463C39.2372 89.7176 39.4274 88.0384 40.3572 87.843C40.7429 87.7585 41.1549 87.8641 41.4138 88.2127C41.8259 88.7618 41.9738 89.5486 41.7519 90.2245V90.2298Z" fill="#E4D7C6"/>
<path d="M32.4907 62.4489C32.0205 62.9611 31.3549 62.9928 30.8266 62.7182C30.2983 62.4436 30.0183 61.8733 30.1292 61.2555C30.2666 60.5004 30.9005 59.9934 31.693 60.1307C32.1632 60.2099 32.5066 60.6324 32.6492 60.9756C32.8553 61.4667 32.8341 62.0634 32.4855 62.4489H32.4907Z" fill="#E4D7C6"/>
<path d="M12.1933 84.1361C11.7653 84.4529 10.9518 85.1763 10.4921 84.5057C9.94798 83.7083 10.5978 82.3196 11.3216 81.9499C11.8023 81.7017 12.5631 81.6965 12.8325 82.2351C13.1759 82.9163 12.7533 83.7189 12.1986 84.1361H12.1933Z" fill="#E4D7C6"/>
<path d="M33.2621 57.839C33.4575 58.5255 32.7126 59.2911 31.9043 59.2911C31.096 59.2911 30.4356 58.4779 30.3458 57.7703C30.293 57.3584 30.536 57.1103 30.9217 57.0152C31.7353 56.8146 33.0032 56.9255 33.2621 57.8443V57.839Z" fill="#E4D7C6"/>
<path d="M11.9397 88.5612C11.9027 89.1473 11.6333 89.4905 11.1631 89.6226C10.7087 89.744 10.2808 89.5275 10.0378 89.0839C9.4725 88.0384 9.94269 86.3433 10.7299 86.4806C11.5065 86.6179 11.9714 88.0701 11.945 88.5664L11.9397 88.5612Z" fill="#E4D7C6"/>
<path d="M39.2953 66.4146C38.45 67.0852 36.3209 65.5697 36.696 64.4344C36.8334 64.0067 37.3934 63.8958 37.8425 64.0066C39.1315 64.3288 39.7444 66.0608 39.3006 66.4146H39.2953Z" fill="#E4D7C6"/>
<path d="M26.4047 62.1743C26.2356 62.6601 25.8341 62.8872 25.3745 62.7974C24.7722 62.676 24.2862 62.1109 24.3179 61.4878C24.3496 60.9598 24.5292 60.4317 24.862 60.0515C25.0945 59.7875 25.4749 59.8298 25.7179 60.0515C26.2884 60.5637 26.6635 61.4192 26.3994 62.1743H26.4047Z" fill="#E4D7C6"/>
<path d="M10.6242 64.3393C10.4076 64.4502 10.0114 64.4238 9.87402 64.2179C9.62043 63.8377 9.75779 63.3677 9.94798 62.9981C10.3759 62.169 10.9993 61.5248 11.9925 61.8311C12.2355 61.905 12.3782 62.1268 12.4204 62.2852C12.6476 63.0984 11.311 63.9908 10.6242 64.3393Z" fill="#E4D7C6"/>
<path d="M16.7367 90.3249C16.5095 90.5995 16.145 90.7684 15.8703 90.5414C14.8665 89.6965 15.9759 87.0932 16.5307 86.9453C16.9639 86.8291 17.1435 88.313 17.1857 88.6298C17.265 89.2107 17.1276 89.8549 16.742 90.3249H16.7367Z" fill="#E4D7C6"/>
<path d="M11.6861 76.5585C11.5752 76.9017 11.2318 77.0866 10.9729 77.0866C9.73666 77.1024 9.74194 74.6575 10.3865 74.1928C10.9412 73.7915 12.1457 75.1011 11.6861 76.5585Z" fill="#E4D7C6"/>
<path d="M40.2304 78.9875C39.4908 78.7077 39.5013 76.041 40.1987 75.9776C40.5421 75.946 41.007 76.2628 41.1919 76.5849C41.7044 77.472 41.1919 78.5862 40.2304 78.9928V78.9875Z" fill="#E4D7C6"/>
<path d="M14.9986 78.6179C14.7344 78.5229 14.5442 78.3116 14.5389 78.1427C14.5284 77.509 15.2997 76.9281 15.7963 76.9176C16.145 76.907 16.4039 77.0496 16.5518 77.3136C16.7156 77.604 16.6469 77.942 16.3986 78.2007C16.0552 78.5598 15.5163 78.808 15.0039 78.6179H14.9986Z" fill="#E4D7C6"/>
<path d="M46.6651 63.278C46.0999 63.4733 45.6561 62.8713 45.6085 62.3644C45.5821 62.0687 45.6085 61.773 45.804 61.5935C46.0153 61.4086 46.3376 61.3664 46.6334 61.4984C46.9663 61.6462 47.1565 62.0212 47.1565 62.3486C47.1565 62.676 47.0667 63.1354 46.6599 63.2727L46.6651 63.278Z" fill="#E4D7C6"/>
<path d="M35.0583 58.3987C34.6568 58.5941 34.2236 58.5413 33.9541 58.2403C33.7111 57.9657 33.5843 57.5169 33.9066 57.1947C34.2289 56.8726 34.8047 56.9835 35.1481 57.2476C35.3541 57.406 35.4704 57.5855 35.4598 57.8073C35.4492 58.0608 35.3383 58.2667 35.0583 58.404V58.3987Z" fill="#E4D7C6"/>
<path d="M46.7338 67.777C45.9519 68.0093 45.3761 67.4654 45.1067 66.8423C44.8055 66.14 44.8636 65.5011 45.2863 64.8779C45.6402 64.3605 45.9942 63.8377 46.6387 63.6265C46.7602 63.5895 46.9293 63.6053 47.0297 63.6792C47.1036 63.7321 47.204 63.8799 47.2146 64.0331C47.2569 64.5875 47.3942 67.5869 46.7338 67.7822V67.777Z" fill="#E4D7C6"/>
<path d="M43.7595 65.802C41.5987 66.837 39.2319 64.8304 39.0629 63.0139C38.9942 62.2694 39.1527 61.5512 39.7021 61.0179C40.5104 60.2311 41.7361 60.0251 42.8349 60.3314C43.7278 60.5796 44.3459 61.2555 44.8002 62.0423C45.561 63.3677 45.2282 65.0997 43.7542 65.802H43.7595Z" fill="#E4D7C6"/>
</svg>
