<?xml version="1.0" encoding="UTF-8" standalone="no"?>
<!-- Created with Inkscape (http://www.inkscape.org/) -->

<svg
   width="341.95291"
   height="341.95291"
   viewBox="0 0 90.475038 90.475039"
   version="1.1"
   id="svg1"
   xmlns="http://www.w3.org/2000/svg"
   xmlns:svg="http://www.w3.org/2000/svg">
  <defs
     id="defs1">
    <clipPath
       clipPathUnits="userSpaceOnUse"
       id="clipPath46">
      <path
         d="M 0,1080 H 1080 V 0 H 0 Z"
         transform="translate(-89.465327,-404.42731)"
         id="path46" />
    </clipPath>
  </defs>
  <circle
     style="fill:#ffffff;stroke-width:0.278062"
     id="path1"
     cx="45.237518"
     cy="45.237518"
     r="45.237518" />
  <g
     id="layer1"
     transform="translate(-91.877658,-43.139751)">
    <path
       id="path45"
       d="m 0,0 c -10.399,-4.563 -20.535,-7.797 -31.778,-9.194 -4.817,-0.6 -9.308,-1.368 -14.447,-0.809 6.233,14.563 13.614,26.935 25.768,37.395 15.553,13.383 39.077,21.116 58.641,26.822 0.471,0.138 0.967,-0.261 1.028,-0.447 C 39.317,53.452 38.889,52.98 38.423,52.818 30.457,50.053 23.502,46.023 16.604,41.234 12.276,38.229 8.925,34.636 5.168,30.892 1.822,26.272 -2.261,22.349 -4.966,16.301 c 14.772,6.437 27.52,15.748 39.72,25.84 6.347,5.251 12.206,10.232 17.449,16.431 l 10.142,2.543 C 57.269,33.37 23.809,10.448 0,0 m 28.045,152.147 c -10.707,5.655 -21.732,9.632 -34.01,11.291 3.932,-2.886 8.317,-4.252 12.474,-6.699 6.8,-4.002 13.557,-7.729 19.444,-12.95 5.097,-4.519 10.003,-8.777 13.899,-14.298 2.657,-3.768 5.606,-7.047 7.058,-11.92 -17.034,-0.313 -33.274,2.989 -48.822,9.488 -31.802,14.551 -52.42,44.097 -59.182,78.629 15.511,-8.048 31.302,-13.225 47.906,-17.164 L 5.283,184.14 c 12.636,-2.999 24.766,-6.957 36.184,-13.084 17.352,-9.313 25.21,-31.632 22.668,-49.755 -0.395,-2.814 -0.483,-5.469 -2.101,-8.135 -2.758,5.466 -4.429,10.646 -7.742,15.434 -6.845,9.893 -15.534,17.888 -26.247,23.547 M 57.916,74.041 c 0,-0.147 -0.119,-0.265 -0.266,-0.265 -0.146,0 -0.266,0.118 -0.266,0.265 0,0.146 0.12,0.266 0.266,0.266 0.147,0 0.266,-0.12 0.266,-0.266 m 169.751,95.553 c -1.069,1.497 -3.5,1.184 -4.105,1.261 l -21.601,2.791 c -9.904,1.28 -22.307,3.948 -30.743,9.086 l -7.611,4.636 c -6.283,3.826 -12.474,7.019 -19.347,9.848 -6.27,2.581 -13.041,4.252 -19.966,3.705 -2.639,-0.208 -5.28,-0.209 -7.805,-0.682 -12.302,-2.306 -23.829,-7.598 -31.683,-18.436 3.923,0.578 6.761,2.812 10.338,4.077 8.722,3.082 17.652,5.264 26.958,4.14 7.471,-0.902 14.446,-4.621 20.72,-8.576 6.307,-3.975 12.759,-8.437 18.334,-13.404 0.127,-0.114 0.266,-0.262 0.237,-0.431 -0.019,-0.11 -0.107,-0.196 -0.189,-0.272 -1.638,-1.497 -2.637,-3.733 -4.157,-5.409 -1.581,-1.745 -3.367,-3.32 -5.232,-4.758 -4.067,-3.187 -6.437,-7.672 -9.283,-11.889 l -16.885,-25.035 -7.009,-8.926 C 105.306,94.347 81.847,82.268 61.793,75.136 c -1.291,-0.46 -2.363,-1.614 -3.96,-0.309 5.357,6.818 9.293,13.687 12.917,21.146 7.039,14.49 11.263,31.535 8.378,47.628 -3.416,19.067 -17.446,29.299 -33.584,38.019 -10.632,5.747 -22.237,9.452 -33.872,12.562 -8.776,2.346 -17.632,4.386 -26.38,6.839 -8.487,2.379 -17.188,6.776 -25.601,8.174 -9.192,1.527 -19.051,7.408 -26.367,13.349 l -6.633,5.385 c -1.04,-33.152 10.985,-65.606 34.346,-89.051 11.834,-11.877 26.395,-19.75 42.498,-24.261 6.943,-1.946 13.694,-3.464 20.902,-3.935 l 8.525,-0.556 c 4.455,-0.291 8.768,-0.004 13.274,-0.127 0.837,-0.024 2.77,1.049 3.411,0.076 C 52.213,100.5 52.188,96.801 49.5,87.069 48.061,81.853 44.566,77.675 40.601,74.114 31.508,65.951 24.824,64.38 13.537,60.116 2.608,55.987 -7.799,51.521 -17.544,45.169 c -5.984,-3.9 -11.591,-7.765 -16.073,-13.128 l -3.621,-4.329 c -2.454,-2.934 -4.602,-5.5 -6.716,-8.675 -7.219,-10.835 -12.412,-22.44 -15.823,-35.024 -0.48,-1.767 -1.069,-3.224 -0.483,-5.107 l 14.94,0.205 8.554,0.539 c 21.129,1.333 51.59,13.199 68.819,26.05 l 9.136,6.814 c 3.478,2.594 10.157,9.309 13.197,12.715 8.485,9.507 14.913,20.339 18.057,32.81 0.862,3.419 1.747,8.064 5.377,9.678 8.679,3.858 17.261,7.259 25.342,12.321 12.059,7.558 23.041,18.302 31.011,30.031 l 8.155,12.002 c 5.861,8.628 11.001,17.308 17.504,25.544 8.497,10.765 28.784,17.501 41.773,18.812 l 25.626,2.584 c 0.441,0.045 0.593,0.362 0.436,0.583"
       style="fill:#3d5724;fill-opacity:1;fill-rule:nonzero;stroke:none"
       transform="matrix(0.2283097,0,0,-0.2283097,119.51201,112.23359)"
       clip-path="url(#clipPath46)" />
  </g>
</svg>
