<svg width="59" height="65" viewBox="0 0 59 65" fill="none" xmlns="http://www.w3.org/2000/svg">
<path d="M32.4763 64.1542C31.5363 64.5842 30.4963 65.0341 29.4163 64.5341C18.7163 59.5541 11.5163 55.5142 5.98625 44.3542C1.98625 36.2742 1.01625 27.5042 0.476253 18.5942C0.246253 14.8142 -0.963747 10.1342 1.67625 9.85416C11.8563 8.78416 18.0263 7.77416 26.0063 1.03416C31.4963 -3.59584 37.1363 8.77416 50.4063 9.58416L57.2763 10.0042C58.1163 10.0542 58.5463 10.8042 58.4963 11.7442L57.8363 24.7442L57.2262 29.6242C56.4362 35.9442 54.8763 41.8242 51.7963 47.3142C47.0563 55.7642 41.1763 60.2042 32.4663 64.1542H32.4763ZM49.4463 40.4642C52.2663 33.6042 53.7963 21.9342 53.1663 14.5342C43.7663 13.7042 37.1963 11.7442 30.0763 5.94415C29.4163 5.40415 28.4163 6.00416 27.8263 6.36416C17.9263 12.2342 17.7463 12.4742 5.30625 14.3542C5.61625 34.8042 9.91625 51.5042 30.5363 58.9342C39.4963 55.6642 45.7763 49.4042 49.4463 40.4642Z" fill="#3E1E11"/>
<path d="M26.8863 46.3341L13.7763 33.2042C13.5563 32.9842 13.5163 32.7042 13.4763 32.5642C13.2463 31.8342 18.7663 28.6541 19.9163 27.9941C20.9063 27.4341 21.5963 27.6641 22.3363 28.4241C24.2463 30.4141 26.0463 32.2742 28.4763 34.1542L41.5663 17.1241C43.1363 18.4741 48.6863 22.0241 48.8163 22.5641C48.8863 22.8341 48.6563 23.3942 48.3363 23.7942L33.1663 43.2342C31.8763 44.8842 30.7163 46.4641 29.0663 47.7141C28.3763 47.6841 27.5763 47.0241 26.8863 46.3341Z" fill="#3E1E11"/>
</svg>
