<svg width="102" height="79" viewBox="0 0 102 79" fill="none" xmlns="http://www.w3.org/2000/svg">
<path d="M100.673 57.1882C101.092 49.6882 100.793 50.3782 97.8125 44.9582C97.2025 43.8382 97.0725 42.8582 97.0625 41.5182L97.0325 4.6882L37.8125 4.6682C37.3925 6.9882 37.7025 8.93819 37.7025 11.2682L37.6825 66.5282L67.0525 66.5882C69.3025 66.5882 69.6225 69.6682 69.6225 68.8982C69.6225 68.3882 69.2625 70.8782 67.5325 70.8782L48.1025 70.9382L34.3525 70.8582C33.8225 70.8282 32.9625 70.4282 32.9625 69.6782L32.8825 35.5882L0.2925 35.5182C-0.0375002 33.9482 -0.2175 32.6082 0.4725 31.3282L32.8725 31.2382C32.9525 29.3382 33.0425 27.7282 32.8325 25.7782L0.772496 25.7582C-0.127504 24.4482 0.0724968 22.6582 0.492497 20.9882L31.8325 21.0082C32.5825 21.0082 32.9425 20.5682 32.9425 19.8782V2.51819C32.9425 -0.861806 38.0525 0.138197 41.6625 0.138197L98.4425 0.1882C100.433 0.1882 101.673 1.5382 101.673 3.6882L101.783 68.9282C101.783 69.5682 101.873 69.8782 101.753 70.1382C101.132 71.4982 95.8525 70.5082 93.2525 70.9982C92.8725 72.7582 93.3525 77.4582 92.6025 77.9682C91.8525 78.4782 90.4525 76.7582 89.3025 76.0982C87.3425 74.9782 85.6225 73.7382 83.7425 72.4882C82.8125 72.4182 81.8925 73.3982 81.0825 73.9282L75.7625 77.4682C75.2025 78.3382 74.3525 77.8082 74.8525 76.8182L74.5725 65.6282C68.1825 60.0982 67.0625 51.2882 71.9725 44.7982C74.4925 41.4682 78.5225 39.6282 82.7525 39.5482C87.7725 39.4482 92.2525 42.2882 94.6825 45.8082C97.7825 50.2882 98.1225 55.5882 96.0625 60.3982C95.1025 62.6482 93.3925 64.0982 91.5925 66.0882C93.4325 67.1482 95.3525 66.6282 97.3625 66.4182C98.1325 65.3082 97.6725 64.0582 98.2625 62.9382C99.2325 61.0882 100.543 59.4082 100.663 57.2182L100.673 57.1882ZM92.8825 53.9982C92.8825 48.6282 88.5325 44.2782 83.1625 44.2782C77.7925 44.2782 73.4425 48.6282 73.4425 53.9982C73.4425 59.3682 77.7925 63.7182 83.1625 63.7182C88.5325 63.7182 92.8825 59.3682 92.8825 53.9982Z" fill="#3E1E11"/>
<path d="M88.3925 12.4282H44.9925V16.4282H88.3925V12.4282Z" fill="#3E1E11"/>
<path d="M88.2725 21.8782H44.9925V25.8382H88.2725V21.8782Z" fill="#3E1E11"/>
<path d="M88.1925 31.2482H45.2225V35.0182H88.1925V31.2482Z" fill="#3E1E11"/>
<path d="M66.6525 44.1782C66.1225 44.9582 65.1325 44.9282 64.3525 44.9282H46.5125C45.9325 44.9482 45.5625 44.7382 45.3625 44.5382C45.0225 44.1982 45.1225 43.7482 45.1325 43.2082C45.1625 41.6882 46.0625 41.0082 47.5425 41.0182L66.7625 41.0982C67.1625 42.0882 67.2725 43.2382 66.6325 44.1882L66.6525 44.1782Z" fill="#3E1E11"/>
</svg>
