<svg width="148" height="101" viewBox="0 0 148 101" fill="none" xmlns="http://www.w3.org/2000/svg">
<path d="M94.02 95.626C95.35 96.426 95.83 97.126 95.61 98.666C95.44 99.806 94.5 100.626 93.31 100.146C89.62 98.656 84.24 94.556 79.74 92.656C72.05 89.406 64.52 94.226 58.44 98.746C56.28 100.346 53.43 99.476 53.12 98.126C52.94 97.366 53.11 96.526 53.97 96.026L61.08 91.816C67.24 88.166 66.37 89.656 66.37 85.536L66.35 29.246L30.61 29.226C29.47 29.226 28.68 30.686 28.1 31.396L32.07 41.156L40.86 63.286L50.06 63.576L49.71 65.896C49.36 68.236 48.1 70.266 47.07 72.396C43.06 80.666 34.89 85.576 25.74 85.686C11.61 85.856 3.52 77.066 0 64.376C4.79 61.926 7.04 65.336 8.48 61.626L20.21 31.486C17.09 29.576 15.55 25.656 17.38 22.456C19.77 18.296 25.57 17.936 28.87 21.186C31.05 23.326 34.18 22.266 36.74 21.426L55.05 15.436C61.65 13.276 64.04 15.366 68.82 13.756C68.82 11.456 64.91 10.846 65.79 5.55603C66.15 3.39603 67.74 1.55603 70.06 0.596031C72.67 -0.48397 75.46 -0.0839696 77.63 1.69603C81.36 4.76603 81.42 9.71603 77.85 13.326C82.96 14.706 85.21 12.936 90.12 14.866C94.04 16.406 97.95 17.526 101.99 18.766L110.23 21.296C112.22 21.906 114.05 22.566 116.22 22.686C118.54 19.006 123.19 17.756 126.83 20.216C128.64 21.436 129.56 23.376 129.7 25.186C130.09 30.246 125.72 30.516 126.61 32.716L136 55.946L139.11 63.296L145.44 63.456C146.6 63.486 147.27 64.396 146.95 65.556C146.12 68.516 142.17 76.126 139.45 78.456C138.33 79.416 132.05 79.846 133.87 77.726C136.31 74.886 138.64 72.136 139.96 68.266L103.57 68.166C105.37 72.906 108.37 75.556 111.29 78.906C108.93 79.386 106.58 79.796 104.52 78.686C101.5 77.056 98.36 68.846 96.9 65.486C96.67 64.946 96.9 64.336 97.11 64.066C98.07 62.786 103.08 63.786 105.09 63.206L114.29 39.606C115.26 37.116 116.22 34.776 117.32 32.326C117.4 30.106 115.57 29.166 113.47 29.176H80.46L80.41 86.066C80.41 87.116 80.49 87.936 81.46 88.426C85.76 90.616 89.75 93.026 94.03 95.606L94.02 95.626ZM76.15 7.13603C76.15 5.38603 74.73 3.96603 72.98 3.96603C71.23 3.96603 69.81 5.38603 69.81 7.13603C69.81 8.88603 71.23 10.306 72.98 10.306C74.73 10.306 76.15 8.88603 76.15 7.13603ZM76.08 17.966H70.66V31.436H76.08V17.966ZM99.79 22.366C92.54 20.686 87.56 17.436 80.57 18.546C80.28 20.676 80.2 22.616 80.71 24.696L106.04 24.366C104.32 22.826 102.1 23.006 99.79 22.366ZM65.83 24.566C66.63 22.906 66.72 19.816 65.14 19.266C62.73 18.436 59.74 18.886 57.36 19.546C52.13 20.986 47.13 22.006 41.7 24.196L65.83 24.566ZM26.84 25.616C26.84 23.926 25.47 22.566 23.79 22.566C22.11 22.566 20.74 23.936 20.74 25.616C20.74 27.296 22.11 28.666 23.79 28.666C25.47 28.666 26.84 27.296 26.84 25.616ZM125.63 25.766C125.63 24.076 124.26 22.696 122.56 22.696C120.86 22.696 119.49 24.066 119.49 25.766C119.49 27.466 120.86 28.836 122.56 28.836C124.26 28.836 125.63 27.466 125.63 25.766ZM76.08 35.756H70.66V88.076H76.08V35.756ZM120.13 63.256L119.68 38.116L109.83 63.296C113.64 63.466 116.54 63.546 120.13 63.256ZM12.66 63.326C16.52 63.416 19.17 63.596 22.43 63.246L22.26 38.776L15.58 55.586C14.53 58.216 13.57 60.636 12.66 63.326ZM35.65 63.176L31.29 51.466C29.61 47.376 28.5 43.266 26.4 39.366L26.23 63.406C29.5 63.336 32.17 63.636 35.65 63.176ZM133.88 63.006L129.29 50.946C127.33 47.106 126.81 42.946 124.07 39.086L124.11 63.386C127.71 63.226 130.78 63.886 133.88 62.996V63.006ZM33.65 79.046C38.24 77.076 41.58 73.146 43.07 68.266L7.05 68.196C7.71 70.936 9.31 73.166 11.17 75.216C16.61 81.206 27.18 81.826 33.66 79.046H33.65Z" fill="#3E1E11"/>
</svg>
