<svg width="79" height="55" viewBox="0 0 79 55" fill="none" xmlns="http://www.w3.org/2000/svg">
<path d="M2.79927 54.2085C0.829272 54.2085 0.199266 53.5185 0.199266 52.0585C0.199266 50.5985 0.859261 49.4585 2.42926 49.3985L6.19927 49.2585V23.7885C4.39927 22.6985 2.63927 26.4985 0.139268 25.1985C-0.820732 21.7785 3.38927 19.7585 6.41927 17.6085L29.1993 1.47847C31.9093 -0.441527 32.8993 -0.441527 36.0393 1.18847L46.0793 6.39847L67.7593 17.6685C69.8793 18.7685 72.1593 19.5185 73.8493 21.1485C74.5893 21.8585 74.1293 23.1785 73.5393 23.7285C72.8293 24.3885 72.0293 24.7385 70.1993 24.3085L70.0793 49.2985L75.0293 49.4185C76.1293 49.4485 77.6093 49.9785 77.9193 51.0985C78.4693 53.1385 76.7693 54.2585 74.8493 54.2585L2.77927 54.1985L2.79927 54.2085ZM43.3893 27.4985L57.7693 27.5785L57.8893 49.3085H65.4793L65.5593 24.4385C65.5593 22.9985 65.2493 22.3285 64.0093 21.6885L50.8193 14.8385L32.3893 5.37847L27.8593 8.62847L10.6493 20.5385L10.7393 49.3485H41.9593L41.9793 28.7485C41.9793 27.9985 42.4793 27.4885 43.3993 27.4885L43.3893 27.4985ZM53.9093 31.4085H45.7393V49.3885H53.9093V31.4085Z" fill="#3E1E11"/>
</svg>
