<svg width="190" height="104" viewBox="0 0 190 104" fill="none" xmlns="http://www.w3.org/2000/svg">
<path d="M55.1208 27.4184C55.8308 25.4784 63.0808 22.9884 64.9108 22.0684C63.5908 20.7584 62.4708 21.6684 61.3408 21.5984C58.0208 21.3984 54.8908 21.6484 51.5808 21.6284C47.5708 21.5984 43.6908 21.4184 39.7608 21.6984C36.2408 24.5984 33.9908 28.1684 31.9608 32.0684L25.8608 43.8584L20.3108 54.6184L16.1308 62.8284L5.78079 82.2484C5.19079 83.3484 3.97079 83.8384 3.06079 83.9184C2.28079 83.9884 0.320793 83.6584 0.210793 82.4784L0.000791672 55.4584C-0.0192083 53.4584 0.340793 51.5284 0.960793 49.7784C1.16079 49.2084 1.78079 49.1584 2.05079 49.0184C4.18079 47.8784 3.21079 53.4384 4.36079 54.4484C9.80079 48.8084 8.62079 48.2584 8.78079 41.3884C8.81079 39.9684 8.70079 35.6484 10.5808 35.3184C12.0708 35.0584 12.0708 38.2884 12.6208 39.2084C14.1608 38.7684 16.5708 36.6184 16.5208 34.3184L16.3508 25.6384C16.3108 23.3784 18.6408 21.9484 18.2508 21.8984C18.4908 21.9284 18.7108 22.3984 19.0408 22.4984C21.0308 23.1284 19.5108 25.5484 20.9708 25.6284C25.2808 22.2284 22.8608 12.0384 25.4108 11.2184C25.9008 11.0584 26.7308 11.0384 27.0508 11.6384C27.4008 12.2984 27.4108 12.9084 28.2908 13.5784C29.1908 12.1884 30.4708 11.2484 30.9208 9.74841C31.4108 8.10841 29.4408 3.63841 31.9508 0.598409C32.3408 0.128409 32.8708 -0.0415912 33.3708 0.00840882C33.8108 0.0484088 34.6208 0.468408 34.7108 1.23841C35.3008 5.94841 35.2808 10.5284 35.3008 15.3584C35.3008 16.0384 35.2308 17.0484 35.9608 17.4584C37.6608 16.9184 39.9008 17.2084 40.5508 16.6484C41.4908 15.8284 40.1708 10.7084 43.1708 10.7284C44.7908 10.7384 43.6308 15.7484 44.3708 17.0684L75.3408 16.9484C77.4808 16.9484 79.5608 15.8284 81.4308 15.0284L88.5908 11.9384C90.5408 11.0984 92.3008 11.2684 94.2808 11.9084L125.011 21.7984C126.241 22.1984 127.381 22.4284 127.431 23.9784C127.511 26.6584 127.231 29.2684 127.571 32.1384L187.481 32.2284C191.521 32.2284 188.581 38.4784 188.101 39.9884L173.241 86.2084C172.761 87.7084 171.861 88.8284 170.211 88.8284H142.061C140.301 88.8384 139.231 89.3984 137.861 90.2684L119.081 102.238C118.081 102.868 116.851 103.648 115.431 103.648L18.6108 103.668C17.4808 103.668 16.9408 103.148 16.9008 102.238C16.8408 100.928 17.3408 99.6584 17.7808 98.3084L25.7208 73.9084C26.4108 71.7784 27.4708 70.2484 29.2708 68.9584C31.7808 67.1484 43.0208 59.2384 43.7508 57.3284L52.8108 33.7484L55.1208 27.4484V27.4184ZM28.0408 29.6184C30.1808 27.1084 30.7608 24.7384 31.5808 22.2084L31.4508 15.8384C30.0808 16.5784 27.8408 19.8584 27.8108 21.6284C27.7608 24.4084 27.5208 26.9984 28.0308 29.6284L28.0408 29.6184ZM138.821 84.1184C139.941 83.4184 141.501 83.7984 142.601 83.7984L168.581 83.7384C169.861 81.0384 170.561 78.5584 171.381 75.9084L177.711 56.2184L183.971 37.0084L124.211 36.9884C123.131 36.9884 122.701 36.2784 122.681 35.4084L122.481 26.3984L112.801 23.2784C108.791 21.9884 105.051 20.5284 100.941 19.4584C97.8608 18.6484 94.8908 16.6084 91.6508 16.6184C88.9008 16.6184 86.2908 18.7584 83.7008 19.6684C79.4308 21.1684 75.5808 22.9684 71.4308 24.6984L59.8408 29.5384C58.6008 30.0584 58.4608 32.1384 58.0308 33.2984L49.2608 56.9984C48.2608 59.7084 46.9108 61.8784 44.5908 63.5784L32.1008 72.7084C31.1808 73.4184 30.5708 74.3184 30.3008 75.4984L23.0708 98.5984L113.231 98.6184C115.431 98.6184 116.761 97.8884 118.421 96.8484L138.811 84.1184H138.821ZM65.6708 21.5684C65.6708 21.4184 65.5508 21.2984 65.4008 21.2984C65.2508 21.2984 65.1308 21.4184 65.1308 21.5684C65.1308 21.7184 65.2508 21.8384 65.4008 21.8384C65.5508 21.8384 65.6708 21.7184 65.6708 21.5684ZM23.9608 28.6784C22.7408 30.1784 21.2008 31.4884 20.5308 33.1584C20.3308 36.5484 20.0608 39.6084 20.6508 43.3284C24.3008 40.4584 24.8208 32.6684 23.9608 28.6784ZM12.6908 59.5384C17.0508 52.4684 17.1508 49.6384 16.4908 41.0884C11.4408 47.5984 12.5508 47.4684 12.5108 53.7884C12.5008 55.7284 11.8008 57.3384 12.6908 59.5484V59.5384ZM4.48079 74.4784C6.75079 71.5984 7.43079 68.7584 8.86079 65.9184L8.73079 56.2084C6.92079 56.6484 6.89079 57.9584 6.25079 58.8984C4.88079 60.8984 4.05079 63.1684 4.28079 65.7084C4.54079 68.7084 3.95079 71.4084 4.49079 74.4684L4.48079 74.4784Z" fill="#3E1E11"/>
</svg>
